<?xml version="1.0" encoding="UTF-8"?>
<svg width="60px" height="60px" viewBox="0 0 60 60" version="1.1" xmlns="http://www.w3.org/2000/svg" xmlns:xlink="http://www.w3.org/1999/xlink">
    <title>Account Management</title>
    <g id="2.-Export" stroke="none" stroke-width="1" fill="none" fill-rule="evenodd">
        <g id="KB-Home" transform="translate(-281.000000, -140.000000)" fill="#FF5933">
            <g id="card" transform="translate(158.000000, 115.000000)">
                <g id="Account-Management" transform="translate(123.000000, 25.000000)">
                    <circle id="Oval" fill-opacity="0.06" cx="30" cy="30" r="30"></circle>
                    <path d="M29.999975,32.5000179 C33.7265286,32.5000179 36.7499589,29.4765876 36.7499589,25.750034 C36.7499589,22.0234804 33.7265286,19.0000501 29.999975,19.0000501 C26.2734214,19.0000501 23.2499911,22.0234804 23.2499911,25.750034 C23.2499911,29.4765876 26.2734214,32.5000179 29.999975,32.5000179 Z M29.999975,30.2500232 C27.5202751,30.2500232 25.4999857,28.2297339 25.4999857,25.750034 C25.4999857,23.2703341 27.5202751,21.2500447 29.999975,21.2500447 C32.4796749,21.2500447 34.4999642,23.2703341 34.4999642,25.750034 C34.4999642,28.2297339 32.4796749,30.2500232 29.999975,30.2500232 Z M38.2499553,42.9999928 C39.4921398,42.9999928 40.4999499,41.9921828 40.4999499,40.7499982 L40.4999499,39.5500194 C40.4999499,36.0718935 37.6780725,33.2500161 34.1999466,33.2500161 C32.854674,33.2500161 32.2077639,34.0000143 29.999975,34.0000143 C27.792186,34.0000143 27.1499909,33.2500161 25.8000033,33.2500161 C22.3218774,33.2500161 19.5,36.0718935 19.5,39.5500194 L19.5,40.7499982 C19.5,41.9921828 20.5078101,42.9999928 21.7499946,42.9999928 L38.2499553,42.9999928 Z M38.2499553,40.7499982 L21.7499946,40.7499982 L21.7499946,39.5500194 C21.7499946,37.3187472 23.5687311,35.5000107 25.8000033,35.5000107 C26.4843583,35.5000107 27.5953024,36.2500089 29.999975,36.2500089 C32.4234158,36.2500089 33.5109224,35.5000107 34.1999466,35.5000107 C36.4312188,35.5000107 38.2499553,37.3187472 38.2499553,39.5500194 L38.2499553,40.7499982 Z" id="user" fill-rule="nonzero"></path>
                </g>
            </g>
        </g>
    </g>
</svg>