<?xml version="1.0" encoding="UTF-8"?>
<svg width="24px" height="14px" viewBox="0 0 24 14" version="1.1" xmlns="http://www.w3.org/2000/svg" xmlns:xlink="http://www.w3.org/1999/xlink">
    <title>DC828ED0-821A-4E06-8FEE-20D129F296B1</title>
    <g id="Dashboard" stroke="none" stroke-width="1" fill="none" fill-rule="evenodd">
        <g id="2.1" transform="translate(-1396.000000, -109.000000)" fill="#2E384D">
            <g id="Activity-Log-/-Collapse" transform="translate(1320.500000, 80.000000)">
                <g id="Group" transform="translate(67.500000, 16.000000)">
                    <g id="icon-/-expand" transform="translate(8.000000, 13.000000)">
                        <path d="M22.82845,12 C23.38045,12 23.82845,12.4477 23.82845,13 C23.82845,13.5523 23.38045,14 22.82845,14 L22.82845,14 L10.82845,14 C10.27615,14 9.82845,13.5523 9.82845,13 C9.82845,12.4477 10.27615,12 10.82845,12 L10.82845,12 Z M4.53555,3.4645 C4.92605,3.855 4.92605,4.4882 4.53555,4.8787 L3.414,6 L22.82845,6 C23.3410214,6 23.7639194,6.38602704 23.8217182,6.88337606 L23.82845,7 C23.82845,7.5523 23.38045,8 22.82845,8 L22.82845,8 L3.414,8 L4.53555,9.1213 C4.92605,9.5118 4.92605,10.145 4.53555,10.5355 C4.14505,10.9261 3.51185,10.9261 3.12135,10.5355 L0.29295,7.7071 C-0.09765,7.3166 -0.09765,6.6834 0.29295,6.2929 L3.12135,3.4645 C3.51185,3.0739 4.14505,3.0739 4.53555,3.4645 Z M22.82845,0 C23.38045,0 23.82845,0.4477 23.82845,1 C23.82845,1.5523 23.38045,2 22.82845,2 L22.82845,2 L10.82845,2 C10.27615,2 9.82845,1.5523 9.82845,1 C9.82845,0.4477 10.27615,0 10.82845,0 L10.82845,0 Z" id="Combined-Shape"></path>
                    </g>
                </g>
            </g>
        </g>
    </g>
</svg>