<?xml version="1.0" encoding="UTF-8"?>
<svg width="24px" height="14px" viewBox="0 0 24 14" version="1.1" xmlns="http://www.w3.org/2000/svg" xmlns:xlink="http://www.w3.org/1999/xlink">
    <title>E4F66AD4-2B50-4A41-A89C-43641EC655AF</title>
    <g id="Dashboard" stroke="none" stroke-width="1" fill="none" fill-rule="evenodd">
        <g id="3.2.6" transform="translate(-1173.000000, -117.000000)" fill="#2E384D">
            <g id="Activity-Log-/-Expanded" transform="translate(1152.000000, 80.000000)">
                <g id="Group" transform="translate(13.000000, 24.000000)">
                    <g id="icon-/-collapse" transform="translate(8.000000, 13.000000)">
                        <path d="M13,12 C13.5523,12 14,12.4477 14,13 C14,13.5523 13.5523,14 13,14 L1,14 C0.44772,14 0,13.5523 0,13 C0,12.4477 0.44772,12 1,12 L13,12 Z M19.2929,3.4645 C19.6834,3.0739 20.3166,3.0739 20.7071,3.4645 L20.7071,3.4645 L23.5355,6.2929 C23.9261,6.6834 23.9261,7.3166 23.5355,7.7071 L23.5355,7.7071 L20.7071,10.5355 C20.3166,10.9261 19.6834,10.9261 19.2929,10.5355 C18.9024,10.145 18.9024,9.5118 19.2929,9.1213 L19.2929,9.1213 L20.414,8 L1,8 C0.44772,8 0,7.5523 0,7 C0,6.4477 0.44772,6 1,6 L20.414,6 L19.2929,4.8787 C18.9324385,4.51823846 18.9047107,3.95097929 19.2097166,3.55870273 Z M13,0 C13.5523,0 14,0.4477 14,1 C14,1.5523 13.5523,2 13,2 L1,2 C0.44772,2 0,1.5523 0,1 C0,0.4477 0.44772,0 1,0 L13,0 Z" id="Combined-Shape"></path>
                    </g>
                </g>
            </g>
        </g>
    </g>
</svg>