<?xml version="1.0" encoding="UTF-8"?>
<svg width="60px" height="60px" viewBox="0 0 60 60" version="1.1" xmlns="http://www.w3.org/2000/svg" xmlns:xlink="http://www.w3.org/1999/xlink">
    <title>Advertising</title>
    <g id="2.-Export" stroke="none" stroke-width="1" fill="none" fill-rule="evenodd">
        <g id="KB-Home" transform="translate(-607.000000, -140.000000)" fill="#FF5933">
            <g id="card" transform="translate(484.000000, 115.000000)">
                <g id="Advertising" transform="translate(123.000000, 25.000000)">
                    <circle id="Oval" fill-opacity="0.06" cx="30" cy="30" r="30"></circle>
                    <path d="M39.7499481,40 C40.9921327,40 41.9999428,38.9921899 41.9999428,37.7500054 L41.9999428,24.2500376 C41.9999428,23.007853 40.9921327,22.0000429 39.7499481,22.0000429 L20.2499946,22.0000429 C19.0078101,22.0000429 18,23.007853 18,24.2500376 L18,37.7500054 C18,38.9921899 19.0078101,40 20.2499946,40 L39.7499481,40 Z M39.7499481,37.7500054 L20.2499946,37.7500054 L20.2499946,24.2500376 L39.7499481,24.2500376 L39.7499481,37.7500054 Z M23.5481283,35.5000107 C23.8673261,35.5000107 24.1518713,35.2974966 24.2568821,34.9961057 L24.6028132,34.0000143 L27.897651,34.0000143 L28.2435821,34.9961057 C28.3294381,35.2433382 28.5897727,35.4491934 28.8533867,35.4918868 L28.9523359,35.5000107 L29.7463709,35.5000107 C30.2624525,35.5000107 30.6243595,34.9914365 30.4551247,34.5039194 L27.9374763,27.2561186 C27.7925945,26.838868 27.3165214,26.5001237 26.8748263,26.5000322 L25.6251344,26.5000322 C25.1460859,26.5000322 24.7194969,26.8032999 24.5624844,27.2556609 L22.0457515,34.5039194 C21.8765624,34.9914365 22.2384237,35.5000107 22.7540475,35.5000107 L23.5481283,35.5000107 Z M37.1249544,35.5000107 C37.5393211,35.5000107 37.8749526,35.1643792 37.8749526,34.7500125 L37.8749526,27.2500304 C37.8749526,26.8356637 37.5393211,26.5000322 37.1249544,26.5000322 L36.3749562,26.5000322 C35.9605895,26.5000322 35.624958,26.8356637 35.624958,27.2500304 L35.624958,28.9572102 C35.2715195,28.8311424 34.8965204,28.7500268 34.4999607,28.7500268 C32.6390184,28.7500268 31.1249687,30.2640766 31.1249687,32.1250188 C31.1249687,33.985961 32.6390184,35.5000107 34.4999607,35.5000107 C34.9654137,35.5000107 35.4093518,35.4053454 35.8133731,35.233776 C35.9512054,35.3936267 36.1476313,35.5000107 36.3749562,35.5000107 L37.1249544,35.5000107 Z M27.1162502,31.7500197 L25.3837104,31.7500197 L26.2499803,29.2553509 L27.1162502,31.7500197 Z M34.4999607,33.2500161 C33.8797839,33.2500161 33.3749633,32.7451955 33.3749633,32.1250188 C33.3749633,31.504842 33.8797839,31.0000215 34.4999607,31.0000215 C35.1201374,31.0000215 35.624958,31.504842 35.624958,32.1250188 C35.624958,32.7451955 35.1201374,33.2500161 34.4999607,33.2500161 Z" id="ad" fill-rule="nonzero"></path>
                </g>
            </g>
        </g>
    </g>
</svg>