<?xml version="1.0" encoding="UTF-8"?>
<svg xmlns="http://www.w3.org/2000/svg" viewBox="0 0 60 60" width="60px" height="60px">
<g id="surface34324559">
<path style=" stroke:none;fill-rule:nonzero;fill:rgb(100%,89.803922%,87.450981%);fill-opacity:1;" d="M 30 60 C 13.429688 60 0 46.570312 0 30 C 0 13.429688 13.429688 0 30 0 C 46.570312 0 60 13.429688 60 30 C 60 46.570312 46.570312 60 30 60 Z M 30 60 "/>
<path style=" stroke:none;fill-rule:nonzero;fill:rgb(0%,0%,0%);fill-opacity:1;" d="M 30.199219 17.179688 C 26.480469 17.179688 22.347656 18.570312 21.480469 23.117188 C 21.386719 23.601562 21.726562 23.851562 22.046875 23.921875 L 25.820312 24.304688 C 26.175781 24.285156 26.457031 23.957031 26.527344 23.609375 C 26.851562 22.042969 28.179688 21.265625 29.667969 21.265625 C 30.46875 21.265625 31.382812 21.566406 31.855469 22.28125 C 32.40625 23.074219 32.3125 24.15625 32.3125 25.078125 L 32.3125 25.597656 C 30.050781 25.851562 27.09375 26.003906 24.976562 26.925781 C 22.527344 27.972656 20.8125 30.109375 20.8125 33.25 C 20.8125 37.269531 23.378906 39.292969 26.667969 39.292969 C 29.449219 39.292969 30.945312 38.628906 33.089844 36.464844 C 33.800781 37.480469 34.050781 37.980469 35.351562 39.050781 C 35.640625 39.203125 36.011719 39.175781 36.269531 38.945312 L 36.269531 38.980469 C 37.046875 38.292969 38.46875 37.0625 39.265625 36.394531 C 39.582031 36.136719 39.515625 35.734375 39.265625 35.382812 C 38.550781 34.40625 37.820312 33.59375 37.820312 31.78125 L 37.820312 25.773438 C 37.820312 23.21875 37.992188 20.859375 36.089844 19.097656 C 34.589844 17.675781 32.097656 17.179688 30.199219 17.179688 Z M 31.257812 28.707031 C 31.609375 28.683594 31.960938 28.707031 32.3125 28.707031 L 32.3125 29.542969 C 32.316406 31.050781 32.375 32.292969 31.609375 33.632812 C 30.988281 34.71875 29.988281 35.378906 28.890625 35.378906 C 27.390625 35.378906 26.523438 34.257812 26.523438 32.582031 C 26.523438 29.703125 28.789062 28.867188 31.257812 28.707031 Z M 42.246094 38.429688 C 41.242188 38.445312 40.0625 38.65625 39.160156 39.28125 C 38.886719 39.472656 38.925781 39.746094 39.234375 39.707031 C 40.246094 39.589844 42.488281 39.304688 42.890625 39.816406 C 43.292969 40.324219 42.445312 42.425781 42.066406 43.363281 C 41.953125 43.644531 42.203125 43.753906 42.460938 43.539062 C 44.148438 42.140625 44.597656 39.242188 44.253906 38.820312 C 44.082031 38.613281 43.25 38.417969 42.246094 38.429688 Z M 15.820312 38.960938 C 15.609375 38.988281 15.527344 39.261719 15.746094 39.460938 C 19.496094 42.8125 24.441406 44.820312 29.945312 44.820312 C 33.871094 44.820312 38.453125 43.601562 41.601562 41.304688 C 42.121094 40.921875 41.667969 40.335938 41.136719 40.558594 C 37.609375 42.042969 33.753906 42.761719 30.269531 42.761719 C 25.101562 42.761719 20.117188 41.363281 16.070312 39.03125 C 15.980469 38.980469 15.886719 38.953125 15.820312 38.960938 Z M 15.820312 38.960938 "/>
</g>
</svg>
