<?xml version="1.0" encoding="UTF-8"?>
<svg width="60px" height="60px" viewBox="0 0 60 60" version="1.1" xmlns="http://www.w3.org/2000/svg" xmlns:xlink="http://www.w3.org/1999/xlink">
    <title>Amazon 101</title>
    <g id="2.-Export" stroke="none" stroke-width="1" fill="none" fill-rule="evenodd">
        <g id="KB-Home" transform="translate(-933.000000, -140.000000)" fill="#FF5933">
            <g id="card" transform="translate(810.000000, 115.000000)">
                <g id="Amazon-101" transform="translate(123.000000, 25.000000)">
                    <circle id="Oval" fill-opacity="0.06" cx="30" cy="30" r="30"></circle>
                    <path d="M32.2124788,34.1594072 C32.5171656,34.6374945 33.8718224,35.9172155 34.3359021,36.3531429 L36.9983866,33.7281491 C36.9983866,33.7281491 35.4843369,32.5422236 35.4843369,31.2531642 L35.4843369,24.3578406 C35.4843369,23.1719151 34.3359021,20.5000465 30.2202961,20.5000465 C26.0953059,20.5000465 23.9062395,23.0781653 23.9062395,25.3890882 L27.3515438,25.7078283 C28.1155953,23.3875213 29.8921719,23.3875213 29.8921719,23.3875213 C31.799989,23.3828521 31.5562304,24.7844296 31.5562304,26.6266035 C29.2734142,26.7109692 23.6109369,27.3531643 23.6109369,32.1344029 C23.6109369,37.2672032 30.0937247,37.4781402 32.2124788,34.1594072 Z M27.6093557,31.5015919 C27.6093557,29.289088 29.9765375,28.8437766 31.5562304,28.7922325 L31.5562304,30.6953347 C31.5562304,34.4453257 27.6093557,33.8828271 27.6093557,31.5015919 Z M38.8030698,39.9156344 C39.0468284,39.7187507 39.4921398,39.2031269 39.7968266,38.4625128 C40.1015134,37.7125146 40.2749596,36.6812671 40.1015134,36.4421777 C39.8671389,36.1374909 38.6812134,36.090616 37.9452685,36.1750274 C37.2046544,36.2687772 36.0796571,36.728142 36.1874602,36.995338 C36.2343351,37.1031411 36.337469,37.0562662 36.8437086,37.0093913 C37.3593324,36.9578014 38.7890165,36.7703019 39.0937033,37.1594001 C39.4030592,37.5578366 38.6390077,39.4328322 38.498383,39.7375189 C38.3577584,40.0422057 38.5452579,40.1265714 38.8030698,39.9156344 Z M29.7515472,41.4999964 C34.649973,41.4999964 37.5702694,38.8281278 37.9312152,38.3593789 C38.2968302,37.89063 38.024965,37.623434 37.6734033,37.7968803 C29.0156023,41.898433 23.6484276,38.4625128 20.2125075,36.3765803 C20.0015705,36.2359556 19.6359555,36.4046869 19.9546956,36.7656327 C21.1031303,38.1484419 24.8531214,41.4999964 29.7515472,41.4999964 Z" id="amazon" fill-rule="nonzero"></path>
                </g>
            </g>
        </g>
    </g>
</svg>