<?xml version="1.0" encoding="UTF-8"?>
<svg xmlns="http://www.w3.org/2000/svg" xmlns:xlink="http://www.w3.org/1999/xlink" width="24pt" height="24pt" viewBox="0 0 24 24" version="1.1">
<g id="surface41920588">
<path style=" stroke:none;fill-rule:nonzero;fill:rgb(18.039216%,21.960784%,30.19608%);fill-opacity:1;" d="M 2 4 L 2 20 L 22 20 L 22 4 Z M 4.6875 10 L 5.925781 10 L 7.5 13.800781 L 7.5 10 L 9.074219 10 L 10.199219 12.699219 L 11.324219 10 L 12.785156 10 L 12.785156 14 L 11.886719 14 L 11.886719 11.097656 L 10.652344 14 L 9.75 14 L 8.515625 11 L 8.515625 14 L 6.597656 14 L 6.265625 13.101562 L 4.347656 13.101562 L 4.015625 14 L 3 14 Z M 14.027344 10 L 17.734375 10 L 18.636719 11.199219 L 19.761719 10 L 21 10 L 19.3125 12 L 21 14 L 19.875 14 L 18.75 12.699219 L 17.625 14 L 14.027344 14 Z M 5.25 10.800781 L 4.6875 12.199219 L 5.8125 12.199219 Z M 14.925781 10.902344 L 14.925781 11.597656 L 16.949219 11.597656 L 16.949219 12.402344 L 14.925781 12.402344 L 14.925781 13.199219 L 17.0625 13.199219 L 18.074219 12 L 17.175781 10.902344 Z M 14.925781 10.902344 "/>
</g>
</svg>
