<?xml version="1.0"?>
<svg xmlns="http://www.w3.org/2000/svg" xmlns:xlink="http://www.w3.org/1999/xlink" xmlns:svgjs="http://svgjs.com/svgjs" version="1.1" width="512" height="512" x="0" y="0" viewBox="0 0 480 480" style="enable-background:new 0 0 512 512" xml:space="preserve" class=""><circle r="240" cx="240" cy="240" fill="#ffe5df" shape="circle"/><g transform="matrix(0.5,0,0,0.5,119.99999999999999,119.99999999999999)">
<g xmlns="http://www.w3.org/2000/svg">
	<g>
		<g>
			<path d="M160,112h32c4.418,0,8-3.582,8-8V72c0-4.418-3.582-8-8-8h-32c-4.418,0-8,3.582-8,8v32C152,108.418,155.582,112,160,112z      M168,80h16v16h-16V80z" fill="#2e384d" data-original="#000000" style=""/>
			<path d="M224,112h32c4.418,0,8-3.582,8-8V72c0-4.418-3.582-8-8-8h-32c-4.418,0-8,3.582-8,8v32C216,108.418,219.582,112,224,112z      M232,80h16v16h-16V80z" fill="#2e384d" data-original="#000000" style=""/>
			<path d="M288,112h32c4.418,0,8-3.582,8-8V72c0-4.418-3.582-8-8-8h-32c-4.418,0-8,3.582-8,8v32C280,108.418,283.582,112,288,112z      M296,80h16v16h-16V80z" fill="#2e384d" data-original="#000000" style=""/>
			<path d="M160,176h32c4.418,0,8-3.582,8-8v-32c0-4.418-3.582-8-8-8h-32c-4.418,0-8,3.582-8,8v32C152,172.418,155.582,176,160,176z      M168,144h16v16h-16V144z" fill="#2e384d" data-original="#000000" style=""/>
			<path d="M224,176h32c4.418,0,8-3.582,8-8v-32c0-4.418-3.582-8-8-8h-32c-4.418,0-8,3.582-8,8v32C216,172.418,219.582,176,224,176z      M232,144h16v16h-16V144z" fill="#2e384d" data-original="#000000" style=""/>
			<path d="M288,176h32c4.418,0,8-3.582,8-8v-32c0-4.418-3.582-8-8-8h-32c-4.418,0-8,3.582-8,8v32C280,172.418,283.582,176,288,176z      M296,144h16v16h-16V144z" fill="#2e384d" data-original="#000000" style=""/>
			<path d="M160,240h32c4.418,0,8-3.582,8-8v-32c0-4.418-3.582-8-8-8h-32c-4.418,0-8,3.582-8,8v32C152,236.418,155.582,240,160,240z      M168,208h16v16h-16V208z" fill="#2e384d" data-original="#000000" style=""/>
			<path d="M224,240h32c4.418,0,8-3.582,8-8v-32c0-4.418-3.582-8-8-8h-32c-4.418,0-8,3.582-8,8v32C216,236.418,219.582,240,224,240z      M232,208h16v16h-16V208z" fill="#2e384d" data-original="#000000" style=""/>
			<path d="M288,240h32c4.418,0,8-3.582,8-8v-32c0-4.418-3.582-8-8-8h-32c-4.418,0-8,3.582-8,8v32C280,236.418,283.582,240,288,240z      M296,208h16v16h-16V208z" fill="#2e384d" data-original="#000000" style=""/>
			<path d="M160,304h32c4.418,0,8-3.582,8-8v-32c0-4.418-3.582-8-8-8h-32c-4.418,0-8,3.582-8,8v32C152,300.418,155.582,304,160,304z      M168,272h16v16h-16V272z" fill="#2e384d" data-original="#000000" style=""/>
			<path d="M224,304h32c4.418,0,8-3.582,8-8v-32c0-4.418-3.582-8-8-8h-32c-4.418,0-8,3.582-8,8v32C216,300.418,219.582,304,224,304z      M232,272h16v16h-16V272z" fill="#2e384d" data-original="#000000" style=""/>
			<path d="M288,304h32c4.418,0,8-3.582,8-8v-32c0-4.418-3.582-8-8-8h-32c-4.418,0-8,3.582-8,8v32C280,300.418,283.582,304,288,304z      M296,272h16v16h-16V272z" fill="#2e384d" data-original="#000000" style=""/>
			<path d="M160,368h32c4.418,0,8-3.582,8-8v-32c0-4.418-3.582-8-8-8h-32c-4.418,0-8,3.582-8,8v32C152,364.418,155.582,368,160,368z      M168,336h16v16h-16V336z" fill="#2e384d" data-original="#000000" style=""/>
			<path d="M224,368h32c4.418,0,8-3.582,8-8v-32c0-4.418-3.582-8-8-8h-32c-4.418,0-8,3.582-8,8v32C216,364.418,219.582,368,224,368z      M232,336h16v16h-16V336z" fill="#2e384d" data-original="#000000" style=""/>
			<path d="M288,368h32c4.418,0,8-3.582,8-8v-32c0-4.418-3.582-8-8-8h-32c-4.418,0-8,3.582-8,8v32C280,364.418,283.582,368,288,368z      M296,336h16v16h-16V336z" fill="#2e384d" data-original="#000000" style=""/>
			<path d="M360,464V48h8c4.418,0,8-3.582,8-8V8c0-4.418-3.582-8-8-8H112c-4.418,0-8,3.582-8,8v32c0,4.418,3.582,8,8,8h8v416H48v16     h384v-16H360z M120,16h240v16H120V16z M232,464h-32v-64h32V464z M280,464h-32v-64h32V464z M344,464h-48v-72c0-4.418-3.582-8-8-8     h-96c-4.418,0-8,3.582-8,8v72h-48V48h208V464z" fill="#2e384d" data-original="#000000" style=""/>
		</g>
	</g>
</g>
<g xmlns="http://www.w3.org/2000/svg">
</g>
<g xmlns="http://www.w3.org/2000/svg">
</g>
<g xmlns="http://www.w3.org/2000/svg">
</g>
<g xmlns="http://www.w3.org/2000/svg">
</g>
<g xmlns="http://www.w3.org/2000/svg">
</g>
<g xmlns="http://www.w3.org/2000/svg">
</g>
<g xmlns="http://www.w3.org/2000/svg">
</g>
<g xmlns="http://www.w3.org/2000/svg">
</g>
<g xmlns="http://www.w3.org/2000/svg">
</g>
<g xmlns="http://www.w3.org/2000/svg">
</g>
<g xmlns="http://www.w3.org/2000/svg">
</g>
<g xmlns="http://www.w3.org/2000/svg">
</g>
<g xmlns="http://www.w3.org/2000/svg">
</g>
<g xmlns="http://www.w3.org/2000/svg">
</g>
<g xmlns="http://www.w3.org/2000/svg">
</g>
</g></svg>
