<?xml version="1.0" encoding="UTF-8"?>
<svg width="18px" height="18px" viewBox="0 0 18 18" version="1.1" xmlns="http://www.w3.org/2000/svg" xmlns:xlink="http://www.w3.org/1999/xlink">
    <title>icon_cancel@2x</title>
    <g id="icon_cancel" stroke="none" stroke-width="1" fill="none" fill-rule="evenodd">
        <path d="M8.99998093,16.7499958 C10.3958111,16.7499958 11.6874745,16.4010382 12.8749717,15.7031233 C14.0624689,15.0052085 15.0051751,14.0625022 15.7030899,12.8750051 C16.4010048,11.6875079 16.7499624,10.3958445 16.7499624,9.00001431 C16.7499624,7.60418414 16.4010048,6.31252071 15.7030899,5.12502354 C15.0051751,3.93752638 14.0624689,2.99482013 12.8749717,2.29690529 C11.6874745,1.59899044 10.3958111,1.25003278 8.99998093,1.25003278 C7.60415076,1.25003278 6.31248733,1.59899044 5.12499017,2.29690529 C3.937493,2.99482013 2.99478675,3.93752638 2.29687191,5.12502354 C1.59895706,6.31252071 1.2499994,7.60418414 1.2499994,9.00001431 C1.2499994,10.3958445 1.59895706,11.6875079 2.29687191,12.8750051 C2.99478675,14.0625022 3.937493,15.0052085 5.12499017,15.7031233 C6.31248733,16.4010382 7.60415076,16.7499958 8.99998093,16.7499958 Z M8.99998093,15.7499982 C7.79165032,15.7499982 6.666653,15.4479154 5.62498897,14.8437504 C4.58332495,14.2395853 3.76040993,13.4218788 3.15624486,12.3906312 C2.55207979,11.3593837 2.24999702,10.2343864 2.24999702,9.01563927 C2.24999702,7.79689217 2.55207979,6.66668638 3.15624486,5.62502235 C3.76040993,4.58335833 4.57811647,3.7604433 5.60936401,3.15627824 C6.64061155,2.55211317 7.76560887,2.2500304 8.98435596,2.2500304 C10.2031031,2.2500304 11.3333089,2.55211317 12.3749729,3.15627824 C13.4166369,3.7604433 14.2395519,4.57814985 14.843717,5.60939739 C15.4478821,6.64064493 15.7499648,7.76564225 15.7499648,8.98438934 C15.7499648,10.2031364 15.4478821,11.3333422 14.843717,12.3750063 C14.2395519,13.4166703 13.4218454,14.2395853 12.3905978,14.8437504 C11.3593503,15.4479154 10.2291445,15.7499982 8.99998093,15.7499982 Z M11.4374751,12.062507 C11.5416414,12.062507 11.6249747,12.0312571 11.6874745,11.9687572 L11.6874745,11.9687572 L11.9687238,11.6875079 C12.0312237,11.625008 12.0624736,11.5416748 12.0624736,11.4375085 C12.0624736,11.3333422 12.0312237,11.2395925 11.9687238,11.1562592 L11.9687238,11.1562592 L9.81247899,9.00001431 L11.9687238,6.84376945 C12.0312237,6.76043615 12.0624736,6.66668638 12.0624736,6.56252012 C12.0624736,6.45835386 12.0312237,6.37502056 11.9687238,6.31252071 L11.9687238,6.31252071 L11.6874745,6.03127138 C11.6249747,5.96877153 11.5416414,5.93752161 11.4374751,5.93752161 C11.3333089,5.93752161 11.2395591,5.96877153 11.1562258,6.03127138 L11.1562258,6.03127138 L8.99998093,8.18751624 L6.84373607,6.03127138 C6.76040277,5.96877153 6.666653,5.93752161 6.56248674,5.93752161 C6.45832048,5.93752161 6.37498719,5.96877153 6.31248733,6.03127138 L6.31248733,6.03127138 L6.031238,6.31252071 C5.96873815,6.37502056 5.93748823,6.45835386 5.93748823,6.56252012 C5.93748823,6.66668638 5.96873815,6.76043615 6.031238,6.84376945 L6.031238,6.84376945 L8.21873279,9.00001431 L6.031238,11.1562592 C5.96873815,11.2395925 5.93748823,11.3333422 5.93748823,11.4375085 C5.93748823,11.5416748 5.96873815,11.625008 6.031238,11.6875079 L6.031238,11.6875079 L6.31248733,11.9687572 C6.37498719,12.0312571 6.45832048,12.062507 6.56248674,12.062507 C6.666653,12.062507 6.76040277,12.0312571 6.84373607,11.9687572 L6.84373607,11.9687572 L8.99998093,9.78126244 L11.1562258,11.9687572 C11.2395591,12.0312571 11.3333089,12.062507 11.4374751,12.062507 Z" id="times-circle" fill="#000000" fill-rule="nonzero"></path>
    </g>
</svg>