<?xml version="1.0" encoding="UTF-8"?>
<svg width="60px" height="60px" viewBox="0 0 60 60" version="1.1" xmlns="http://www.w3.org/2000/svg" xmlns:xlink="http://www.w3.org/1999/xlink">
    <title>Catalog</title>
    <g id="2.-Export" stroke="none" stroke-width="1" fill="none" fill-rule="evenodd">
        <g id="KB-Home" transform="translate(-281.000000, -380.000000)" fill="#FF5933">
            <g id="card" transform="translate(158.000000, 355.000000)">
                <g id="Catalog" transform="translate(123.000000, 25.000000)">
                    <circle id="Oval" fill-opacity="0.06" cx="30" cy="30" r="30"></circle>
                    <path d="M42.3749383,40 C42.9962595,40 43.4999356,39.4963238 43.4999356,38.8750027 L43.4999356,23.1250402 C43.4999356,22.5037191 42.9962595,22.0000429 42.3749383,22.0000429 L21.7499875,22.0000429 C20.7722524,22.0000429 19.938621,22.6270861 19.6289903,23.5000429 L17.6249973,23.5000429 C17.0036762,23.5000429 16.5,24.0037155 16.5,24.6250367 L16.5,37.3750063 C16.5,38.8247404 17.6752596,40 19.1249937,40 L42.3749383,40 Z M41.249941,37.7500054 L21.7228879,37.7500054 C21.7404202,37.6274623 21.7499875,37.5023558 21.7499875,37.3750063 L21.7499875,24.2500376 L41.249941,24.2500376 L41.249941,37.7500054 Z M19.1249937,37.7500054 C18.9182224,37.7500054 18.7499946,37.5817776 18.7499946,37.3750063 L18.7499946,25.750034 L19.4999928,25.750034 L19.4999928,37.3750063 C19.4999928,37.5817776 19.3317651,37.7500054 19.1249937,37.7500054 Z M30.9374656,32.1250188 C31.2481033,32.1250188 31.4999642,31.8731578 31.4999642,31.5625201 L31.4999642,27.0625308 C31.4999642,26.7518932 31.2481033,26.5000322 30.9374656,26.5000322 L24.5624808,26.5000322 C24.2518431,26.5000322 23.9999821,26.7518932 23.9999821,27.0625308 L23.9999821,31.5625201 C23.9999821,31.8731578 24.2518431,32.1250188 24.5624808,32.1250188 L30.9374656,32.1250188 Z M38.4374477,28.7500268 C38.7480854,28.7500268 38.9999464,28.4981659 38.9999464,28.1875282 L38.9999464,27.0625308 C38.9999464,26.7518932 38.7480854,26.5000322 38.4374477,26.5000322 L33.5624593,26.5000322 C33.2518216,26.5000322 32.9999607,26.7518932 32.9999607,27.0625308 L32.9999607,28.1875282 C32.9999607,28.4981659 33.2518216,28.7500268 33.5624593,28.7500268 L38.4374477,28.7500268 Z M29.6249687,30.2500232 L25.8749776,30.2500232 L25.8749776,28.3750277 L29.6249687,28.3750277 L29.6249687,30.2500232 Z M38.4374477,32.1250188 C38.7480854,32.1250188 38.9999464,31.8731578 38.9999464,31.5625201 L38.9999464,30.4375228 C38.9999464,30.1268851 38.7480854,29.8750241 38.4374477,29.8750241 L33.5624593,29.8750241 C33.2518216,29.8750241 32.9999607,30.1268851 32.9999607,30.4375228 L32.9999607,31.5625201 C32.9999607,31.8731578 33.2518216,32.1250188 33.5624593,32.1250188 L38.4374477,32.1250188 Z M30.9374656,35.5000107 C31.2481033,35.5000107 31.4999642,35.2481498 31.4999642,34.9375121 L31.4999642,33.8125148 C31.4999642,33.5018771 31.2481033,33.2500161 30.9374656,33.2500161 L24.5624808,33.2500161 C24.2518431,33.2500161 23.9999821,33.5018771 23.9999821,33.8125148 L23.9999821,34.9375121 C23.9999821,35.2481498 24.2518431,35.5000107 24.5624808,35.5000107 L30.9374656,35.5000107 Z M38.4374477,35.5000107 C38.7480854,35.5000107 38.9999464,35.2481498 38.9999464,34.9375121 L38.9999464,33.8125148 C38.9999464,33.5018771 38.7480854,33.2500161 38.4374477,33.2500161 L33.5624593,33.2500161 C33.2518216,33.2500161 32.9999607,33.5018771 32.9999607,33.8125148 L32.9999607,34.9375121 C32.9999607,35.2481498 33.2518216,35.5000107 33.5624593,35.5000107 L38.4374477,35.5000107 Z" id="newspaper" fill-rule="nonzero"></path>
                </g>
            </g>
        </g>
    </g>
</svg>