<?xml version="1.0" encoding="UTF-8"?>
<svg xmlns="http://www.w3.org/2000/svg" xmlns:xlink="http://www.w3.org/1999/xlink" width="48pt" height="48pt" viewBox="0 0 48 48" version="1.1">
<g id="surface52357913">
<path style=" stroke:none;fill-rule:nonzero;fill:rgb(100%,34.901962%,20%);fill-opacity:1;" d="M 24 4 C 12.972656 4 4 12.972656 4 24 C 4 35.027344 12.972656 44 24 44 C 35.027344 44 44 35.027344 44 24 C 44 12.972656 35.027344 4 24 4 Z M 24 7 C 33.40625 7 41 14.59375 41 24 C 41 33.40625 33.40625 41 24 41 C 14.59375 41 7 33.40625 7 24 C 7 14.59375 14.59375 7 24 7 Z M 31.472656 17.988281 C 31.082031 17.996094 30.710938 18.160156 30.441406 18.441406 L 21.5 27.378906 L 17.5625 23.441406 C 17.183594 23.046875 16.625 22.890625 16.101562 23.027344 C 15.574219 23.164062 15.164062 23.574219 15.027344 24.101562 C 14.890625 24.625 15.046875 25.183594 15.441406 25.5625 L 20.441406 30.5625 C 21.023438 31.144531 21.976562 31.144531 22.5625 30.5625 L 32.5625 20.5625 C 33.003906 20.128906 33.136719 19.46875 32.894531 18.902344 C 32.65625 18.332031 32.089844 17.96875 31.472656 17.988281 Z M 31.472656 17.988281 "/>
</g>
</svg>
