<?xml version="1.0" encoding="UTF-8"?>
<svg width="60px" height="60px" viewBox="0 0 60 60" version="1.1" xmlns="http://www.w3.org/2000/svg" xmlns:xlink="http://www.w3.org/1999/xlink">
    <title>Company Knowledge</title>
    <g id="2.-Export" stroke="none" stroke-width="1" fill="none" fill-rule="evenodd">
        <g id="KB-Home" transform="translate(-607.000000, -380.000000)" fill="#FF5933">
            <g id="card" transform="translate(484.000000, 355.000000)">
                <g id="Company-Knowledge" transform="translate(123.000000, 25.000000)">
                    <circle id="Oval" fill-opacity="0.06" cx="30" cy="30" r="30"></circle>
                    <path d="M40.4999499,42.9999928 L40.4999499,41.3124969 C40.4999499,41.0031409 40.2468072,40.7499982 39.9374513,40.7499982 L39.023391,40.7499982 L39.023391,20.1250474 C39.023391,19.5016205 38.5218205,19.0000501 37.8983936,19.0000501 L22.1015563,19.0000501 C21.4781294,19.0000501 20.976559,19.5016205 20.976559,20.1250474 L20.976559,40.7499982 L20.0624987,40.7499982 C19.7531427,40.7499982 19.5,41.0031409 19.5,41.3124969 L19.5,42.9999928 L40.4999499,42.9999928 Z M28.4999785,40.7031233 L23.2265536,40.7031233 L23.2499911,21.2500447 L36.7733963,21.2969196 L36.7733963,40.7031233 L31.4999714,40.7031233 L31.4999714,37.5625058 C31.4999714,37.2531499 31.2468287,37.0000072 30.9374727,37.0000072 L29.0624772,37.0000072 C28.7531212,37.0000072 28.4999785,37.2531499 28.4999785,37.5625058 L28.4999785,40.7031233 Z M27.9374799,26.5000393 C28.2468358,26.5000393 28.4999857,26.2468895 28.4999857,25.9375335 L28.4999857,24.062538 C28.4999857,23.753182 28.2468358,23.5000393 27.9374799,23.5000393 L26.0624844,23.5000393 C25.7531284,23.5000393 25.4999857,23.753182 25.4999857,24.062538 L25.4999857,25.9375335 C25.4999857,26.2468895 25.7531284,26.5000393 26.0624844,26.5000393 L27.9374799,26.5000393 Z M33.9374656,26.5000393 C34.2468215,26.5000393 34.4999714,26.2468895 34.4999714,25.9375335 L34.4999714,24.062538 C34.4999714,23.753182 34.2468215,23.5000393 33.9374656,23.5000393 L32.06247,23.5000393 C31.7531141,23.5000393 31.4999714,23.753182 31.4999714,24.062538 L31.4999714,25.9375335 C31.4999714,26.2468895 31.7531141,26.5000393 32.06247,26.5000393 L33.9374656,26.5000393 Z M27.9374799,31.0000286 C28.2468358,31.0000286 28.4999857,30.7468788 28.4999857,30.4375228 L28.4999857,28.5625273 C28.4999857,28.2531713 28.2468358,28.0000286 27.9374799,28.0000286 L26.0624844,28.0000286 C25.7531284,28.0000286 25.4999857,28.2531713 25.4999857,28.5625273 L25.4999857,30.4375228 C25.4999857,30.7468788 25.7531284,31.0000286 26.0624844,31.0000286 L27.9374799,31.0000286 Z M33.9374656,31.0000286 C34.2468215,31.0000286 34.4999714,30.7468788 34.4999714,30.4375228 L34.4999714,28.5625273 C34.4999714,28.2531713 34.2468215,28.0000286 33.9374656,28.0000286 L32.06247,28.0000286 C31.7531141,28.0000286 31.4999714,28.2531713 31.4999714,28.5625273 L31.4999714,30.4375228 C31.4999714,30.7468788 31.7531141,31.0000286 32.06247,31.0000286 L33.9374656,31.0000286 Z M27.9374799,35.5000179 C28.2468358,35.5000179 28.4999857,35.246868 28.4999857,34.9375121 L28.4999857,33.0625165 C28.4999857,32.7531606 28.2468358,32.5000179 27.9374799,32.5000179 L26.0624844,32.5000179 C25.7531284,32.5000179 25.4999857,32.7531606 25.4999857,33.0625165 L25.4999857,34.9375121 C25.4999857,35.246868 25.7531284,35.5000179 26.0624844,35.5000179 L27.9374799,35.5000179 Z M33.9374656,35.5000179 C34.2468215,35.5000179 34.4999714,35.246868 34.4999714,34.9375121 L34.4999714,33.0625165 C34.4999714,32.7531606 34.2468215,32.5000179 33.9374656,32.5000179 L32.06247,32.5000179 C31.7531141,32.5000179 31.4999714,32.7531606 31.4999714,33.0625165 L31.4999714,34.9375121 C31.4999714,35.246868 31.7531141,35.5000179 32.06247,35.5000179 L33.9374656,35.5000179 Z" id="building" fill-rule="nonzero"></path>
                </g>
            </g>
        </g>
    </g>
</svg>