<?xml version="1.0" encoding="UTF-8"?>
<svg width="188px" height="188px" viewBox="0 0 188 188" version="1.1" xmlns="http://www.w3.org/2000/svg" xmlns:xlink="http://www.w3.org/1999/xlink">
    <title>Company_Placeholder</title>
    <g id="Dashboard" stroke="none" stroke-width="1" fill="none" fill-rule="evenodd">
        <g id="x.-Company-Placeholder" transform="translate(-720.000000, -834.000000)">
            <g id="Company_Placeholder" transform="translate(720.000000, 834.000000)">
                <rect id="Rectangle" fill="#F4F6FC" x="0" y="0" width="188" height="188"></rect>
                <path d="M140,143 L140,135.6875 C140,134.346954 138.903046,133.25 137.5625,133.25 L133.601562,133.25 L133.601562,43.875 C133.601562,41.1734772 131.428085,39 128.726562,39 L60.2734375,39 C57.5719147,39 55.3984375,41.1734772 55.3984375,43.875 L55.3984375,133.25 L51.4375,133.25 C50.0969543,133.25 49,134.346954 49,135.6875 L49,143 L140,143 Z M88,133.046875 L65.1484375,133.046875 L65.25,48.75 L123.851562,48.953125 L123.851562,133.046875 L101,133.046875 L101,119.4375 C101,118.096954 99.9030457,117 98.5625,117 L90.4375,117 C89.0969543,117 88,118.096954 88,119.4375 L88,133.046875 Z M85.5625,71.5 C86.9030457,71.5 88,70.4030457 88,69.0625 L88,60.9375 C88,59.5969543 86.9030457,58.5 85.5625,58.5 L77.4375,58.5 C76.0969543,58.5 75,59.5969543 75,60.9375 L75,69.0625 C75,70.4030457 76.0969543,71.5 77.4375,71.5 L85.5625,71.5 Z M111.5625,71.5 C112.903046,71.5 114,70.4030457 114,69.0625 L114,60.9375 C114,59.5969543 112.903046,58.5 111.5625,58.5 L103.4375,58.5 C102.096954,58.5 101,59.5969543 101,60.9375 L101,69.0625 C101,70.4030457 102.096954,71.5 103.4375,71.5 L111.5625,71.5 Z M85.5625,91 C86.9030457,91 88,89.9030457 88,88.5625 L88,80.4375 C88,79.0969543 86.9030457,78 85.5625,78 L77.4375,78 C76.0969543,78 75,79.0969543 75,80.4375 L75,88.5625 C75,89.9030457 76.0969543,91 77.4375,91 L85.5625,91 Z M111.5625,91 C112.903046,91 114,89.9030457 114,88.5625 L114,80.4375 C114,79.0969543 112.903046,78 111.5625,78 L103.4375,78 C102.096954,78 101,79.0969543 101,80.4375 L101,88.5625 C101,89.9030457 102.096954,91 103.4375,91 L111.5625,91 Z M85.5625,110.5 C86.9030457,110.5 88,109.403046 88,108.0625 L88,99.9375 C88,98.5969543 86.9030457,97.5 85.5625,97.5 L77.4375,97.5 C76.0969543,97.5 75,98.5969543 75,99.9375 L75,108.0625 C75,109.403046 76.0969543,110.5 77.4375,110.5 L85.5625,110.5 Z M111.5625,110.5 C112.903046,110.5 114,109.403046 114,108.0625 L114,99.9375 C114,98.5969543 112.903046,97.5 111.5625,97.5 L103.4375,97.5 C102.096954,97.5 101,98.5969543 101,99.9375 L101,108.0625 C101,109.403046 102.096954,110.5 103.4375,110.5 L111.5625,110.5 Z" id="b" fill="#69707F" fill-rule="nonzero"></path>
            </g>
        </g>
    </g>
</svg>