<?xml version="1.0" encoding="UTF-8"?>
<svg width="18px" height="18px" viewBox="0 0 18 18" version="1.1" xmlns="http://www.w3.org/2000/svg" xmlns:xlink="http://www.w3.org/1999/xlink">
    <title>icon_copy@2x</title>
    <g id="icon_copy" stroke="none" stroke-width="1" fill="none" fill-rule="evenodd">
        <path d="M10.4999797,16.9999952 C10.9166452,16.9999952 11.2708114,16.8541621 11.5624772,16.5624963 C11.854143,16.2708305 11.9999762,15.9166643 11.9999762,15.4999988 L11.9999762,15.4999988 L11.9999762,14.0000024 L14.4999702,14.0000024 C14.9166357,14.0000024 15.2708019,13.8541692 15.5624677,13.5625034 C15.8541335,13.2708376 15.9999666,12.9166715 15.9999666,12.500006 L15.9999666,12.500006 L15.9999666,4.12502593 C15.9999666,3.70836041 15.8541335,3.35419427 15.5624677,3.06252846 L15.5624677,3.06252846 L13.9374715,1.43753234 C13.6458057,1.14586652 13.2916396,1.00003338 12.8749741,1.00003338 L12.8749741,1.00003338 L7.49998689,1.00003338 C7.08332137,1.00003338 6.72915523,1.14586652 6.43748942,1.43753234 C6.14582361,1.72919815 6,2.08336429 6,2.50003338 L6,2.50003338 L6,4.00003338 L3.5,4.00003338 C3.08333091,4.00003338 2.72916477,4.14585937 2.43749896,4.43752518 C2.14583314,4.729191 2,5.08335714 2,5.50002265 L2,5.50002265 L2,15.4999988 C2,15.9166643 2.14583314,16.2708305 2.43749896,16.5624963 C2.72916477,16.8541621 3.08333091,16.9999952 3.5,16.9999952 L3.5,16.9999952 L10.4999797,16.9999952 Z M14.9999738,4.00003099 L12.9999738,4.00003099 L12.9999738,2.00003099 C13.0833071,2.0416974 13.1562234,2.09378077 13.2187233,2.15628062 L13.2187233,2.15628062 L14.8437194,3.78127675 C14.9062192,3.8437766 14.9583026,3.91669293 14.9999738,4.00003099 L14.9999738,4.00003099 Z M14.4999702,13.0000048 L7.49998808,13.0000048 C7.35415374,13.0000048 7.23436252,12.9531299 7.14061274,12.8593801 C7.04686297,12.7656303 6.99998808,12.6458391 6.99998808,12.500006 L6.99998808,12.500006 L6.99998808,2.50003099 C6.99998808,2.35419666 7.04686297,2.23440544 7.14061274,2.14065566 C7.23436252,2.04690588 7.35415374,2.00003099 7.49998808,2.00003099 L7.49998808,2.00003099 L11.9999762,2.00003099 L11.9999762,4.25002563 C11.9999762,4.45835863 12.0728925,4.63544122 12.2187256,4.78127436 C12.3645588,4.92710751 12.5416414,5.00003099 12.7499744,5.00003099 L12.7499744,5.00003099 L14.999969,5.00003099 L14.999969,12.500006 C14.999969,12.6458391 14.9530941,12.7656303 14.8593443,12.8593801 C14.7655946,12.9531299 14.6458033,13.0000048 14.4999702,13.0000048 L14.4999702,13.0000048 Z M10.4999797,15.9999976 L3.49999762,15.9999976 C3.35416328,15.9999976 3.23437206,15.9531227 3.14062228,15.859373 C3.0468725,15.7656232 2.99999762,15.645832 2.99999762,15.4999988 L2.99999762,15.4999988 L2.99999762,5.50002384 C2.99999762,5.35418951 3.0468725,5.23439828 3.14062228,5.14064851 C3.23437206,5.04689873 3.35416328,5.00002384 3.49999762,5.00002384 L3.49999762,5.00002384 L5.99999762,5.00002384 L5.99999762,12.500006 C5.99999762,12.9166715 6.14582361,13.2708376 6.43748942,13.5625034 C6.72915523,13.8541692 7.08332137,14.0000024 7.49998689,14.0000024 L7.49998689,14.0000024 L10.9999785,14.0000024 L10.9999785,15.4999988 C10.9999785,15.645832 10.9531037,15.7656232 10.8593539,15.859373 C10.7656041,15.9531227 10.6458129,15.9999976 10.4999797,15.9999976 L10.4999797,15.9999976 Z" id="copy" fill="#000000" fill-rule="nonzero"></path>
    </g>
</svg>