<?xml version="1.0" encoding="UTF-8"?>
<svg width="60px" height="60px" viewBox="0 0 60 60" version="1.1" xmlns="http://www.w3.org/2000/svg" xmlns:xlink="http://www.w3.org/1999/xlink">
    <title>Creative</title>
    <g id="2.-Export" stroke="none" stroke-width="1" fill="none" fill-rule="evenodd">
        <g id="KB-Home" transform="translate(-933.000000, -380.000000)" fill="#FF5933">
            <g id="card" transform="translate(810.000000, 355.000000)">
                <g id="Creative" transform="translate(123.000000, 25.000000)">
                    <circle id="Oval" fill-opacity="0.06" cx="30" cy="30" r="30"></circle>
                    <path d="M35.2499589,42.9999928 C39.999795,42.9999928 42,39.1834431 42,34.8404664 C41.4838612,35.1929894 39.6721285,36.6521991 39.0866502,36.6521991 C38.7388422,36.6521991 38.4412049,36.4534386 38.3169682,36.1257722 C37.3532406,33.5856476 35.7383915,32.6649955 33.9140246,32.391757 L41.1214964,25.1842394 C42.2929108,24.0128708 42.2929108,22.1130187 41.1210386,20.9416043 L40.0579308,19.8784965 C39.4719947,19.2930181 38.7041895,19.0000501 37.9368421,19.0000501 C37.1690369,19.0000501 36.401186,19.2930181 35.8157534,19.8784965 L29.2598151,26.4330157 L25.4132819,20.681 C24.5784145,19.4899018 23.4782737,19.0005078 22.3818865,19.0005078 C19.346234,19.0005078 16.3387338,22.7514602 19.0706151,25.7528263 L24.2465366,31.4457907 L18.8943765,36.7965775 L18.0154724,41.8327898 C17.9071657,42.4529666 18.3909292,42.9999928 18.9927955,42.9999928 C19.0504736,42.9999928 19.1086094,42.9948201 19.1681186,42.9845205 L24.2048344,42.1014049 L28.5979362,37.7083032 C28.8791855,39.813416 30.1996474,42.9999928 35.2499589,42.9999928 Z M37.1071474,26.0162687 L34.9832206,23.8923876 L37.4062037,21.4694045 C37.6790302,21.1966238 38.1552864,21.1581718 38.466977,21.4694045 L39.5300848,22.5325581 C39.8024535,22.8044233 39.8422789,23.2811373 39.5300848,23.5933314 L37.1071474,26.0162687 Z M25.8389095,29.8530058 L20.7342159,24.2383188 C20.2368568,23.6922081 20.1276347,23.1948948 20.3789006,22.6263079 C20.7140743,21.8678411 21.6126623,21.2505025 22.381383,21.2505025 C22.6748546,21.2505025 23.1173279,21.3255298 23.5429555,21.9316074 L27.6374587,28.0548686 L25.8389095,29.8530058 Z M20.539209,40.4598225 L20.9887319,37.8845418 L33.3927703,25.4832957 L35.5166971,27.6072225 L23.1159088,40.0079651 L20.539209,40.4598225 Z M35.2499589,40.7499982 C33.6308984,40.7499982 32.4468497,40.347808 31.7315499,39.5542308 C30.7973023,38.5178105 30.7335817,36.9348675 30.7879181,36.4121942 L30.8915098,35.4137683 L31.8257574,34.4795664 L33.0472969,34.5583015 C34.5196445,34.6529668 35.5101053,35.0706294 36.2127709,36.9226453 C36.636064,38.0401811 37.6401204,38.7896757 38.8152427,38.8904751 C38.157621,39.9592134 37.0593112,40.7499982 35.2499589,40.7499982 Z" id="pencil-paintbrush" fill-rule="nonzero"></path>
                </g>
            </g>
        </g>
    </g>
</svg>