<?xml version="1.0" encoding="UTF-8"?>
<svg width="60px" height="60px" viewBox="0 0 60 60" version="1.1" xmlns="http://www.w3.org/2000/svg" xmlns:xlink="http://www.w3.org/1999/xlink">
    <title>Customer Service</title>
    <g id="2.-Export" stroke="none" stroke-width="1" fill="none" fill-rule="evenodd">
        <g id="KB-Home" transform="translate(-1259.000000, -380.000000)" fill="#FF5933">
            <g id="card" transform="translate(1136.000000, 355.000000)">
                <g id="Customer-Service" transform="translate(123.000000, 25.000000)">
                    <circle id="Oval" fill-opacity="0.06" cx="30" cy="30" r="30"></circle>
                    <path d="M33.593869,34.0000143 C36.5746816,33.9966726 38.9966118,31.5747424 38.9999535,28.5939298 L38.9999535,28.0000286 C38.9999535,23.0373787 34.9626249,19.0000501 29.999975,19.0000501 C25.0373251,19.0000501 20.9999964,23.0373787 20.9999964,28.0000286 L20.9999964,28.4064302 C21.0007746,29.0093035 21.4907179,29.4992468 22.0935912,29.500025 C22.6967392,29.4995215 23.1868656,29.0095782 23.1876438,28.4064302 L23.1876438,28.0000286 C23.1876438,24.2434915 26.2434379,21.1876974 29.999975,21.1876974 C33.756512,21.1876974 36.8123061,24.2434915 36.8123061,28.0000286 L36.8123061,28.5939298 C36.8102462,30.3684464 35.3683856,31.810307 33.593869,31.8123669 L32.4923091,31.8123669 C32.3233489,31.0200257 31.5287189,30.3761826 30.7185707,30.3751755 L29.2813793,30.3751755 C29.2733226,30.3750382 29.2602764,30.3749467 29.2522198,30.3749467 C28.2516423,30.3749467 27.4395715,31.1870175 27.4395715,32.1875949 C27.4395715,33.1881724 28.2516423,34.0002432 29.2522198,34.0002432 L33.593869,34.0000143 Z M26.0624844,31.4382834 C26.2222893,30.752143 26.8216378,29.8690732 27.4002955,29.4672035 C27.182309,29.0916093 27.0029576,28.434308 26.9999821,28.0000286 C27.0017674,26.3458577 28.3458041,25.001821 29.999975,25.0000358 C31.6541458,25.001821 32.9981825,26.3458577 32.9999678,28.0000286 C32.9973586,28.4410829 32.8133838,29.1074478 32.5893548,29.4873908 C32.917479,29.7151734 33.2179544,29.9819117 33.4466983,30.3123705 L33.593869,30.3123705 C34.1887315,30.3123705 34.6883793,29.9898768 34.9973233,29.529093 C35.1463708,29.0420793 35.2499624,28.5357939 35.2499624,28.0000286 C35.2499624,25.1020253 32.8979783,22.7500411 29.999975,22.7500411 C27.1019716,22.7500411 24.7499875,25.1020253 24.7499875,28.0000286 C24.7499875,29.3219096 25.2553116,30.5153424 26.0624844,31.4382834 Z M38.9999535,42.9999928 C39.8279545,42.9999928 40.4999499,42.3279974 40.4999499,41.4999964 C40.4999499,38.1879926 37.8119681,35.5000107 34.4999642,35.5000107 L34.2796431,35.5000107 C33.7101407,35.5000107 33.1546458,35.6359662 32.6155846,35.8187508 C31.9131479,36.057062 30.7410468,36.2504667 29.9992883,36.2504667 C29.2574841,36.2504667 28.085383,36.057062 27.3829463,35.8187508 C26.8443428,35.6359662 26.2907706,35.5009263 25.7221837,35.5009263 L25.4999857,35.5009263 C22.1885312,35.5009263 19.5005035,38.1885419 19.5,41.4999964 C19.5,42.3279974 20.1719955,42.9999928 21,42.9999928 L38.9999535,42.9999928 Z M21.8254797,40.7499982 C22.1655057,39.0962851 23.8116657,37.7522942 25.4999857,37.7500054 L25.7221837,37.7500054 C25.9621886,37.7500054 26.2607871,37.8132682 26.6596814,37.9487659 C27.555889,38.2526287 29.0513078,38.4992712 29.9976404,38.4992712 C30.943973,38.4992712 32.4393918,38.2526287 33.3355993,37.9487659 C33.7387051,37.8123526 34.0387227,37.7485863 34.278224,37.7485863 L34.4999642,37.7485863 C36.1882842,37.7508751 37.8344442,39.094866 38.1744702,40.7485863 L21.8254797,40.7499982 Z" id="user-headset" fill-rule="nonzero"></path>
                </g>
            </g>
        </g>
    </g>
</svg>