<?xml version="1.0" encoding="UTF-8"?>
<svg width="18px" height="18px" viewBox="0 0 18 18" version="1.1" xmlns="http://www.w3.org/2000/svg" xmlns:xlink="http://www.w3.org/1999/xlink">
    <title>icon_delete@2x</title>
    <g id="icon_delete" stroke="none" stroke-width="1" fill="none" fill-rule="evenodd">
        <path d="M13.4999726,16.9999952 C13.9166381,16.9999952 14.2708042,16.8541621 14.56247,16.5624963 C14.8541359,16.2708305 14.999969,15.9166643 14.999969,15.4999988 L14.999969,15.4999988 L14.999969,4.00003338 L15.8124671,4.00003338 C15.8541335,4.00003338 15.8958004,3.97919278 15.9374668,3.93752638 C15.9791332,3.89585997 15.9999666,3.85419308 15.9999666,3.81252667 L15.9999666,3.81252667 L15.9999666,3.75002682 C15.9999666,3.54169383 15.9270503,3.36461123 15.7812171,3.21877809 C15.635384,3.07294494 15.4583014,3.00003338 15.2499684,3.00003338 L15.2499684,3.00003338 L12.499975,3.00003338 L11.4374775,1.59378196 C11.1458117,1.19794941 10.7499791,1.00003338 10.2499803,1.00003338 L10.2499803,1.00003338 L7.74998629,1.00003338 C7.24998748,1.00003338 6.85415493,1.19794941 6.56248912,1.59378196 L6.56248912,1.59378196 L5.5,3.00003338 L2.74999821,3.00003338 C2.54166522,3.00003338 2.36458262,3.07294494 2.21874948,3.21877809 C2.07291633,3.36461123 2,3.54169383 2,3.75002682 L2,3.75002682 L2,3.81252667 C2,3.85419308 2.02083344,3.89585997 2.06249985,3.93752638 C2.10416626,3.97919278 2.14583314,4.00003338 2.18749955,4.00003338 L2.18749955,4.00003338 L3,4.00003338 L3,15.4999988 C3,15.9166643 3.14583076,16.2708305 3.43749657,16.5624963 C3.72916239,16.8541621 4.08332853,16.9999952 4.5,16.9999952 L4.5,16.9999952 L13.4999726,16.9999952 Z M11.2499779,3.0000298 L6.74998868,3.0000298 L7.34373726,2.18753055 C7.44790352,2.06253085 7.58332018,2.0000298 7.74998868,2.0000298 L7.74998868,2.0000298 L10.2499887,2.0000298 C10.4166464,2.0000298 10.5520631,2.06253085 10.6562294,2.18753055 L10.6562294,2.18753055 L11.2499779,3.0000298 Z M13.4999726,15.9999976 L4.49999523,15.9999976 C4.35416089,15.9999976 4.23436967,15.9531227 4.1406199,15.859373 C4.04687012,15.7656232 3.99999523,15.645832 3.99999523,15.4999988 L3.99999523,15.4999988 L3.99999523,4.00002623 L13.9999714,4.00002623 L13.9999714,15.4999988 C13.9999714,15.645832 13.9530965,15.7656232 13.8593467,15.859373 C13.7655969,15.9531227 13.6458057,15.9999976 13.4999726,15.9999976 L13.4999726,15.9999976 Z M9.12498301,14.5000012 C9.22914927,14.5000012 9.31769105,14.4635428 9.39060738,14.3906265 C9.46352371,14.3177101 9.49998331,14.2291683 9.49998331,14.1250021 L9.49998331,14.1250021 L9.49998331,5.87502176 C9.49998331,5.7708555 9.46352371,5.68231372 9.39060738,5.60939739 C9.31769105,5.53648106 9.22914927,5.50002265 9.12498301,5.50002265 L9.12498301,5.50002265 L8.87498361,5.50002265 C8.77081735,5.50002265 8.68227558,5.53648106 8.60935924,5.60939739 C8.53644291,5.68231372 8.49998331,5.7708555 8.49998331,5.87502176 L8.49998331,5.87502176 L8.49998331,14.1250021 C8.49998331,14.2291683 8.53644291,14.3177101 8.60935924,14.3906265 C8.68227558,14.4635428 8.77081735,14.5000012 8.87498361,14.5000012 L8.87498361,14.5000012 L9.12498301,14.5000012 Z M6.62498897,14.5000012 C6.72915523,14.5000012 6.81769701,14.4635428 6.89061334,14.3906265 C6.96352967,14.3177101 6.99998927,14.2291683 6.99998927,14.1250021 L6.99998927,14.1250021 L6.99998927,5.87502176 C6.99998927,5.7708555 6.96352967,5.68231372 6.89061334,5.60939739 C6.81769701,5.53648106 6.72915523,5.50002265 6.62498897,5.50002265 L6.62498897,5.50002265 L6.37498957,5.50002265 C6.27082331,5.50002265 6.18228154,5.53648106 6.1093652,5.60939739 C6.03644887,5.68231372 5.99998927,5.7708555 5.99998927,5.87502176 L5.99998927,5.87502176 L5.99998927,14.1250021 C5.99998927,14.2291683 6.03644887,14.3177101 6.1093652,14.3906265 C6.18228154,14.4635428 6.27082331,14.5000012 6.37498957,14.5000012 L6.37498957,14.5000012 L6.62498897,14.5000012 Z M11.6249771,14.5000012 C11.7291433,14.5000012 11.8176851,14.4635428 11.8906014,14.3906265 C11.9635178,14.3177101 11.9999774,14.2291683 11.9999774,14.1250021 L11.9999774,14.1250021 L11.9999774,5.87502176 C11.9999774,5.7708555 11.9635178,5.68231372 11.8906014,5.60939739 C11.8176851,5.53648106 11.7291433,5.50002265 11.6249771,5.50002265 L11.6249771,5.50002265 L11.3749776,5.50002265 C11.2708114,5.50002265 11.1822696,5.53648106 11.1093533,5.60939739 C11.0364369,5.68231372 10.9999774,5.7708555 10.9999774,5.87502176 L10.9999774,5.87502176 L10.9999774,14.1250021 C10.9999774,14.2291683 11.0364369,14.3177101 11.1093533,14.3906265 C11.1822696,14.4635428 11.2708114,14.5000012 11.3749776,14.5000012 L11.3749776,14.5000012 L11.6249771,14.5000012 Z" id="trash-alt" fill="#000000" fill-rule="nonzero"></path>
    </g>
</svg>