<?xml version="1.0" encoding="UTF-8"?>
<svg width="14px" height="15px" viewBox="0 0 14 15" version="1.1" xmlns="http://www.w3.org/2000/svg" xmlns:xlink="http://www.w3.org/1999/xlink">
    <title>Retainer Copy 2</title>
    <g id="BGS-Dashboard" stroke="none" stroke-width="1" fill="none" fill-rule="evenodd">
        <g id="Dashboard/Reports/all-inactive" transform="translate(-1305.000000, -348.000000)" fill="#BFC5D2" fill-rule="nonzero">
            <g id="List-Copy-5" transform="translate(550.000000, 318.000000)">
                <g id="Group-3" transform="translate(755.000000, 29.000000)">
                    <g id="Retainer-Copy-2" transform="translate(0.000000, 1.750029)">
                        <path d="M12.3593455,11.8124718 C12.3593455,11.666639 12.3046582,11.539035 12.1952834,11.4296602 C12.0859087,11.3202855 11.9583047,11.2655981 11.8124718,11.2655981 C11.666639,11.2655981 11.539035,11.3202855 11.4296602,11.4296602 C11.3202855,11.539035 11.2655981,11.666639 11.2655981,11.8124718 C11.2655981,11.9583047 11.3202855,12.0859087 11.4296602,12.1952834 C11.539035,12.3046582 11.666639,12.3593455 11.8124718,12.3593455 C11.9583047,12.3593455 12.0859087,12.3046582 12.1952834,12.1952834 C12.3046582,12.0859087 12.3593455,11.9583047 12.3593455,11.8124718 Z M10.062476,11.2655981 C9.91664316,11.2655981 9.78903916,11.3202855 9.67966442,11.4296602 C9.57028968,11.539035 9.51560231,11.666639 9.51560231,11.8124718 C9.51560231,11.9583047 9.57028968,12.0859087 9.67966442,12.1952834 C9.78903916,12.3046582 9.91664316,12.3593455 10.062476,12.3593455 C10.2083089,12.3593455 10.3359129,12.3046582 10.4452876,12.1952834 C10.5546623,12.0859087 10.6093497,11.9583047 10.6093497,11.8124718 C10.6093497,11.666639 10.5546623,11.539035 10.4452876,11.4296602 C10.3359129,11.3202855 10.2083089,11.2655981 10.062476,11.2655981 Z M13.9999666,9.95310127 C13.9999666,9.62497705 13.8814775,9.34242578 13.6444987,9.10544704 C13.40752,8.8684683 13.1249687,8.74997914 12.7968445,8.74997914 L10.0898197,8.74997914 L11.621066,7.21873279 C11.8398155,6.98175405 11.9446328,6.71743204 11.9355184,6.42576593 C11.926404,6.13409982 11.8215863,5.87889223 11.621066,5.66014276 C11.4205458,5.44139328 11.1653378,5.33201854 10.8554429,5.33201854 L9.40622757,5.33201854 L9.40622757,1.09374739 C9.40622757,0.783852437 9.30141025,0.524087431 9.0917752,0.314452375 C8.88214014,0.104817319 8.62237514,0 8.31248018,0 L5.68748644,0 C5.37759148,0 5.11782648,0.104817319 4.90819142,0.314452375 C4.69855637,0.524087431 4.59373905,0.783852437 4.59373905,1.09374739 L4.59373905,5.33201854 L3.14452375,5.33201854 C2.8346288,5.33201854 2.57942079,5.44139328 2.37890058,5.66014276 C2.17838036,5.87889223 2.07356263,6.13409982 2.0644482,6.42576593 C2.05533378,6.71743204 2.1601511,6.98175405 2.37890058,7.21873279 L3.91014693,8.74997914 L1.20312213,8.74997914 C0.874997914,8.74997914 0.592446643,8.8684683 0.355467902,9.10544704 C0.118489162,9.34242578 0,9.62497705 0,9.95310127 L0,12.7968445 C0,13.1249687 0.118489162,13.40752 0.355467902,13.6444987 C0.592446643,13.8814775 0.874997914,13.9999666 1.20312213,13.9999666 L12.7968445,13.9999666 C13.1249687,13.9999666 13.40752,13.8814775 13.6444987,13.6444987 C13.8814775,13.40752 13.9999666,13.1249687 13.9999666,12.7968445 L13.9999666,9.95310127 Z M6.8359212,10.4452876 L3.00780533,6.58982804 C2.93488887,6.51691141 2.91665985,6.43488035 2.95311796,6.34373488 C2.98957607,6.2525894 3.05337828,6.20701645 3.14452375,6.20701645 L5.46873696,6.20701645 L5.46873696,1.09374739 C5.46873696,1.03906002 5.49152323,0.988930073 5.53709617,0.943357126 C5.58266912,0.897784179 5.63279907,0.874997914 5.68748644,0.874997914 L8.31248018,0.874997914 C8.36716755,0.874997914 8.4172975,0.897784179 8.46287045,0.943357126 C8.50844339,0.988930073 8.53122966,1.03906002 8.53122966,1.09374739 L8.53122966,6.20701645 L10.8554429,6.20701645 C10.9465883,6.20701645 11.0103906,6.2525894 11.0468487,6.34373488 C11.0833068,6.43488035 11.0650778,6.51691141 10.9921613,6.58982804 L7.16404542,10.4452876 C7.10935805,10.4817457 7.05467068,10.499975 6.99998331,10.499975 C6.94529594,10.499975 6.89060857,10.4817457 6.8359212,10.4452876 Z M13.1249687,9.95310127 L13.1249687,12.7968445 C13.1249687,12.88799 13.0930676,12.965464 13.0292658,13.0292658 C12.965464,13.0930676 12.88799,13.1249771 12.7968445,13.1249771 L1.20312213,13.1249771 C1.11197665,13.1249771 1.0345026,13.0930676 0.970700811,13.0292658 C0.906899019,12.965464 0.874997914,12.88799 0.874997914,12.7968445 L0.874997914,9.95310127 C0.874997914,9.86195579 0.906899019,9.78448174 0.970700811,9.72067995 C1.0345026,9.65687816 1.11197665,9.62497705 1.20312213,9.62497705 L4.78514484,9.62497705 L6.23436014,11.0468487 C6.43488035,11.2655981 6.69008836,11.3749729 6.99998331,11.3749729 C7.30987827,11.3749729 7.56508627,11.2655981 7.76560649,11.0468487 L9.21482178,9.62497705 L12.7968445,9.62497705 C12.88799,9.62497705 12.965464,9.65687816 13.0292658,9.72067995 C13.0930676,9.78448174 13.1249687,9.86195579 13.1249687,9.95310127 Z" id="Shape"></path>
                    </g>
                </g>
            </g>
        </g>
    </g>
</svg>