<svg xmlns="http://www.w3.org/2000/svg" width="23.812" height="23.812" viewBox="0 0 23.812 23.812">
  <g id="edit" transform="translate(0 -0.004)">
    <g id="Group_458" data-name="Group 458" transform="translate(0 1.705)">
      <g id="Group_457" data-name="Group 457">
        <path id="Path_543" data-name="Path 543" d="M19.56,44.342a.85.85,0,0,0-.85.85v8.5a.85.85,0,0,1-.85.85H2.551a.85.85,0,0,1-.85-.85V36.688a.85.85,0,0,1,.85-.85H12.756a.85.85,0,1,0,0-1.7H2.551A2.551,2.551,0,0,0,0,36.688V53.7a2.551,2.551,0,0,0,2.551,2.551H17.859A2.551,2.551,0,0,0,20.41,53.7v-8.5A.85.85,0,0,0,19.56,44.342Z" transform="translate(0 -34.137)" fill="#212148"/>
      </g>
    </g>
    <g id="Group_460" data-name="Group 460" transform="translate(5.103 0.004)">
      <g id="Group_459" data-name="Group 459" transform="translate(0 0)">
        <path id="Path_544" data-name="Path 544" d="M120.164.957a3.255,3.255,0,0,0-4.6,0l-11.2,11.2a.86.86,0,0,0-.2.333l-1.7,5.1a.85.85,0,0,0,.806,1.119.864.864,0,0,0,.269-.043l5.1-1.7a.851.851,0,0,0,.333-.206l11.2-11.2A3.255,3.255,0,0,0,120.164.957Zm-1.2,3.4L107.906,15.415l-3.3,1.1,1.1-3.3,11.06-11.055a1.554,1.554,0,1,1,2.2,2.2Z" transform="translate(-102.409 -0.004)" fill="#212148"/>
      </g>
    </g>
  </g>
</svg>
