<?xml version="1.0" encoding="UTF-8"?>
<svg width="32px" height="32px" viewBox="0 0 32 32" version="1.1" xmlns="http://www.w3.org/2000/svg" xmlns:xlink="http://www.w3.org/1999/xlink">
    <title>icon/fees</title>
    <g id="icon/fees" stroke="none" stroke-width="1" fill="none" fill-rule="evenodd">
        <g id="icon/addendum">
            <circle id="Oval" fill="#8D6FCA" opacity="0.200000003" cx="16" cy="16" r="16"></circle>
            <path d="M16.4999881,23.9999952 C16.6458212,23.9999952 16.7656124,23.9531203 16.8593622,23.8593706 C16.953112,23.7656208 16.9999869,23.6458296 16.9999869,23.4999964 L16.9999869,23.4999964 L16.9999869,22 L17.0937367,22 C17.8645683,22 18.5624832,21.770834 19.1874817,21.3125016 C19.8124802,20.8541692 20.2187292,20.2500042 20.4062288,19.500006 C20.6145618,18.6458415 20.4947701,17.8385514 20.0468546,17.0781367 C19.5989392,16.317722 18.9583157,15.8125148 18.1249842,15.5625153 L18.1249842,15.5625153 L14.4999928,14.5312678 C14.22916,14.4479345 14.0052025,14.3125183 13.8281194,14.1250188 C13.6510364,13.9375192 13.5520786,13.7187697 13.5312452,13.4687703 C13.4687453,13.0937712 13.5624951,12.7552305 13.8124945,12.4531478 C14.0624939,12.151065 14.3854096,12.0000334 14.7812422,12.0000334 L14.7812422,12.0000334 L17.0937367,12.0000334 C17.5937355,12.0000334 18.0520679,12.145857 18.4687334,12.4375228 C18.5728996,12.5000226 18.6874829,12.5312726 18.8124826,12.5312726 C18.9374823,12.5312726 19.0416485,12.4791892 19.1249818,12.3750229 L19.1249818,12.3750229 L19.8437301,11.6562747 C19.9478964,11.5521084 19.9947713,11.4271087 19.9843548,11.2812756 C19.9739383,11.1354424 19.90623,11.0104427 19.7812303,10.9062764 C18.9895656,10.3021114 18.0937343,10.0000334 17.0937367,10.0000334 L17.0937367,10.0000334 L16.9999869,10.0000334 L16.9999869,8.50003338 C16.9999869,8.35419904 16.953112,8.23440782 16.8593622,8.14065804 C16.7656124,8.04690827 16.6458212,8.00003338 16.4999881,8.00003338 L16.4999881,8.00003338 L15.4999905,8.00003338 C15.3541573,8.00003338 15.2343661,8.04690827 15.1406163,8.14065804 C15.0468665,8.23440782 14.9999917,8.35419904 14.9999917,8.50003338 L14.9999917,8.50003338 L14.9999917,10.0000334 L14.9374918,10.0000334 C14.1458272,10.0000334 13.4374954,10.2291946 12.8124969,10.687527 C12.1874984,11.1458594 11.7812493,11.7500244 11.5937498,12.5000226 C11.3854168,13.3541871 11.5052085,14.1614772 11.9531239,14.9218919 C12.4010394,15.6823066 13.0416628,16.1875139 13.8749943,16.4375133 L13.8749943,16.4375133 L17.4999857,17.4687608 C17.7708185,17.5520941 17.994776,17.6875103 18.1718591,17.8750098 C18.3489422,18.0625094 18.4478999,18.2812589 18.4687334,18.5312583 C18.5312332,18.9062574 18.4374835,19.2447981 18.1874841,19.5468808 C17.9374847,19.8489636 17.6145689,20.0000048 17.2187364,20.0000048 L17.2187364,20.0000048 L14.9062419,20.0000048 C14.4062431,20.0000048 13.9479107,19.8541716 13.5312452,19.5625058 C13.4270789,19.500006 13.3124957,19.468756 13.187496,19.468756 C13.0624963,19.468756 12.95833,19.5208394 12.8749967,19.6250057 L12.8749967,19.6250057 L12.1562484,20.312504 C12.0520822,20.4375037 12.0052073,20.5729199 12.0156238,20.7187531 C12.0260403,20.8645862 12.0937486,20.9895859 12.2187483,21.0937522 C13.0104129,21.6979172 13.9062443,22 14.9062419,22 L14.9062419,22 L14.9999917,22 L14.9999917,23.4999964 C14.9999917,23.6458296 15.0468665,23.7656208 15.1406163,23.8593706 C15.2343661,23.9531203 15.3541573,23.9999952 15.4999905,23.9999952 L15.4999905,23.9999952 L16.4999881,23.9999952 Z" id="DOLLAR-SIGN" fill="#5A4C76" fill-rule="nonzero"></path>
        </g>
    </g>
</svg>