<svg id="SvgjsSvg1001" width="288" height="288" xmlns="http://www.w3.org/2000/svg" version="1.1" xmlns:xlink="http://www.w3.org/1999/xlink" xmlns:svgjs="http://svgjs.com/svgjs"><circle id="SvgjsCircle1011" r="144" cx="144" cy="144" fill="#ffe5df" transform="matrix(0.9999999999999999,0,0,0.9999999999999999,2.842170943040401e-14,2.842170943040401e-14)"></circle><defs id="SvgjsDefs1002"></defs><g id="SvgjsG1008" transform="matrix(0.48,0,0,0.48,74.82677886962891,74.88888076782227)"><svg xmlns="http://www.w3.org/2000/svg" width="288" height="288" viewBox="0 0 16 16"><path fill-rule="evenodd" d="M 1.4960938 1 A 0.50233285 0.50233285 0 0 0 1 1.5097656 L 1 15.001953 L 14.490234 15.001953 A 0.50295 0.50295 0 0 0 14.490234 13.996094 L 2.0058594 13.996094 L 2.0058594 1.5097656 A 0.50233285 0.50233285 0 0 0 1.4960938 1 z M 12.144531 4.8046875 C 12.706794 5.6105319 12.63924 5.5161991 12.697266 5.6015625 L 9.6132812 7.6582031 L 8.6914062 9.5 L 5.7929688 9.5 L 2.6464844 12.646484 L 3.3535156 13.353516 L 6.2070312 10.5 L 9.3085938 10.5 L 10.388672 8.34375 L 13.267578 6.421875 C 13.331824 6.5160497 13.258222 6.4129495 13.802734 7.1933594 L 14.263672 5.2402344 C 14.284342 5.1542344 14.22513 5.0696938 14.136719 5.0585938 L 12.144531 4.8046875 z " color="#000" enable-background="accumulate" font-family="sans-serif" font-weight="400" overflow="visible" style="line-height:normal;text-indent:0;text-align:start;text-decoration-line:none;text-decoration-style:solid;text-decoration-color:#000;text-transform:none;block-progression:tb;white-space:normal;isolation:auto;mix-blend-mode:normal;solid-color:#000;solid-opacity:1" fill="#2e384d" class="color000 svgShape"></path></svg></g></svg>