<?xml version="1.0" encoding="UTF-8"?>
<svg xmlns="http://www.w3.org/2000/svg" xmlns:xlink="http://www.w3.org/1999/xlink" viewBox="0 0 48 48" width="48px" height="48px">
<g id="surface14265020">
<path style=" stroke:none;fill-rule:nonzero;fill:rgb(74.901962%,77.254903%,82.352942%);fill-opacity:1;" d="M 24 4 C 12.972656 4 4 12.972656 4 24 C 4 35.027344 12.972656 44 24 44 C 35.027344 44 44 35.027344 44 24 C 44 12.972656 35.027344 4 24 4 Z M 24 7 C 33.40625 7 41 14.59375 41 24 C 41 33.40625 33.40625 41 24 41 C 14.59375 41 7 33.40625 7 24 C 7 14.59375 14.59375 7 24 7 Z M 22.476562 11.980469 C 21.648438 11.992188 20.988281 12.671875 21 13.5 L 21 24.5 C 21 24.898438 21.15625 25.277344 21.441406 25.5625 L 26.441406 30.5625 C 26.816406 30.953125 27.375 31.109375 27.898438 30.972656 C 28.425781 30.835938 28.835938 30.425781 28.972656 29.898438 C 29.109375 29.375 28.953125 28.816406 28.5625 28.4375 L 24 23.878906 L 24 13.5 C 24.003906 13.09375 23.847656 12.703125 23.558594 12.417969 C 23.273438 12.128906 22.882812 11.972656 22.476562 11.980469 Z M 22.476562 11.980469 "/>
</g>
</svg>
