<?xml version="1.0" encoding="UTF-8"?>
<svg width="22px" height="23px" viewBox="0 0 22 23" version="1.1" xmlns="http://www.w3.org/2000/svg" xmlns:xlink="http://www.w3.org/1999/xlink">
    <title>icon_partners</title>
    <g id="Finance-Dashboard-|-DSP-Invoicing" stroke="none" stroke-width="1" fill="none" fill-rule="evenodd">
        <g id="Finance-Dashboard-|-Invoices-|-Desktop" transform="translate(-262.000000, -562.000000)">
            <g id="Tabs" transform="translate(245.000000, 490.000000)">
                <g id="icon_partners" transform="translate(17.000000, 72.000000)">
                    <rect id="Rectangle" x="0" y="0" width="22" height="22"></rect>
                    <path d="M17.1874656,22.0192242 C17.7603807,22.0192242 18.2473591,21.8187036 18.6483996,21.4176631 C19.0494401,21.0166227 19.2499607,20.5296442 19.2499607,19.9567291 L19.2499607,19.9567291 L19.2499607,5.69113814 C19.2499607,5.11822306 19.0494401,4.63124462 18.6483996,4.23020413 L18.6483996,4.23020413 L15.0390332,0.620837731 C14.6379927,0.219797239 14.1510143,0.0192766648 13.5780992,0.0192766648 L13.5780992,0.0192766648 L4.81249508,0.0192766648 C4.23958,0.0192766648 3.75260156,0.219797239 3.35156107,0.620837731 C2.95052057,1.02187822 2.75,1.50885667 2.75,2.08177175 L2.75,2.08177175 L2.75,19.9567291 C2.75,20.5296442 2.95052057,21.0166227 3.35156107,21.4176631 C3.75260156,21.8187036 4.23958,22.0192242 4.81249508,22.0192242 L4.81249508,22.0192242 L17.1874656,22.0192242 Z M6.1874918,20.6442275 L4.81249508,20.6442275 C4.61197451,20.6442275 4.44726158,20.5797745 4.31835564,20.4508686 C4.18944969,20.3219626 4.12499672,20.1572497 4.12499672,19.9567291 L4.12499672,19.9567291 L4.12499672,2.08177175 C4.12499672,1.88125117 4.18944969,1.71653824 4.31835564,1.5876323 C4.44726158,1.45872636 4.61197451,1.39427339 4.81249508,1.39427339 L4.81249508,1.39427339 L12.3749771,1.39427339 L12.3749771,5.86301273 C12.3749771,6.1494706 12.475237,6.39295917 12.6757576,6.59347974 C12.8762782,6.79400031 13.1197667,6.89426027 13.4062246,6.89426027 L13.4062246,6.89426027 L17.8749639,6.89426027 L17.8749639,19.9567291 C17.8749639,20.1572497 17.810511,20.3219626 17.681605,20.4508686 C17.5526991,20.5797745 17.3879862,20.6442275 17.1874656,20.6442275 L17.1874656,20.6442275 L15.8124689,20.6442275 L15.8124689,19.3121994 C15.8124689,18.7106384 15.6549169,18.1663686 15.3398137,17.6793908 C15.0820018,17.3069956 14.7454143,17.0205384 14.3300505,16.8200179 C13.9146867,16.6194973 13.4778392,16.5192373 13.0195068,16.5192373 C12.7330489,16.5192373 12.410784,16.5693676 12.0527122,16.6696276 C11.6946404,16.7698876 11.3437295,16.8200179 10.9999803,16.8200179 C10.6562312,16.8200179 10.3053203,16.7698876 9.94724847,16.6696276 C9.58917662,16.5693676 9.26691176,16.5192373 8.9804539,16.5192373 C8.52212144,16.5192373 8.08527396,16.6194973 7.66991014,16.8200179 C7.25454633,17.0205384 6.91795881,17.3069956 6.66014693,17.6793908 C6.34504373,18.1663686 6.1874918,18.7106384 6.1874918,19.3121994 L6.1874918,19.3121994 L6.1874918,20.6442275 Z M17.8749639,5.51926355 L13.7499738,5.51926355 L13.7499738,1.43724203 C13.8645571,1.46588802 13.964817,1.52317933 14.0507543,1.60911662 L14.0507543,1.60911662 L17.6601207,5.21848302 C17.746058,5.30442031 17.8176726,5.40468027 17.8749639,5.51926355 L17.8749639,5.51926355 Z M10.9999803,15.831739 C11.9452906,15.831739 12.7545332,15.4951514 13.4277089,14.8219757 C14.1008846,14.1488001 14.4374721,13.3395574 14.4374721,12.3942472 C14.4374721,11.4489369 14.1008846,10.6396943 13.4277089,9.96651857 C12.7545332,9.29334288 11.9452906,8.95675536 10.9999803,8.95675536 C10.0546701,8.95675536 9.24542744,9.29334288 8.57225174,9.96651857 C7.89907605,10.6396943 7.56248853,11.4489369 7.56248853,12.3942472 C7.56248853,13.3395574 7.89907605,14.1488001 8.57225174,14.8219757 C9.24542744,15.4951514 10.0546701,15.831739 10.9999803,15.831739 Z M10.9999803,14.4567422 C10.4270652,14.4567422 9.94008681,14.2562217 9.53904631,13.8551812 C9.13800582,13.4541407 8.93748525,12.9671622 8.93748525,12.3942472 C8.93748525,11.8213321 9.13800582,11.3343536 9.53904631,10.9333131 C9.94008681,10.5322727 10.4270652,10.3317521 10.9999803,10.3317521 C11.5728954,10.3317521 12.0598739,10.5322727 12.4609143,10.9333131 C12.8619548,11.3343536 13.0624754,11.8213321 13.0624754,12.3942472 C13.0624754,12.9671622 12.8619548,13.4541407 12.4609143,13.8551812 C12.0598739,14.2562217 11.5728954,14.4567422 10.9999803,14.4567422 Z M14.4374721,20.6442275 L7.56248853,20.6442275 L7.56248853,19.3121994 C7.56248853,18.9111589 7.69139447,18.5745707 7.94920635,18.3024362 C8.20701824,18.0303016 8.55076742,17.894234 8.9804539,17.894234 C9.1236825,17.894234 9.33852574,17.9372027 9.62498361,18.02314 C10.1119614,18.1377233 10.5702939,18.1950146 10.9999803,18.1950146 C11.4296668,18.1950146 11.8879993,18.1377233 12.3749771,18.02314 C12.6614349,17.9372027 12.8762782,17.894234 13.0195068,17.894234 C13.4491932,17.894234 13.7929424,18.0303016 14.0507543,18.3024362 C14.3085662,18.5745707 14.4374721,18.9111589 14.4374721,19.3121994 L14.4374721,19.3121994 L14.4374721,20.6442275 Z" id="file-user" fill="#2E384D" fill-rule="nonzero"></path>
                </g>
            </g>
        </g>
    </g>
</svg>