<?xml version="1.0" encoding="UTF-8"?>
<svg width="22px" height="23px" viewBox="0 0 22 23" version="1.1" xmlns="http://www.w3.org/2000/svg" xmlns:xlink="http://www.w3.org/1999/xlink">
    <title>icon_invoices</title>
    <g id="Finance-Dashboard-|-DSP-Invoicing" stroke="none" stroke-width="1" fill="none" fill-rule="evenodd">
        <g id="Finance-Dashboard-|-Invoices-|-Desktop" transform="translate(-262.000000, -512.000000)">
            <g id="Tabs" transform="translate(245.000000, 490.000000)">
                <g id="Agreements" transform="translate(0.000000, 18.000000)">
                    <g id="icon_invoices" transform="translate(17.000000, 4.000000)">
                        <rect id="Rectangle" x="0" y="0" width="22" height="22"></rect>
                        <path d="M17.1874656,22.0192242 C17.7603807,22.0192242 18.2473591,21.8187036 18.6483996,21.4176631 C19.0494401,21.0166227 19.2499607,20.5296442 19.2499607,19.9567291 L19.2499607,19.9567291 L19.2499607,5.69113814 C19.2499607,5.11822306 19.0494401,4.63124462 18.6483996,4.23020413 L18.6483996,4.23020413 L15.0390332,0.620837731 C14.6379927,0.219797239 14.1510143,0.0192766648 13.5780992,0.0192766648 L13.5780992,0.0192766648 L4.81249508,0.0192766648 C4.23958,0.0192766648 3.75260156,0.219797239 3.35156107,0.620837731 C2.95052057,1.02187822 2.75,1.50885667 2.75,2.08177175 L2.75,2.08177175 L2.75,19.9567291 C2.75,20.5296442 2.95052057,21.0166227 3.35156107,21.4176631 C3.75260156,21.8187036 4.23958,22.0192242 4.81249508,22.0192242 L4.81249508,22.0192242 L17.1874656,22.0192242 Z M17.1874656,20.6442275 L4.81249508,20.6442275 C4.61197451,20.6442275 4.44726158,20.5797745 4.31835564,20.4508686 C4.18944969,20.3219626 4.12499672,20.1572497 4.12499672,19.9567291 L4.12499672,19.9567291 L4.12499672,2.08177175 C4.12499672,1.88125117 4.18944969,1.71653824 4.31835564,1.5876323 C4.44726158,1.45872636 4.61197451,1.39427339 4.81249508,1.39427339 L4.81249508,1.39427339 L12.3749771,1.39427339 L12.3749771,5.86301273 C12.3749771,6.1494706 12.475237,6.39295917 12.6757576,6.59347974 C12.8762782,6.79400031 13.1197667,6.89426027 13.4062246,6.89426027 L13.4062246,6.89426027 L17.8749639,6.89426027 L17.8749639,19.9567291 C17.8749639,20.1572497 17.810511,20.3219626 17.681605,20.4508686 C17.5526991,20.5797745 17.3879862,20.6442275 17.1874656,20.6442275 L17.1874656,20.6442275 Z M17.8749639,5.51926355 L13.7499738,5.51926355 L13.7499738,1.43724203 C13.8645571,1.46588802 13.964817,1.52317933 14.0507543,1.60911662 L14.0507543,1.60911662 L17.6601207,5.21848302 C17.746058,5.30442031 17.8176726,5.40468027 17.8749639,5.51926355 L17.8749639,5.51926355 Z M10.6562312,4.14426683 C10.7421684,4.14426683 10.8209441,4.10845984 10.8925587,4.03684521 C10.9641733,3.96523058 10.9999803,3.88645494 10.9999803,3.80051765 L10.9999803,3.80051765 L10.9999803,3.11301929 C10.9999803,3.02708199 10.9641733,2.94830636 10.8925587,2.87669173 C10.8209441,2.8050771 10.7421684,2.76927011 10.6562312,2.76927011 L10.6562312,2.76927011 L5.84374262,2.76927011 C5.75780533,2.76927011 5.67902969,2.8050771 5.60741506,2.87669173 C5.53580043,2.94830636 5.49999344,3.02708199 5.49999344,3.11301929 L5.49999344,3.11301929 L5.49999344,3.80051765 C5.49999344,3.88645494 5.53580043,3.96523058 5.60741506,4.03684521 C5.67902969,4.10845984 5.75780533,4.14426683 5.84374262,4.14426683 L5.84374262,4.14426683 L10.6562312,4.14426683 Z M10.6562312,6.89426027 C10.7421684,6.89426027 10.8209441,6.85845329 10.8925587,6.78683865 C10.9641733,6.71522402 10.9999803,6.63644839 10.9999803,6.55051109 L10.9999803,6.55051109 L10.9999803,5.86301273 C10.9999803,5.77707544 10.9641733,5.6982998 10.8925587,5.62668517 C10.8209441,5.55507054 10.7421684,5.51926355 10.6562312,5.51926355 L10.6562312,5.51926355 L5.84374262,5.51926355 C5.75780533,5.51926355 5.67902969,5.55507054 5.60741506,5.62668517 C5.53580043,5.6982998 5.49999344,5.77707544 5.49999344,5.86301273 L5.49999344,5.86301273 L5.49999344,6.55051109 C5.49999344,6.63644839 5.53580043,6.71522402 5.60741506,6.78683865 C5.67902969,6.85845329 5.75780533,6.89426027 5.84374262,6.89426027 L5.84374262,6.89426027 L10.6562312,6.89426027 Z M11.3437295,19.2692308 C11.4296668,19.2692308 11.5084424,19.2334238 11.5800571,19.1618092 C11.6516717,19.0901945 11.6874787,19.0114189 11.6874787,18.9254816 L11.6874787,18.9254816 L11.6874787,17.894234 C12.2031025,17.8655881 12.6399506,17.6650681 12.9980224,17.292673 C13.3560943,16.9202778 13.5351305,16.4762687 13.5351305,15.9606449 C13.5351305,15.5309584 13.4062246,15.1442406 13.1484127,14.8004914 C12.8906008,14.4567422 12.5611743,14.213253 12.1601338,14.0700244 L12.1601338,14.0700244 L10.2265447,13.511432 C10.1119614,13.482786 10.0188631,13.418333 9.94724847,13.3180731 C9.87563383,13.2178131 9.83982685,13.0960682 9.83982685,12.9528396 C9.83982685,12.809611 9.88995715,12.680705 9.99021711,12.5661218 C10.0904771,12.4515385 10.212222,12.3942472 10.3554506,12.3942472 L10.3554506,12.3942472 L11.5585727,12.3942472 C11.7590933,12.3942472 11.9452906,12.4443775 12.1171652,12.5446374 C12.2890398,12.6448974 12.4322684,12.6377364 12.5468516,12.5231531 L12.5468516,12.5231531 L13.0624754,12.050498 C13.1484127,11.9645607 13.1842197,11.8714617 13.169897,11.7712018 C13.1555744,11.6709418 13.1054441,11.5921655 13.0195068,11.5348742 C12.6184663,11.219771 12.1744565,11.0478964 11.6874787,11.0192504 L11.6874787,11.0192504 L11.6874787,9.9880029 C11.6874787,9.9020656 11.6516717,9.82328997 11.5800571,9.75167534 C11.5084424,9.6800607 11.4296668,9.64425372 11.3437295,9.64425372 L11.3437295,9.64425372 L10.6562312,9.64425372 C10.5702939,9.64425372 10.4915182,9.6800607 10.4199036,9.75167534 C10.348289,9.82328997 10.312482,9.9020656 10.312482,9.9880029 L10.312482,9.9880029 L10.312482,11.0192504 C9.7968582,11.0478964 9.36001006,11.2484163 9.00193822,11.6208115 C8.64386637,11.9932067 8.46483012,12.4372158 8.46483012,12.9528396 C8.46483012,13.3825261 8.59373607,13.7692439 8.85154795,14.1129931 C9.10935984,14.4567422 9.43878635,14.7002315 9.83982685,14.8434601 L9.83982685,14.8434601 L11.773416,15.4020525 C11.8879993,15.4306985 11.9810976,15.4951514 12.0527122,15.5954114 C12.1243268,15.6956714 12.1601338,15.8174163 12.1601338,15.9606449 C12.1601338,16.1038735 12.1100035,16.2327795 12.0097435,16.3473627 C11.9094836,16.461946 11.7877387,16.5192373 11.64451,16.5192373 L11.64451,16.5192373 L10.4413879,16.5192373 C10.2408673,16.5192373 10.0546701,16.469107 9.88279549,16.3688471 C9.7109209,16.2685871 9.5676923,16.2757481 9.45310902,16.3903314 L9.45310902,16.3903314 L8.93748525,16.8629865 C8.85154795,16.9489238 8.81574096,17.0420228 8.83006363,17.1422827 C8.84438629,17.2425427 8.8945166,17.321319 8.9804539,17.3786103 C9.38149439,17.6937135 9.82550418,17.8655881 10.312482,17.894234 L10.312482,17.894234 L10.312482,18.9254816 C10.312482,19.0114189 10.348289,19.0901945 10.4199036,19.1618092 C10.4915182,19.2334238 10.5702939,19.2692308 10.6562312,19.2692308 L10.6562312,19.2692308 L11.3437295,19.2692308 Z" id="file-invoice-dollar" fill="#2E384D" fill-rule="nonzero"></path>
                    </g>
                </g>
            </g>
        </g>
    </g>
</svg>