<?xml version="1.0" encoding="UTF-8"?>
<svg xmlns="http://www.w3.org/2000/svg" xmlns:xlink="http://www.w3.org/1999/xlink" width="24pt" height="24pt" viewBox="0 0 24 24" version="1.1">
<g id="surface4229568">
<path style=" stroke:none;fill-rule:nonzero;fill:rgb(18.039216%,21.960784%,30.19608%);fill-opacity:1;" d="M 8.25 2.5 C 5.082031 2.5 2.5 5.082031 2.5 8.25 L 2.5 15.75 C 2.5 18.917969 5.082031 21.5 8.25 21.5 L 15.75 21.5 C 18.917969 21.5 21.5 18.917969 21.5 15.75 L 21.5 8.25 C 21.5 5.082031 18.917969 2.5 15.75 2.5 Z M 8.25 4 L 15.75 4 C 18.105469 4 20 5.894531 20 8.25 L 20 15.75 C 20 18.105469 18.105469 20 15.75 20 L 8.25 20 C 5.894531 20 4 18.105469 4 15.75 L 4 8.25 C 4 5.894531 5.894531 4 8.25 4 Z M 17 6 C 16.449219 6 16 6.449219 16 7 C 16 7.550781 16.449219 8 17 8 C 17.550781 8 18 7.550781 18 7 C 18 6.449219 17.550781 6 17 6 Z M 12 7 C 9.246094 7 7 9.246094 7 12 C 7 14.753906 9.246094 17 12 17 C 14.753906 17 17 14.753906 17 12 C 17 9.246094 14.753906 7 12 7 Z M 12 8.5 C 13.941406 8.5 15.5 10.058594 15.5 12 C 15.5 13.941406 13.941406 15.5 12 15.5 C 10.058594 15.5 8.5 13.941406 8.5 12 C 8.5 10.058594 10.058594 8.5 12 8.5 Z M 12 8.5 "/>
</g>
</svg>
