<?xml version="1.0" encoding="UTF-8"?>
<svg width="60px" height="60px" viewBox="0 0 60 60" version="1.1" xmlns="http://www.w3.org/2000/svg" xmlns:xlink="http://www.w3.org/1999/xlink">
    <title>Logistics</title>
    <g id="2.-Export" stroke="none" stroke-width="1" fill="none" fill-rule="evenodd">
        <g id="KB-Home" transform="translate(-281.000000, -620.000000)" fill="#FF5933">
            <g id="card" transform="translate(158.000000, 595.000000)">
                <g id="Logistics" transform="translate(123.000000, 25.000000)">
                    <circle id="Oval" fill-opacity="0.06" cx="30" cy="30" r="30"></circle>
                    <path d="M16.5,42.9999928 C16.9124863,42.9999928 17.2499946,42.6624845 17.2499946,42.2499946 L17.2499946,27.1187899 C17.2499946,26.7297374 17.4796999,26.382845 17.8359307,26.2375511 L29.6343493,21.3250262 C29.8733929,21.2266073 30.1312048,21.2266073 30.3702942,21.3250262 L42.1639977,26.2375511 C42.5202286,26.3875141 42.7499338,26.7344066 42.7499338,27.1187899 L42.7499338,42.2499946 C42.7499338,42.6624845 43.0874422,42.9999928 43.4999321,42.9999928 L44.2499303,42.9999928 C44.6624201,42.9999928 44.9999285,42.6624845 44.9999285,42.2499946 L44.9999285,27.1187899 C44.9999285,25.8203463 44.2264928,24.6578582 43.026514,24.160957 L31.2327646,19.2484778 C30.4358915,18.9203536 29.559322,18.9156844 28.7671638,19.2484778 L16.9734145,24.160957 C15.7734357,24.6578582 15,25.8203463 15,27.1187899 L15,42.2499946 C15,42.6624845 15.3375084,42.9999928 15.7499982,42.9999928 L16.5,42.9999928 Z M39.749941,42.9999928 C40.1624309,42.9999928 40.4999392,42.6624845 40.4999392,42.2499946 L40.4999392,36.2500089 C40.4999392,35.8375191 40.1624309,35.5000107 39.749941,35.5000107 L31.4999607,35.5000107 L31.4999607,30.2500232 C31.4999607,29.8375334 31.1624523,29.500025 30.7499624,29.500025 L20.2499875,29.500025 C19.8374976,29.500025 19.4999893,29.8375334 19.4999893,30.2500232 L19.4999893,42.2499946 C19.4999893,42.6624845 19.8374976,42.9999928 20.2499875,42.9999928 L39.749941,42.9999928 Z M29.249966,34.7500197 L21.7499839,34.7500197 L21.7499839,31.7500197 L29.249966,31.7500197 L29.249966,34.7500197 Z M29.249966,40.7500054 L21.7499839,40.7500054 L21.7499839,37.7500054 L29.249966,37.7500054 L29.249966,40.7500054 Z M38.2499446,40.7500054 L31.4999607,40.7500054 L31.4999607,37.7500054 L38.2499446,37.7500054 L38.2499446,40.7500054 Z" id="warehouse-alt" fill-rule="nonzero"></path>
                </g>
            </g>
        </g>
    </g>
</svg>