<?xml version="1.0" encoding="UTF-8"?>
<svg width="60px" height="60px" viewBox="0 0 60 60" version="1.1" xmlns="http://www.w3.org/2000/svg" xmlns:xlink="http://www.w3.org/1999/xlink">
    <title>Marketing</title>
    <g id="2.-Export" stroke="none" stroke-width="1" fill="none" fill-rule="evenodd">
        <g id="KB-Home" transform="translate(-607.000000, -620.000000)" fill="#FF5933">
            <g id="card" transform="translate(484.000000, 595.000000)">
                <g id="Marketing" transform="translate(123.000000, 25.000000)">
                    <circle id="Oval" fill-opacity="0.06" cx="30" cy="30" r="30"></circle>
                    <path d="M42.7499374,41.4999964 C43.1643041,41.4999964 43.4999356,41.1643649 43.4999356,40.7499982 L43.4999356,21.2500447 C43.4999356,20.835678 43.1643041,20.5000465 42.7499374,20.5000465 L41.9999392,20.5000465 C41.5855725,20.5000465 41.249941,20.835678 41.249941,21.2500447 L41.249941,21.8566259 L18.7162575,27.0817569 C18.6379801,26.7512981 18.3543504,26.5000322 18,26.5000322 L17.2499982,26.5000322 C16.8356315,26.5000322 16.5,26.8356637 16.5,27.2500304 L16.5,34.7500125 C16.5,35.1643792 16.8356315,35.5000107 17.2499982,35.5000107 L18,35.5000107 C18.3543504,35.5000107 18.6379801,35.2487448 18.7162575,34.918286 L24.1073274,36.1684356 C24.0524875,36.4393853 24.0004399,36.7122118 24.0004399,37.0000072 C24.0004399,39.4852918 26.0151446,41.4999964 28.5004292,41.4999964 C30.5718506,41.4999964 32.2968373,40.0942075 32.8166725,38.1878095 L41.249941,40.143417 L41.249941,40.7499982 C41.249941,41.1643649 41.5855725,41.4999964 41.9999392,41.4999964 L42.7499374,41.4999964 Z M41.249941,37.834371 L18.7499946,32.6172051 L18.7499946,29.3828378 L41.249941,24.1652141 L41.249941,37.834371 Z M28.4999714,39.2500018 C27.2592059,39.2500018 26.2499768,38.2407726 26.2499768,37.0000072 C26.2499768,36.8865736 26.2921825,36.7871933 26.3085704,36.6789325 L30.6327788,37.6815699 C30.3421453,38.5876651 29.5016932,39.2500018 28.4999714,39.2500018 Z" id="megaphone" fill-rule="nonzero"></path>
                </g>
            </g>
        </g>
    </g>
</svg>