<?xml version="1.0" encoding="UTF-8"?>
<svg xmlns="http://www.w3.org/2000/svg" xmlns:xlink="http://www.w3.org/1999/xlink" width="24pt" height="24pt" viewBox="0 0 24 24" version="1.1">
<g id="surface37164139">
<path style=" stroke:none;fill-rule:nonzero;fill:rgb(18.039216%,21.960784%,30.19608%);fill-opacity:1;" d="M 22 4 L 2 4 L 2 20 L 22 20 Z M 15 16 C 13.796875 16 12.734375 15.460938 12 14.621094 C 11.265625 15.460938 10.203125 16 9 16 C 6.789062 16 5 14.210938 5 12 C 5 9.789062 6.789062 8 9 8 C 10.203125 8 11.265625 8.539062 12 9.378906 C 12.734375 8.539062 13.796875 8 15 8 C 17.210938 8 19 9.789062 19 12 C 19 14.210938 17.210938 16 15 16 Z M 15 16 "/>
</g>
</svg>
