<?xml version="1.0" encoding="UTF-8"?>
<svg width="60px" height="60px" viewBox="0 0 60 60" version="1.1" xmlns="http://www.w3.org/2000/svg" xmlns:xlink="http://www.w3.org/1999/xlink">
    <title>NEXT</title>
    <g id="2.-Export" stroke="none" stroke-width="1" fill="none" fill-rule="evenodd">
        <g id="KB-Home" transform="translate(-933.000000, -620.000000)" fill="#FF5933">
            <g id="card" transform="translate(810.000000, 595.000000)">
                <g id="NEXT" transform="translate(123.000000, 25.000000)">
                    <circle id="Oval" fill-opacity="0.06" cx="30" cy="30" r="30"></circle>
                    <path d="M29.999975,43.4999917 C30.3937347,43.4999917 30.7874945,43.3249814 31.0499831,42.9750143 C39.0999746,31.4250311 40.4999499,30.2000127 40.4999499,26.0000334 C40.4999499,20.2250685 35.7749398,15.5000584 29.999975,15.5000584 C24.2250101,15.5000584 19.5,20.2250685 19.5,26.0000334 C19.5,30.2000127 20.8999753,31.4250311 28.9499668,42.9750143 C29.2124555,43.3249814 29.6062152,43.4999917 29.999975,43.4999917 Z M29.999975,39.8955386 C29.2119214,38.7711898 28.4955382,37.7561623 27.8447372,36.8335799 C22.6909867,29.5263006 22.1249937,28.6359753 22.1249937,26.0000334 C22.1249937,21.6578349 25.6577765,18.1250522 29.999975,18.1250522 C34.3421735,18.1250522 37.8749562,21.6578349 37.8749562,26.0000334 C37.8749562,28.6359753 37.3089633,29.5263006 32.1552127,36.8330459 C31.5044117,37.7556282 30.7880285,38.7711898 29.999975,39.8955386 Z M30.5922435,30.3750229 C31.0707579,30.3750229 31.4584828,29.987298 31.4584828,29.5087836 L31.4584828,29.4305977 C33.1674631,28.5408064 34.9584745,27.3644939 34.9584745,25.1250355 C34.9584745,22.7598067 33.1581706,20.3125469 30.145986,20.3125469 C27.8595305,20.3125469 25.9405059,21.9148762 25.4532863,24.0559081 C25.3285841,24.6022477 25.7376179,25.1250355 26.2976294,25.1250355 L27.2185561,25.1250355 C27.6134374,25.1250355 27.939906,24.8521327 28.0569178,24.4753559 C28.3341998,23.5855646 29.1654585,22.9375407 30.145986,22.9375407 C31.5667895,22.9375407 32.3334808,24.0646666 32.3334808,25.1250355 C32.3334808,25.9978437 31.2358882,26.6120085 29.562476,27.4492487 C29.11734,27.6718434 28.8334891,28.1273934 28.8334891,28.6250271 L28.8334891,29.5087836 C28.8334891,29.987298 29.221214,30.3750229 29.6997285,30.3750229 L30.5922435,30.3750229 Z M29.999975,34.7500209 C30.9662965,34.7500209 31.7499791,33.9663382 31.7499791,33.0000167 C31.7499791,32.0336951 30.9662965,31.2500209 29.999975,31.2500209 C29.0336534,31.2500209 28.2499791,32.0336951 28.2499791,33.0000167 C28.2499791,33.9663382 29.0336534,34.7500209 29.999975,34.7500209 Z" id="map-marker-question" fill-rule="nonzero"></path>
                </g>
            </g>
        </g>
    </g>
</svg>