<?xml version="1.0"?>
<svg xmlns="http://www.w3.org/2000/svg" xmlns:xlink="http://www.w3.org/1999/xlink" xmlns:svgjs="http://svgjs.com/svgjs" version="1.1" width="512" height="512" x="0" y="0" viewBox="0 0 512 512" style="enable-background:new 0 0 512 512" xml:space="preserve"><circle r="256" cx="256" cy="256" fill="#ffe5df" shape="circle"/><g transform="matrix(0.5,0,0,0.5,128,127.99993515014647)">
<g xmlns="http://www.w3.org/2000/svg">
	<g>
		<path d="M506.472,90.267c-81.736-26.724-169.837-26.861-251.656-0.392H8c-4.418,0-8,3.582-8,8v336c0,4.418,3.582,8,8,8h248    c0.543-0.049,1.08-0.157,1.6-0.32c0.292-0.008,0.583-0.032,0.872-0.072c78.961-25.824,164.095-25.824,243.056,0    c4.202,1.365,8.715-0.934,10.081-5.136c0.259-0.798,0.391-1.632,0.391-2.471v-336C512,94.409,509.768,91.338,506.472,90.267z     M248,425.875H16v-320h232V425.875z M496,423.019c-75.688-22.56-156.312-22.56-232,0V103.731c75.549-23.496,156.451-23.496,232,0    V423.019z" fill="#2e384d" data-original="#000000" style=""/>
	</g>
</g>
<g xmlns="http://www.w3.org/2000/svg">
	<g>
		<path d="M200,233.875H56c-4.418,0-8,3.582-8,8s3.582,8,8,8h144c4.418,0,8-3.582,8-8S204.418,233.875,200,233.875z" fill="#2e384d" data-original="#000000" style=""/>
	</g>
</g>
<g xmlns="http://www.w3.org/2000/svg">
	<g>
		<path d="M216,185.875h-32c-4.418,0-8,3.582-8,8s3.582,8,8,8h32c4.418,0,8-3.582,8-8S220.418,185.875,216,185.875z" fill="#2e384d" data-original="#000000" style=""/>
	</g>
</g>
<g xmlns="http://www.w3.org/2000/svg">
	<g>
		<path d="M152,185.875H56c-4.418,0-8,3.582-8,8s3.582,8,8,8h96c4.418,0,8-3.582,8-8S156.418,185.875,152,185.875z" fill="#2e384d" data-original="#000000" style=""/>
	</g>
</g>
<g xmlns="http://www.w3.org/2000/svg">
	<g>
		<path d="M216,137.875H88c-4.418,0-8,3.582-8,8s3.582,8,8,8h128c4.418,0,8-3.582,8-8S220.418,137.875,216,137.875z" fill="#2e384d" data-original="#000000" style=""/>
	</g>
</g>
<g xmlns="http://www.w3.org/2000/svg">
</g>
<g xmlns="http://www.w3.org/2000/svg">
</g>
<g xmlns="http://www.w3.org/2000/svg">
</g>
<g xmlns="http://www.w3.org/2000/svg">
</g>
<g xmlns="http://www.w3.org/2000/svg">
</g>
<g xmlns="http://www.w3.org/2000/svg">
</g>
<g xmlns="http://www.w3.org/2000/svg">
</g>
<g xmlns="http://www.w3.org/2000/svg">
</g>
<g xmlns="http://www.w3.org/2000/svg">
</g>
<g xmlns="http://www.w3.org/2000/svg">
</g>
<g xmlns="http://www.w3.org/2000/svg">
</g>
<g xmlns="http://www.w3.org/2000/svg">
</g>
<g xmlns="http://www.w3.org/2000/svg">
</g>
<g xmlns="http://www.w3.org/2000/svg">
</g>
<g xmlns="http://www.w3.org/2000/svg">
</g>
</g></svg>
