<?xml version="1.0" encoding="UTF-8"?>
<svg width="18px" height="18px" viewBox="0 0 18 18" version="1.1" xmlns="http://www.w3.org/2000/svg" xmlns:xlink="http://www.w3.org/1999/xlink">
    <title>icon_pause@2x</title>
    <g id="icon_pause" stroke="none" stroke-width="1" fill="none" fill-rule="evenodd">
        <path d="M8.99998093,16.7499958 C10.3958111,16.7499958 11.6874745,16.4010382 12.8749717,15.7031233 C14.0624689,15.0052085 15.0051751,14.0625022 15.7030899,12.8750051 C16.4010048,11.6875079 16.7499624,10.3958445 16.7499624,9.00001431 C16.7499624,7.60418414 16.4010048,6.31252071 15.7030899,5.12502354 C15.0051751,3.93752638 14.0624689,2.99482013 12.8749717,2.29690529 C11.6874745,1.59899044 10.3958111,1.25003278 8.99998093,1.25003278 C7.60415076,1.25003278 6.31248733,1.59899044 5.12499017,2.29690529 C3.937493,2.99482013 2.99478675,3.93752638 2.29687191,5.12502354 C1.59895706,6.31252071 1.2499994,7.60418414 1.2499994,9.00001431 C1.2499994,10.3958445 1.59895706,11.6875079 2.29687191,12.8750051 C2.99478675,14.0625022 3.937493,15.0052085 5.12499017,15.7031233 C6.31248733,16.4010382 7.60415076,16.7499958 8.99998093,16.7499958 Z M9.01560589,15.7499982 C7.79685879,15.7499982 6.666653,15.4479154 5.62498897,14.8437504 C4.58332495,14.2395853 3.76040993,13.4218788 3.15624486,12.3906312 C2.55207979,11.3593837 2.24999702,10.2291779 2.24999702,9.00001431 C2.24999702,7.79168369 2.55207979,6.66668638 3.15624486,5.62502235 C3.76040993,4.58335833 4.57811647,3.7604433 5.60936401,3.15627824 C6.64061155,2.55211317 7.76560887,2.2500304 8.98435596,2.2500304 C10.2031031,2.2500304 11.3333089,2.55211317 12.3749729,3.15627824 C13.4166369,3.7604433 14.2395519,4.57814985 14.843717,5.60939739 C15.4478821,6.64064493 15.7499648,7.76564225 15.7499648,8.98438934 C15.7499648,10.2031364 15.4478821,11.3333422 14.843717,12.3750063 C14.2395519,13.4166703 13.4218454,14.2395853 12.3905978,14.8437504 C11.3593503,15.4479154 10.234353,15.7499982 9.01560589,15.7499982 Z M7.81248376,12.0000072 C7.85415017,12.0000072 7.89581705,11.9791737 7.93748346,11.9375073 C7.97914987,11.8958409 7.9999845,11.854174 7.9999845,11.8125076 L7.9999845,11.8125076 L7.9999845,6.18752101 C7.9999845,6.1458546 7.97914987,6.10418772 7.93748346,6.06252131 C7.89581705,6.0208549 7.85415017,6.00002146 7.81248376,6.00002146 L7.81248376,6.00002146 L7.18748525,6.00002146 C7.14581884,6.00002146 7.10415195,6.0208549 7.06248555,6.06252131 C7.02081914,6.10418772 6.9999845,6.1458546 6.9999845,6.18752101 L6.9999845,6.18752101 L6.9999845,11.8125076 C6.9999845,11.854174 7.02081914,11.8958409 7.06248555,11.9375073 C7.10415195,11.9791737 7.14581884,12.0000072 7.18748525,12.0000072 L7.18748525,12.0000072 L7.81248376,12.0000072 Z M10.8124766,12.0000072 C10.854143,12.0000072 10.8958099,11.9791737 10.9374763,11.9375073 C10.9791427,11.8958409 10.9999774,11.854174 10.9999774,11.8125076 L10.9999774,11.8125076 L10.9999774,6.18752101 C10.9999774,6.1458546 10.9791427,6.10418772 10.9374763,6.06252131 C10.8958099,6.0208549 10.854143,6.00002146 10.8124766,6.00002146 L10.8124766,6.00002146 L10.1874781,6.00002146 C10.1458117,6.00002146 10.1041448,6.0208549 10.0624784,6.06252131 C10.020812,6.10418772 9.99997735,6.1458546 9.99997735,6.18752101 L9.99997735,6.18752101 L9.99997735,11.8125076 C9.99997735,11.854174 10.020812,11.8958409 10.0624784,11.9375073 C10.1041448,11.9791737 10.1458117,12.0000072 10.1874781,12.0000072 L10.1874781,12.0000072 L10.8124766,12.0000072 Z" id="pause-circle" fill="#000000" fill-rule="nonzero"></path>
    </g>
</svg>