<?xml version="1.0" encoding="UTF-8"?>
<svg width="60px" height="60px" viewBox="0 0 60 60" version="1.1" xmlns="http://www.w3.org/2000/svg" xmlns:xlink="http://www.w3.org/1999/xlink">
    <title>Productivity Tools</title>
    <g id="2.-Export" stroke="none" stroke-width="1" fill="none" fill-rule="evenodd">
        <g id="KB-Home" transform="translate(-1259.000000, -620.000000)" fill="#FF5933">
            <g id="card" transform="translate(1136.000000, 595.000000)">
                <g id="Productivity-Tools" transform="translate(123.000000, 25.000000)">
                    <circle id="Oval" fill-opacity="0.06" cx="30" cy="30" r="30"></circle>
                    <path d="M39.0187182,42.4890383 L41.4889882,40.0187683 C42.1686741,39.3343674 42.1686741,38.2281384 41.4889882,37.5484525 L35.9999571,32.0593756 C34.9171655,30.976584 33.2999818,30.765647 31.9968233,31.4078421 L26.9999785,26.4109516 L26.9999785,23.5000393 L21,19.0000501 L18,22.0000501 L22.4999893,28.0000286 L25.4109015,28.0000286 L30.4077921,32.9968734 C29.7702661,34.3000319 29.9765339,35.9172155 31.0593256,37.0000072 L36.5484024,42.4890383 C37.2327575,43.1734391 38.3390323,43.1734391 39.0187182,42.4890383 Z M38.4983795,32.4390897 C38.9905658,32.143787 39.4593147,31.7875104 39.8765195,31.3656364 C41.6624344,29.5797215 42.3937102,26.9453436 41.7843366,24.4937961 C41.6437119,23.9219133 41.2030697,23.4719327 40.640571,23.3125398 C40.0686882,23.1531469 39.4593147,23.317209 39.0468248,23.7344138 L36.2952597,26.4812639 L34.7765408,26.228167 L34.5233981,24.7094023 L37.2702482,21.9625522 C37.6874531,21.5453473 37.846846,20.9359738 37.6874531,20.368806 C37.5327751,19.8015923 37.0780795,19.3609959 36.5061967,19.2203712 C34.0124435,18.6016135 31.4484309,19.314121 29.6343564,21.1234733 C29.1562234,21.6016064 28.767171,22.1406676 28.4484309,22.7125504 L28.499975,22.7500411 L28.499975,25.7922397 L29.8921683,27.1843872 C29.5734282,25.5531503 30.0562304,23.8890918 31.2281026,22.7172196 C32.1796537,21.7656685 33.4406065,21.2547139 34.7437192,21.2547139 L34.7999783,21.2547139 L32.1093414,23.9359666 L32.8171339,28.182859 L37.0640262,28.8906515 L39.7499481,26.2047295 C39.7640015,27.5312797 39.2530926,28.8062858 38.2874425,29.7718902 C37.8515152,30.2078175 37.3405606,30.5406567 36.7968302,30.7844153 C36.8811958,30.8593968 36.9796606,30.920325 37.0593112,31.0000215 L38.4983795,32.4390897 Z M21.8437408,42.9999928 C22.8703192,42.9999928 23.8359236,42.6015563 24.5624844,41.8749955 L29.2921789,37.145301 C28.8374833,36.4046869 28.5796714,35.5609389 28.556234,34.7031376 L22.9687382,40.2812493 C22.3687487,40.8812387 21.3140638,40.8812387 20.7140743,40.2812493 C20.4140567,39.9812317 20.2453255,39.578126 20.2453255,39.156252 C20.2453255,38.7297088 20.4093876,38.3312723 20.7140743,38.0312547 L27.0140319,31.7312514 L25.4250006,30.1422202 L19.1249973,36.4375085 C18.3984366,37.1640693 18,38.1296736 18,39.156252 C18,40.1828304 18.3984366,41.1484348 19.1249973,41.8749955 C19.8515581,42.6015563 20.8171625,42.9999928 21.8437408,42.9999928 Z" id="tools" fill-rule="nonzero"></path>
                </g>
            </g>
        </g>
    </g>
</svg>