<?xml version="1.0" encoding="UTF-8"?>
<svg width="60px" height="60px" viewBox="0 0 60 60" version="1.1" xmlns="http://www.w3.org/2000/svg" xmlns:xlink="http://www.w3.org/1999/xlink">
    <title>Icon Circle 2</title>
    <g id="1.-Knowledge-Base-[Desktop]" stroke="none" stroke-width="1" fill="none" fill-rule="evenodd">
        <g id="Icon-Circle">
            <circle id="Oval" fill="#FF5933" opacity="0.2" cx="30" cy="30" r="30"></circle>
            <path d="M42.1132148,39.7499958 C42.7224129,39.7499958 43.3070444,39.444836 43.6138597,38.9187371 C44.9706299,36.5923343 45.7499249,33.8874991 45.7499249,31.0000167 C45.7499249,22.3014672 38.698512,15.2500542 29.9999624,15.2500542 C21.3014129,15.2500542 14.25,22.3014672 14.25,31.0000167 C14.25,33.8874991 15.029295,36.5923343 16.3860652,38.9187371 C16.6928805,39.444836 17.277512,39.7499958 17.8867101,39.7499958 L42.1132148,39.7499958 Z M17.8976582,38.0371703 C16.6562443,35.9082081 15.9999958,33.4751542 15.9999958,31.0000167 C15.9999958,23.280339 22.2802848,17.0000501 29.9999624,17.0000501 C37.7196401,17.0000501 43.9999291,23.280339 43.9999291,31.0000167 C43.9999291,33.4751542 43.3436806,35.9082081 42.1132148,38 L17.8976582,38.0371703 Z M29.9999624,21.8125386 C30.7251042,21.8125386 31.3124593,21.2251834 31.3124593,20.5000417 C31.3124593,19.7749 30.7251042,19.1875449 29.9999624,19.1875449 C29.2748207,19.1875449 28.6874656,19.7749 28.6874656,20.5000417 C28.6874656,21.2251834 29.2748207,21.8125386 29.9999624,21.8125386 Z M30.0005049,36.2500042 C31.9337271,36.2500042 33.5004882,34.6831897 33.5004882,32.7500125 C33.5004882,31.5332185 32.8781523,30.4629696 31.9353292,29.8357205 L34.7648666,21.6610802 C34.9218257,21.2049427 34.6806459,20.7061875 34.2229062,20.5481602 C33.7750465,20.3961144 33.2691884,20.6329149 33.1105736,21.0889991 L30.276123,29.2778986 C30.1837312,29.2707957 30.0951313,29.2500209 30.0005049,29.2500209 C28.0673194,29.2500209 26.5005049,30.8168354 26.5005049,32.7500125 C26.5005049,34.6831897 28.0673194,36.2500042 30.0005049,36.2500042 Z M22.5624802,24.8750313 C23.2876219,24.8750313 23.8749771,24.2876761 23.8749771,23.5625344 C23.8749771,22.8373927 23.2876219,22.2500376 22.5624802,22.2500376 C21.8373385,22.2500376 21.2499833,22.8373927 21.2499833,23.5625344 C21.2499833,24.2876761 21.8373385,24.8750313 22.5624802,24.8750313 Z M37.4374447,24.8750313 C38.1625864,24.8750313 38.7499416,24.2876761 38.7499416,23.5625344 C38.7499416,22.8373927 38.1625864,22.2500376 37.4374447,22.2500376 C36.712303,22.2500376 36.1249478,22.8373927 36.1249478,23.5625344 C36.1249478,24.2876761 36.712303,24.8750313 37.4374447,24.8750313 Z M40.4999374,32.3125136 C41.2250791,32.3125136 41.8124343,31.7251584 41.8124343,31.0000167 C41.8124343,30.274875 41.2250791,29.6875198 40.4999374,29.6875198 C39.7747957,29.6875198 39.1874405,30.274875 39.1874405,31.0000167 C39.1874405,31.7251584 39.7747957,32.3125136 40.4999374,32.3125136 Z M19.4999875,32.3125136 C20.2251292,32.3125136 20.8124844,31.7251584 20.8124844,31.0000167 C20.8124844,30.274875 20.2251292,29.6875198 19.4999875,29.6875198 C18.7748458,29.6875198 18.1874906,30.274875 18.1874906,31.0000167 C18.1874906,31.7251584 18.7748458,32.3125136 19.4999875,32.3125136 Z M29.9999624,34.5000167 C29.0352965,34.5000167 28.2499666,33.7146785 28.2499666,32.7500125 C28.2499666,31.7853465 29.0352965,31.0000167 29.9999624,31.0000167 C30.9646284,31.0000167 31.7499666,31.7853465 31.7499666,32.7500125 C31.7499666,33.7146785 30.9646284,34.5000167 29.9999624,34.5000167 Z M42.1132148,39.7499958 C42.7224129,39.7499958 43.3070444,39.444836 43.6138597,38.9187371 C44.9706299,36.5923343 45.7499249,33.8874991 45.7499249,31.0000167 C45.7499249,22.3014672 38.698512,15.2500542 29.9999624,15.2500542 C21.3014129,15.2500542 14.25,22.3014672 14.25,31.0000167 C14.25,33.8874991 15.029295,36.5923343 16.3860652,38.9187371 C16.6928805,39.444836 17.277512,39.7499958 17.8867101,39.7499958 L42.1132148,39.7499958 Z M17.8976582,38.0371703 C16.6562443,35.9082081 15.9999958,33.4751542 15.9999958,31.0000167 C15.9999958,23.280339 22.2802848,17.0000501 29.9999624,17.0000501 C37.7196401,17.0000501 43.9999291,23.280339 43.9999291,31.0000167 C43.9999291,33.4751542 43.3436806,35.9082081 42.1132148,38 L17.8976582,38.0371703 Z M29.9999624,21.8125386 C30.7251042,21.8125386 31.3124593,21.2251834 31.3124593,20.5000417 C31.3124593,19.7749 30.7251042,19.1875449 29.9999624,19.1875449 C29.2748207,19.1875449 28.6874656,19.7749 28.6874656,20.5000417 C28.6874656,21.2251834 29.2748207,21.8125386 29.9999624,21.8125386 Z M30.0005049,36.2500042 C31.9337271,36.2500042 33.5004882,34.6831897 33.5004882,32.7500125 C33.5004882,31.5332185 32.8781523,30.4629696 31.9353292,29.8357205 L34.7648666,21.6610802 C34.9218257,21.2049427 34.6806459,20.7061875 34.2229062,20.5481602 C33.7750465,20.3961144 33.2691884,20.6329149 33.1105736,21.0889991 L30.276123,29.2778986 C30.1837312,29.2707957 30.0951313,29.2500209 30.0005049,29.2500209 C28.0673194,29.2500209 26.5005049,30.8168354 26.5005049,32.7500125 C26.5005049,34.6831897 28.0673194,36.2500042 30.0005049,36.2500042 Z M22.5624802,24.8750313 C23.2876219,24.8750313 23.8749771,24.2876761 23.8749771,23.5625344 C23.8749771,22.8373927 23.2876219,22.2500376 22.5624802,22.2500376 C21.8373385,22.2500376 21.2499833,22.8373927 21.2499833,23.5625344 C21.2499833,24.2876761 21.8373385,24.8750313 22.5624802,24.8750313 Z M37.4374447,24.8750313 C38.1625864,24.8750313 38.7499416,24.2876761 38.7499416,23.5625344 C38.7499416,22.8373927 38.1625864,22.2500376 37.4374447,22.2500376 C36.712303,22.2500376 36.1249478,22.8373927 36.1249478,23.5625344 C36.1249478,24.2876761 36.712303,24.8750313 37.4374447,24.8750313 Z M40.4999374,32.3125136 C41.2250791,32.3125136 41.8124343,31.7251584 41.8124343,31.0000167 C41.8124343,30.274875 41.2250791,29.6875198 40.4999374,29.6875198 C39.7747957,29.6875198 39.1874405,30.274875 39.1874405,31.0000167 C39.1874405,31.7251584 39.7747957,32.3125136 40.4999374,32.3125136 Z M19.4999875,32.3125136 C20.2251292,32.3125136 20.8124844,31.7251584 20.8124844,31.0000167 C20.8124844,30.274875 20.2251292,29.6875198 19.4999875,29.6875198 C18.7748458,29.6875198 18.1874906,30.274875 18.1874906,31.0000167 C18.1874906,31.7251584 18.7748458,32.3125136 19.4999875,32.3125136 Z M29.9999624,34.5000167 C29.0352965,34.5000167 28.2499666,33.7146785 28.2499666,32.7500125 C28.2499666,31.7853465 29.0352965,31.0000167 29.9999624,31.0000167 C30.9646284,31.0000167 31.7499666,31.7853465 31.7499666,32.7500125 C31.7499666,33.7146785 30.9646284,34.5000167 29.9999624,34.5000167 Z" id="ttachometer-alt" fill="#2E384D" fill-rule="nonzero"></path>
        </g>
    </g>
</svg>