<?xml version="1.0" encoding="UTF-8"?>
<svg width="50px" height="50px" viewBox="0 0 50 50" version="1.1" xmlns="http://www.w3.org/2000/svg" xmlns:xlink="http://www.w3.org/1999/xlink">
    <title>57E236E6-27C7-441C-82E5-CF0095E290DE</title>
    <g id="Single-Customer-[Desktop]" stroke="none" stroke-width="1" fill="none" fill-rule="evenodd">
        <g id="Single-Company-|-Agreements" transform="translate(-601.000000, -584.000000)">
            <g id="Content" transform="translate(222.000000, 485.000000)">
                <g id="Recurring-Agreement" transform="translate(360.000000, 80.000000)">
                    <g id="Icon" transform="translate(20.000000, 20.000000)">
                        <rect id="Shape" stroke="#E6F6D4" stroke-width="2" fill="#E6F6D4" x="0" y="0" width="48" height="48" rx="10"></rect>
                        <path d="M16.8632768,22.1250188 C16.9570268,22.1250188 17.0449172,22.0957221 17.1269481,22.0371284 C17.2089789,21.9785346 17.2499946,21.8906442 17.2499946,21.7734571 C17.4843693,20.7656468 17.9238213,19.8457275 18.5683509,19.0136981 C19.2128804,18.1816686 20.0097537,17.5312869 20.9589702,17.0625308 C21.9081867,16.5937821 22.9218559,16.3594075 23.9999785,16.3594075 C25.3827876,16.3594075 26.636691,16.7285473 27.7616883,17.4668268 C28.8866856,18.2051062 29.7304336,19.1836194 30.2929323,20.4023666 L30.2929323,20.4023666 L25.8280992,20.2968981 C25.7109121,20.2968981 25.6113026,20.3379138 25.5292718,20.4199447 C25.4472409,20.5019756 25.4062252,20.6015851 25.4062252,20.7187721 L25.4062252,20.7187721 L25.4062252,21.7031448 C25.4062252,21.8203318 25.4472409,21.9199413 25.5292718,22.0019722 C25.6113026,22.0840031 25.7109121,22.1250188 25.8280992,22.1250188 L25.8280992,22.1250188 L32.5780831,22.1250188 C32.6952701,22.1250188 32.7948796,22.0840031 32.8769105,22.0019722 C32.9589414,21.9199413 32.9999571,21.8203318 32.9999571,21.7031448 L32.9999571,21.7031448 L32.9999571,14.9531609 C32.9999571,14.8359738 32.9589414,14.7363643 32.8769105,14.6543335 C32.7948796,14.5723026 32.6952701,14.5312869 32.5780831,14.5312869 L32.5780831,14.5312869 L31.5937104,14.5312869 C31.4765234,14.5312869 31.3769139,14.5723026 31.294883,14.6543335 C31.2128521,14.7363643 31.1718364,14.8359738 31.1718364,14.9531609 L31.1718364,14.9531609 L31.2773049,18.4336213 C30.4804317,17.2383117 29.4433248,16.2890952 28.1659842,15.5859719 C26.8886437,14.8828485 25.4999751,14.5312869 23.9999785,14.5312869 C22.5937319,14.5312869 21.2870942,14.8418328 20.080066,15.4629253 C18.8730378,16.0840177 17.859368,16.9336247 17.0390576,18.0117473 C16.2187473,19.0898699 15.6796857,20.2968981 15.421874,21.6328324 C15.3984364,21.7500195 15.4277335,21.8613475 15.5097644,21.966816 C15.5917953,22.0722845 15.7031233,22.1250188 15.843748,22.1250188 L15.843748,22.1250188 L16.8632768,22.1250188 Z M16.4062466,31.9687453 C16.5234337,31.9687453 16.6230432,31.9277296 16.7050741,31.8456987 C16.7871049,31.7636678 16.8281206,31.6640584 16.8281206,31.5468713 L16.8281206,31.5468713 L16.7226521,28.0664109 C17.5195254,29.2617205 18.5566323,30.210937 19.8339728,30.9140603 C21.1113134,31.6171836 22.4999819,31.9687453 23.9999785,31.9687453 C25.4062252,31.9687453 26.7128629,31.6581994 27.9198911,31.0371069 C29.1269193,30.4160145 30.1405891,29.5664075 30.9608994,28.4882849 C31.7812098,27.4101622 32.3202714,26.2031341 32.5780831,24.8671997 C32.6015207,24.7500127 32.5722236,24.6386847 32.4901927,24.5332162 C32.4081618,24.4277477 32.2968338,24.3750134 32.1562091,24.3750134 L32.1562091,24.3750134 L31.1366803,24.3750134 C31.0429303,24.3750134 30.9550399,24.40431 30.873009,24.4629038 C30.7909782,24.5214976 30.7499624,24.609388 30.7499624,24.7265751 C30.5155878,25.7343853 30.0761358,26.6543047 29.4316062,27.4863341 C28.7870767,28.3183636 27.9902034,28.9687526 27.0409869,29.4375013 C26.0917704,29.90625 25.0781012,30.1406247 23.9999785,30.1406247 C22.6171695,30.1406247 21.3632661,29.7714849 20.2382688,29.0332054 C19.1132714,28.2949259 18.2695235,27.3164128 17.7070248,26.0976656 L17.7070248,26.0976656 L22.1718579,26.2031341 C22.2890449,26.2031341 22.3886544,26.1621183 22.4706853,26.0800875 C22.5527162,25.9980566 22.5937319,25.8984471 22.5937319,25.7812601 L22.5937319,25.7812601 L22.5937319,24.7968874 C22.5937319,24.6797004 22.5527162,24.5800909 22.4706853,24.49806 C22.3886544,24.4160291 22.2890449,24.3750134 22.1718579,24.3750134 L22.1718579,24.3750134 L15.421874,24.3750134 C15.304687,24.3750134 15.2050775,24.4160291 15.1230466,24.49806 C15.0410157,24.5800909 15,24.6797004 15,24.7968874 L15,24.7968874 L15,31.5468713 C15,31.6640584 15.0410157,31.7636678 15.1230466,31.8456987 C15.2050775,31.9277296 15.304687,31.9687453 15.421874,31.9687453 L15.421874,31.9687453 L16.4062466,31.9687453 Z" id="sync" fill="#407B00" fill-rule="nonzero"></path>
                    </g>
                </g>
            </g>
        </g>
    </g>
</svg>