<?xml version="1.0" encoding="UTF-8"?>
<svg width="60px" height="60px" viewBox="0 0 60 60" version="1.1" xmlns="http://www.w3.org/2000/svg" xmlns:xlink="http://www.w3.org/1999/xlink">
    <title>Sales</title>
    <g id="2.-Export" stroke="none" stroke-width="1" fill="none" fill-rule="evenodd">
        <g id="KB-Home" transform="translate(-281.000000, -860.000000)" fill="#FF5933">
            <g id="card" transform="translate(158.000000, 835.000000)">
                <g id="Sales" transform="translate(123.000000, 25.000000)">
                    <circle id="Oval" fill-opacity="0.06" cx="30" cy="30" r="30"></circle>
                    <path d="M28.4999714,42.9999928 C28.9124613,42.9999928 29.2499696,42.6624845 29.2499696,42.2499946 L29.2499696,40 L32.2499624,40 L32.2499624,42.2499946 C32.2499624,42.6624845 32.5874708,42.9999928 32.9999607,42.9999928 L38.2499481,42.9999928 C38.662438,42.9999928 38.9999464,42.6624845 38.9999464,42.2499946 L38.9999464,38.4577979 C39.5483917,38.0359239 40.0499622,37.5531217 40.4671212,37.0000072 L42.7499374,37.0000072 C43.1624273,37.0000072 43.4999356,36.6624988 43.4999356,36.2500089 L43.4999356,30.2500232 C43.4999356,29.8375334 43.1624273,29.500025 42.7499374,29.500025 L41.3671282,29.500025 C40.8468353,28.3140995 40.0218098,27.3015745 38.9999464,26.5281388 L38.9999464,23.5000393 L38.2499481,23.5000393 C36.8296482,23.5000393 35.5405888,23.9734574 34.4530822,24.7281706 C34.4718505,24.5687776 34.4999571,24.4140997 34.4999571,24.2500376 C34.4999571,21.3484637 32.1515435,19.0000501 29.2499696,19.0000501 C26.3483957,19.0000501 23.9999821,21.3484637 23.9999821,24.2500376 C23.9999821,24.7047331 24.0702945,25.1406604 24.1780975,25.5578652 C21.885943,26.4906481 20.1562413,28.5203216 19.6500016,31.0000215 L19.1249937,31.0000215 C18.4312546,31.0000215 17.8828092,30.3672105 18.0234339,29.6500338 C18.1265678,29.1156418 18.6281382,28.7500268 19.1718686,28.7500268 L19.2187435,28.7500268 C19.3734215,28.7500268 19.4999928,28.6234555 19.4999928,28.4687775 L19.4999928,27.5312797 C19.4999928,27.3766018 19.3734215,27.2500304 19.2187435,27.2500304 C17.8828092,27.2500304 16.6921687,28.2062964 16.5234374,29.5281317 C16.3171696,31.131262 17.5640691,32.5000179 19.1249937,32.5000179 L19.4999928,32.5000179 C19.4999928,34.9468962 20.6906333,37.0984261 22.4999857,38.467182 L22.4999857,42.2499946 C22.4999857,42.6624845 22.837494,42.9999928 23.2499839,42.9999928 L28.4999714,42.9999928 Z M26.3765481,25.060964 C26.3015208,24.8031521 26.2499768,24.5312869 26.2499768,24.2500447 C26.2499768,22.5953632 27.5952952,21.2500447 29.2499768,21.2500447 C30.904644,21.2500447 32.2499624,22.5953632 32.2499624,24.2500447 C32.2499624,24.5125186 32.2077567,24.7609921 32.1421594,25.0000358 L26.999975,25.0000358 C26.789038,25.0000358 26.5874851,25.0469107 26.3765481,25.060964 Z M26.999975,40.7499982 L24.7499875,40.7499982 L24.7499875,37.3468996 C24.0656253,36.8312759 21.7499875,35.4812425 21.7499875,32.5000179 C21.7499875,29.6031589 24.103116,27.2500304 26.999975,27.2500304 L34.8468496,27.2500304 C35.292161,26.8937996 35.8874355,26.3453542 36.7499517,26.0218992 L36.7499517,27.6484669 C38.87809,29.2609814 38.8218309,29.2984722 39.8952384,31.7500197 L41.249941,31.7500197 L41.249941,34.7500125 L39.3468388,34.7500125 C38.245279,36.2078032 38.4374477,36.0578402 36.7499517,37.3468996 L36.7499517,40.7499982 L34.4999571,40.7499982 L34.4999571,37.7500054 L26.999975,37.7500054 L26.999975,40.7499982 Z M36.7499517,32.5000215 C37.1624416,32.5000215 37.4999535,32.1625095 37.4999535,31.7500197 C37.4999535,31.3375298 37.1624416,31.0000215 36.7499517,31.0000215 C36.3374619,31.0000215 35.9999535,31.3375298 35.9999535,31.7500197 C35.9999535,32.1625095 36.3374619,32.5000215 36.7499517,32.5000215 Z" id="piggy-bank" fill-rule="nonzero"></path>
                </g>
            </g>
        </g>
    </g>
</svg>