<?xml version="1.0" encoding="UTF-8"?>
<svg width="60px" height="60px" viewBox="0 0 60 60" version="1.1" xmlns="http://www.w3.org/2000/svg" xmlns:xlink="http://www.w3.org/1999/xlink">
    <title>Seller Support</title>
    <g id="2.-Export" stroke="none" stroke-width="1" fill="none" fill-rule="evenodd">
        <g id="KB-Home" transform="translate(-607.000000, -860.000000)" fill="#FF5933">
            <g id="card" transform="translate(484.000000, 835.000000)">
                <g id="Seller-Support" transform="translate(123.000000, 25.000000)">
                    <circle id="Oval" fill-opacity="0.06" cx="30" cy="30" r="30"></circle>
                    <path d="M42.6561876,40 C43.1223502,40 43.4999356,39.6224145 43.4999356,39.156252 L43.4999356,38.312504 C43.4999356,37.8463415 43.1223502,37.468756 42.6561876,37.468756 L19.031244,37.468756 L19.031244,20.5937963 C19.031244,20.1276337 18.6536585,19.7500483 18.187496,19.7500483 L17.343748,19.7500483 C16.8775855,19.7500483 16.5,20.1276337 16.5,20.5937963 L16.5,38.312504 C16.5,39.2443141 17.2556859,40 18.187496,40 L42.6561876,40 Z M32.284432,32.75589 L38.0967865,26.9430205 L39.6519319,28.4986808 C40.4492799,29.2959774 41.8124397,28.7311956 41.8124397,27.6037435 L41.8124397,22.2812922 C41.8124397,21.8151297 41.4348542,21.4375443 40.9686917,21.4375443 L35.6462404,21.4375443 C34.5187883,21.4375443 33.9540065,22.800704 34.7513031,23.598052 L36.3069634,25.1531974 L31.6874638,29.772697 L27.2213776,25.3066623 C26.8917885,24.9770732 26.3575967,24.9770732 26.0280077,25.3066623 L22.1077518,29.2269182 C21.7781628,29.5565072 21.7781628,30.090699 22.1077518,30.420288 L22.704205,31.0167412 C23.0337941,31.3463303 23.5679858,31.3463303 23.8975749,31.0167412 L26.6249759,28.2898553 L31.0910621,32.75589 C31.4206511,33.0854791 31.9548429,33.0854791 32.284432,32.75589 Z" id="chart-line" fill-rule="nonzero"></path>
                </g>
            </g>
        </g>
    </g>
</svg>