<?xml version="1.0" encoding="UTF-8"?>
<svg width="52px" height="52px" viewBox="0 0 52 52" version="1.1" xmlns="http://www.w3.org/2000/svg" xmlns:xlink="http://www.w3.org/1999/xlink">
    <title>436AB98C-FD1D-4A9D-9005-8A45E4A30EE3</title>
    <g id="Single-Customer-[Desktop]" stroke="none" stroke-width="1" fill="none" fill-rule="evenodd">
        <g id="Single-Company-|-Agreements" transform="translate(-600.000000, -1073.000000)">
            <g id="Content" transform="translate(222.000000, 485.000000)">
                <g id="One-Time-Contract" transform="translate(360.000000, 570.000000)">
                    <g id="Icon" transform="translate(20.000000, 20.000000)">
                        <rect id="Shape" stroke="#CCE0FF" stroke-width="3" fill="#CCE0FF" x="0" y="0" width="48" height="48" rx="10"></rect>
                        <path d="M21.0820167,29.4375013 C21.1992038,29.4375013 21.2929537,29.4023452 21.3632661,29.3320328 L21.3632661,29.3320328 L31.9101159,18.785183 C32.0038659,18.691433 32.0507406,18.5859645 32.0507406,18.4687775 C32.0507406,18.3515905 32.0038659,18.2578405 31.9101159,18.1875282 L31.9101159,18.1875282 L30.9257433,17.1679993 C30.8319933,17.097687 30.7265248,17.0625308 30.6093378,17.0625308 C30.4921507,17.0625308 30.3984008,17.097687 30.3280885,17.1679993 L30.3280885,17.1679993 L21.0820167,26.4492272 L17.6718686,23.0390791 C17.6015563,22.9453291 17.5078063,22.8984544 17.3906193,22.8984544 C17.2734323,22.8984544 17.1679638,22.9453291 17.0742138,23.0390791 L17.0742138,23.0390791 L16.0898412,24.0234517 C15.9960912,24.1172017 15.9492165,24.2226702 15.9492165,24.3398572 C15.9492165,24.4570443 15.9960912,24.5507942 16.0898412,24.6211066 L16.0898412,24.6211066 L20.7656113,29.3320328 C20.8593612,29.4023452 20.9648297,29.4375013 21.0820167,29.4375013 Z" id="check" fill="#0045B4" fill-rule="nonzero"></path>
                    </g>
                </g>
            </g>
        </g>
    </g>
</svg>