<?xml version="1.0" encoding="UTF-8"?>
<svg width="32px" height="32px" viewBox="0 0 32 32" version="1.1" xmlns="http://www.w3.org/2000/svg" xmlns:xlink="http://www.w3.org/1999/xlink">
    <title>icon/sow</title>
    <g id="icon/sow" stroke="none" stroke-width="1" fill="none" fill-rule="evenodd">
        <g id="icon/addendum" fill="#407B00">
            <circle id="Oval" opacity="0.200000003" cx="16" cy="16" r="16"></circle>
            <path d="M13.4062395,17.0000119 C13.5104058,17.0000119 13.593739,16.968762 13.6562389,16.9062621 L13.6562389,16.9062621 L20.0312237,10.500031 C20.114557,10.4166941 20.1562234,10.3281528 20.1562234,10.2344031 C20.1562234,10.1406533 20.114557,10.0625285 20.0312237,10.000031 L20.0312237,10.000031 L19.1874757,9.09378077 C19.1041424,9.03128092 19.0103926,9.00003099 18.9062264,9.00003099 C18.8020601,9.00003099 18.7187268,9.03128092 18.656227,9.09378077 L18.656227,9.09378077 L13.4062395,14.3750182 L11.4999976,12.500031 C11.4374942,12.4166894 11.3593694,12.3750229 11.2656196,12.3750229 C11.1718698,12.3750229 11.0833285,12.4166894 10.9999976,12.500031 L10.9999976,12.500031 L10.1249973,13.3437706 C10.041664,13.4271039 9.99999762,13.5208537 9.99999762,13.62502 C9.99999762,13.7291862 10.041664,13.8125195 10.1249973,13.8750194 L10.1249973,13.8750194 L13.1249902,16.9062621 C13.2083235,16.968762 13.3020732,17.0000119 13.4062395,17.0000119 Z M13.4687393,22.9999976 C13.5729056,22.9999976 13.6562389,22.9687477 13.7187387,22.9062478 L13.7187387,22.9062478 L22.8749669,13.7500232 C22.9583002,13.6666864 22.9999666,13.5729366 22.9999666,13.4687703 C22.9999666,13.3646041 22.9583002,13.2812708 22.8749669,13.2187709 L22.8749669,13.2187709 L22.0312189,12.343773 C21.9478856,12.2812732 21.8541359,12.2500232 21.7499696,12.2500232 C21.6458033,12.2500232 21.56247,12.2812732 21.4999702,12.343773 L21.4999702,12.343773 L13.4687393,20.4062538 L10.5,17.4375109 C10.4374966,17.3541776 10.3541633,17.3125112 10.249997,17.3125112 C10.1458308,17.3125112 10.052081,17.3541776 9.96874769,17.4375109 L9.96874769,17.4375109 L9.1249997,18.2812589 C9.04166641,18.3645922 9,18.4583419 9,18.5625082 C9,18.6666745 9.04166641,18.7500077 9.1249997,18.8125076 L9.1249997,18.8125076 L13.18749,22.9062478 C13.2708233,22.9687477 13.3645731,22.9999976 13.4687393,22.9999976 Z" id="CHECK-DOUBLE" fill-rule="nonzero"></path>
        </g>
    </g>
</svg>