<?xml version="1.0" encoding="UTF-8"?>
<svg width="242px" height="242px" viewBox="0 0 242 242" version="1.1" xmlns="http://www.w3.org/2000/svg" xmlns:xlink="http://www.w3.org/1999/xlink">
    <title>7659AA68-2489-486B-90EE-CC4D49856A87</title>
    <g id="1.-General-Dashboard" stroke="none" stroke-width="1" fill="none" fill-rule="evenodd">
        <g id="x.-No-Records-Found" transform="translate(-599.000000, -414.000000)">
            <g id="No-Records---With-Circle" transform="translate(600.000000, 415.000000)">
                <circle id="Oval" stroke="#EEF3F5" stroke-width="2" fill="#FFFFFF" cx="120" cy="120" r="120"></circle>
                <g id="No-Records" transform="translate(45.000000, 60.000000)" fill="#FF5933" fill-rule="nonzero">
                    <path d="M61.7248594,81.5154234 L31.9455,91.744132 C29.8938047,92.4490875 27.7148484,91.5816281 26.9604539,89.7597305 L24.9115031,84.8126883 L9.88586953,91.036432 C8.96706782,91.416931 7.93474431,91.4168483 7.01600358,91.0362021 C6.09726285,90.6555559 5.36736525,89.9255276 4.98688359,89.0067187 L0.285649219,77.6578547 C-0.505749477,75.7441682 0.403165081,73.5511805 2.31628828,72.7584211 L17.3400937,66.5346773 L15.291143,61.5871875 C14.5367484,59.7652922 15.4641773,57.6110602 17.4133359,56.658457 L89.1613828,21.5938125 L107.47193,65.8017984 L91.8621867,71.1635742 C91.8170532,61.8614211 84.2508375,54.35111 74.9486055,54.3749625 C65.6463735,54.398815 58.1187725,61.9478291 58.1213438,71.2500914 C58.1399972,74.9786959 59.4088503,78.5932767 61.7248594,81.5154234 L61.7248594,81.5154234 Z" id="Path" opacity="0.200000003"></path>
                    <path d="M149.713446,50.8196812 L129.624028,2.31604922 C129.243548,1.39723866 128.513651,0.667208349 127.59491,0.286560722 C126.676169,-0.0940869057 125.643845,-0.0941702924 124.725042,0.286328906 L97.2290086,11.676382 C96.3101693,12.0569335 95.5801804,12.7869693 95.1996879,13.705833 C94.8191954,14.6246967 94.8193796,15.6570901 95.2002,16.575818 L115.288702,65.07945 C116.081445,66.9928483 118.275041,67.9015171 120.188604,67.1091703 L147.683721,55.7191148 C148.602651,55.3386477 149.332773,54.6086771 149.713432,53.689827 C150.094091,52.770977 150.094096,51.738535 149.713446,50.8196813 L149.713446,50.8196812 Z M88.156132,81.6815906 C90.5444994,78.7279425 91.8549371,75.0485209 91.8713438,71.2500914 C91.8713436,61.9302864 84.3161488,54.3750918 74.9963438,54.3750918 C65.6765387,54.3750918 58.1213439,61.9302864 58.1213438,71.2500914 C58.1376609,75.0512623 59.4498088,78.7332147 61.8411305,81.6879984 L50.7165586,115.063936 C50.3353481,116.207544 50.5271276,117.464687 51.2319821,118.442614 C51.9368366,119.420541 53.0688249,120 54.2742961,120 L58.2257133,120 C59.8398593,120 61.2728328,118.966864 61.7834531,117.435612 L71.6656547,87.7881469 C73.8655524,88.2375158 76.1336061,88.2373564 78.3334406,87.7876781 L88.2165656,117.4356 C88.7269531,118.967021 90.1600636,120 91.7742961,120 L95.7257133,120 C96.9311828,120 98.0631692,119.420541 98.7680237,118.442616 C99.4728782,117.464691 99.6646598,116.207551 99.2834531,115.063943 L88.156132,81.6815906 Z M74.9963438,76.875082 C71.889742,76.875082 69.3713438,74.3566837 69.3713438,71.250082 C69.3713438,68.1434803 71.889742,65.625082 74.9963438,65.625082 C78.1029455,65.625082 80.6213438,68.1434803 80.6213438,71.250082 C80.6166624,74.3547426 78.1010043,76.8704007 74.9963438,76.875082 Z" id="Shape"></path>
                </g>
            </g>
        </g>
    </g>
</svg>