<?xml version="1.0" encoding="UTF-8"?>
<svg xmlns="http://www.w3.org/2000/svg" xmlns:xlink="http://www.w3.org/1999/xlink" width="24pt" height="24pt" viewBox="0 0 24 24" version="1.1">
<g id="surface4585203">
<path style=" stroke:none;fill-rule:nonzero;fill:rgb(18.039216%,21.960784%,30.19608%);fill-opacity:1;" d="M 10.25 2 C 10.003906 1.996094 9.773438 2.113281 9.628906 2.3125 C 9.488281 2.511719 9.453125 2.769531 9.53125 3 L 7.320312 3 C 6.402344 3 5.542969 3.460938 5.03125 4.222656 L 3.847656 6 L 3.75 6 C 3.480469 5.996094 3.226562 6.136719 3.089844 6.371094 C 2.957031 6.605469 2.957031 6.894531 3.089844 7.128906 C 3.226562 7.363281 3.480469 7.503906 3.75 7.5 L 4.132812 7.5 C 4.195312 7.507812 4.261719 7.511719 4.324219 7.503906 L 5.5625 19.042969 C 5.710938 20.433594 6.898438 21.5 8.296875 21.5 L 15.703125 21.5 C 17.101562 21.5 18.289062 20.433594 18.4375 19.042969 L 19.671875 7.503906 C 19.738281 7.511719 19.800781 7.507812 19.863281 7.5 L 20.25 7.5 C 20.519531 7.503906 20.773438 7.363281 20.910156 7.128906 C 21.042969 6.894531 21.042969 6.605469 20.910156 6.371094 C 20.773438 6.136719 20.519531 5.996094 20.25 6 L 20.152344 6 L 18.96875 4.222656 C 18.457031 3.460938 17.597656 3 16.679688 3 L 14.464844 3 C 14.546875 2.769531 14.511719 2.511719 14.371094 2.3125 C 14.226562 2.113281 13.996094 1.996094 13.75 2 Z M 7.320312 4.5 L 16.679688 4.5 C 17.097656 4.5 17.488281 4.707031 17.71875 5.054688 L 18.347656 6 L 5.652344 6 L 6.28125 5.054688 C 6.511719 4.707031 6.902344 4.5 7.320312 4.5 Z M 5.835938 7.5 L 18.164062 7.5 L 16.945312 18.882812 C 16.875 19.523438 16.347656 20 15.703125 20 L 8.296875 20 C 7.652344 20 7.125 19.523438 7.054688 18.882812 Z M 5.835938 7.5 "/>
</g>
</svg>
