<svg height="18" viewBox="0 0 18 18" width="18" xmlns="http://www.w3.org/2000/svg"><path d="m6.56248435 13.0000048c.10416626 0 .18749956-.0416664.24999941-.1249997l10.09372594-10.09372597.0312499.03124993v2.81249329c0 .10416626.0364584.19270803.1093748.26562437.0729163.07291633.1614581.10937474.2656243.10937474h.3124993c.1041662 0 .192708-.03645841.2656243-.10937474.0729164-.07291634.1093748-.16145811.1093748-.26562437v-4.24998987c0-.10416625-.0364584-.19270803-.1093748-.26562436-.0729163-.07291634-.1614581-.10937474-.2656243-.10937474h-4.2499899c-.1041662 0-.192708.0364584-.2656244.10937474-.0729163.07291633-.1093747.16145811-.1093747.26562436v.31249926c0 .10416626.0364584.19270803.1093747.26562437.0729164.07291633.1614582.10937474.2656244.10937474h2.8124933l.0312499.03124992-10.0937259 10.09372593c-.0833333.0624999-.12499971.1458332-.12499971.2499994 0 .1041663.04166641.197916.12499971.2812493l.15624962.1562497c.0833333.0833333.17708307.1249997.28124933.1249997zm5.93748585 3.9999904c.4166655 0 .7708317-.1458331 1.0624975-.4374989s.4374989-.645832.4374989-1.0624975v-7.37498241c0-.16666611-.0781248-.28124933-.2343744-.34374918s-.2864578-.04166641-.3906241.06249985l-.2499994.24999941c-.0833333.08333329-.1249997.17708307-.1249997.28124933v7.124983c0 .1458332-.0468749.2656244-.1406247.3593742-.0937497.0937497-.213541.1406246-.3593741.1406246h-10.9999702c-.14583672 0-.26562794-.0468749-.35937772-.1406246-.09374978-.0937498-.14062228-.213541-.14062228-.3593742v-10.99997019c0-.14583672.0468725-.26562794.14062228-.35937772s.213541-.14062228.35937772-.14062228h10.6249711c.1041663 0 .1874995-.04166879.2499994-.12500209l.3046868-.30425269c.0781248-.09403907.0911456-.20616276.0390624-.33637078-.0624999-.15624963-.1770831-.23437444-.3437492-.23437444h-10.8749705c-.41666909 0-.77083523.14583314-1.06250104.43749896-.29166581.29166581-.43749896.64583195-.43749896 1.06250104v10.99997019c0 .4166655.14583315.7708317.43749896 1.0624975s.64583195.4374989 1.06250104.4374989z"/></svg>