<?xml version="1.0" encoding="UTF-8"?>
<svg xmlns="http://www.w3.org/2000/svg" xmlns:xlink="http://www.w3.org/1999/xlink" width="24pt" height="24pt" viewBox="0 0 24 24" version="1.1">
<g id="surface37162624">
<path style=" stroke:none;fill-rule:nonzero;fill:rgb(18.039216%,21.960784%,30.19608%);fill-opacity:1;" d="M 2 4 C 0.898438 4 0 4.898438 0 6 L 0 19 C 0 20.101562 0.898438 21 2 21 L 22 21 C 23.101562 21 24 20.101562 24 19 L 24 6 C 24 4.898438 23.101562 4 22 4 Z M 14.75 9.28125 C 15.53125 9.28125 16.34375 9.59375 16.34375 9.59375 L 16.0625 11 C 16.0625 11 15.421875 10.59375 14.875 10.59375 C 14.035156 10.59375 13.75 10.847656 13.75 11.21875 C 13.75 11.941406 16.09375 12.066406 16.09375 13.6875 C 16.097656 15.035156 14.429688 15.96875 13.21875 15.96875 C 12.007812 15.96875 11.375 15.59375 11.375 15.59375 L 11.65625 14.25 C 11.65625 14.25 12.304688 14.625 13.28125 14.625 C 14.257812 14.625 14.40625 14.207031 14.40625 14.03125 C 14.40625 12.996094 12.0625 13.292969 12.0625 11.28125 C 12.0625 10.167969 12.972656 9.28125 14.75 9.28125 Z M 1.3125 9.40625 L 3.90625 9.40625 C 4.574219 9.40625 4.84375 10.0625 4.84375 10.0625 L 5.40625 12.9375 C 4.628906 10.4375 1.3125 9.40625 1.3125 9.40625 Z M 7.15625 9.40625 L 8.96875 9.40625 L 6.40625 15.78125 L 4.53125 15.78125 L 3.1875 10.625 C 3.1875 10.625 4.617188 11.335938 5.5 13.3125 C 5.535156 13.550781 5.625 13.9375 5.625 13.9375 Z M 9.65625 9.40625 L 11.34375 9.40625 L 10.34375 15.78125 L 8.625 15.78125 Z M 18.8125 9.40625 L 20.59375 9.40625 L 21.90625 15.78125 L 20.375 15.78125 L 20.1875 14.875 L 18.09375 14.875 L 17.71875 15.78125 L 16.0625 15.78125 Z M 19.46875 11.25 L 18.5625 13.65625 L 19.9375 13.65625 Z M 19.46875 11.25 "/>
</g>
</svg>
