<?xml version="1.0" encoding="UTF-8"?>
<svg width="48px" height="48px" viewBox="0 0 48 48" version="1.1" xmlns="http://www.w3.org/2000/svg" xmlns:xlink="http://www.w3.org/1999/xlink">
    <title>BA3DC90A-EE53-41A7-ADAC-58616CB12076</title>
    <g id="2.-Customer-Account-Setup" stroke="none" stroke-width="1" fill="none" fill-rule="evenodd">
        <g id="Account_Setup-3.1" transform="translate(-516.000000, -229.000000)" fill="#FF5933" fill-rule="nonzero">
            <g id="Group" transform="translate(436.000000, 197.000000)">
                <g id="Amazon" transform="translate(80.000000, 32.000000)">
                    <path d="M24.1897877,6.19888335e-05 C33.5969096,6.19888335e-05 36.2219096,6.10720485 36.2219096,8.81789821 L36.2219096,8.81789821 L36.2219096,24.5786753 C36.2219096,27.5251038 39.682603,30.2357972 39.682603,30.2357972 L39.682603,30.2357972 L33.5969096,36.2357972 C32.5361535,35.2393896 29.4397877,32.3143059 28.7433591,31.2215324 C23.900481,38.8072258 9.08264483,38.3250829 9.08264483,26.5929401 C9.08264483,15.6643686 22.025481,14.1964906 27.2433591,14.0036543 C27.2433591,13.2380737 27.2617778,12.505785 27.2657071,11.8200547 L27.2660627,11.4143096 C27.2523769,8.54803127 26.8490898,6.59167623 23.4397877,6.60002014 L23.4397877,6.60002014 L23.4069712,6.60079336 C23.0187506,6.61471147 19.2871154,6.87915547 17.6326239,11.9035916 L17.6326239,11.9035916 L9.75762391,11.1750411 C9.75762391,5.89291913 14.7612163,6.19888335e-05 24.1897877,6.19888335e-05 Z M27.2433591,18.9536753 C23.6326239,19.0714906 18.2219096,20.0893477 18.2219096,25.1465115 C18.2219096,30.5893477 27.2433591,31.875062 27.2433591,23.3036334 L27.2433591,23.3036334 Z" id="Combined-Shape"></path>
                    <path d="M0.725501975,37.1786334 C-0.00304852735,36.3536125 0.832644832,35.9679401 1.31478769,36.2893686 C9.16833819,41.0572258 21.4361953,48.9107763 41.225502,39.5357763 C42.0290734,39.1393268 42.650481,39.750062 41.8147877,40.8214906 C40.9897668,41.8929191 34.3147877,48.000062 23.1183591,48.000062 C11.9219305,48.000062 3.35050197,40.3393477 0.725501975,37.1786334 Z M41.8469096,35.8286753 C43.5290734,35.6357344 46.2397668,35.7428773 46.775481,36.4393059 C47.1719305,36.9857972 46.775481,39.3429401 46.0790525,41.0572258 C45.3826239,42.750062 44.3647668,43.9286334 43.807603,44.3786543 C43.2183173,44.8607972 42.7897458,44.667961 43.1111744,43.9715324 C43.432603,43.2751038 45.1790106,38.9893896 44.4719096,38.0786753 C43.775481,37.1893059 40.5076239,37.6178773 39.3290525,37.7357972 C38.1719305,37.8429401 37.9361953,37.9500829 37.8290525,37.7036753 C37.5826448,37.0929401 40.1540734,36.042961 41.8469096,35.8286753 Z" id="Combined-Shape" opacity="0.200000003"></path>
                </g>
            </g>
        </g>
    </g>
</svg>