<?xml version="1.0" encoding="UTF-8"?>
<svg width="60px" height="48px" viewBox="0 0 60 48" version="1.1" xmlns="http://www.w3.org/2000/svg" xmlns:xlink="http://www.w3.org/1999/xlink">
    <!-- Generator: Sketch 63.1 (92452) - https://sketch.com -->
    <title>Group 2</title>
    <desc>Created with Sketch.</desc>
    <g id="2.-Customer-Account-Setup" stroke="none" stroke-width="1" fill="none" fill-rule="evenodd">
        <g id="Account_Setup-4.1" transform="translate(-516.000000, -228.000000)" fill="#FF5933" fill-rule="nonzero">
            <g id="Group" transform="translate(436.000000, 197.000000)">
                <g id="Group-2" transform="translate(80.000000, 31.003006)">
                    <path d="M28.4221875,6.69730682 L50.1215625,28.3948068 C50.6841422,28.9575149 51,29.7206707 51,30.5163693 L51,30.5163693 L51,34.4969943 C51,35.3254214 50.3284271,35.9969943 49.5,35.9969943 L49.5,35.9969943 L45.5146875,35.9969943 C44.7193137,35.9969943 43.9565409,35.6809068 43.3940625,35.1185568 L43.3940625,35.1185568 L21.7003125,13.4191818 L28.4221875,6.69730682 Z M19.2075,0.65324432 C20.0878478,-0.217748107 21.5052772,-0.217748107 22.385625,0.65324432 L22.385625,0.65324432 L26.3034375,4.56918182 L19.5825,11.3004318 L19.198125,10.9160568 L15.65625,7.37230682 C14.7863542,6.49516185 14.7863542,5.08070179 15.65625,4.20355682 L15.65625,4.20355682 Z" id="Combined-Shape"></path>
                    <path d="M57,14.9969943 L40.96875,14.9969943 L52.2421875,26.2732443 C53.3676906,27.3985071 54,28.9248375 54,30.5163693 L54,37.4969943 C54,38.3254214 53.3284271,38.9969943 52.5,38.9969943 L24.75,38.9969943 C24.3357864,38.9969943 24,38.6612079 24,38.2469943 L24,36.7469943 C24,36.3327808 24.3357864,35.9969943 24.75,35.9969943 L40.03125,35.9969943 L34.03125,29.9969943 L24.75,29.9969943 C24.3357864,29.9969943 24,29.6612079 24,29.2469943 L24,27.7469943 C24,27.3327808 24.3357864,26.9969943 24.75,26.9969943 L31.03125,26.9969943 L19.03125,14.9969943 L3,14.9969943 C1.34314575,14.9969943 0,16.3401401 0,17.9969943 L0,44.9969943 C0,46.6538486 1.34314575,47.9969943 3,47.9969943 L57,47.9969943 C58.6568542,47.9969943 60,46.6538486 60,44.9969943 L60,17.9969943 C60,16.3401401 58.6568542,14.9969943 57,14.9969943 Z" id="Combined-Shape" opacity="0.200000003"></path>
                    <path d="M13.5,38.9857443 L13.5,40.4969943 C13.5,40.9112079 13.1642136,41.2469943 12.75,41.2469943 L11.25,41.2469943 C10.8357864,41.2469943 10.5,40.9112079 10.5,40.4969943 L10.5,38.9698068 C9.43580442,38.9148799 8.41203388,38.5444688 7.5590625,37.9057443 C7.38615559,37.771217 7.28071235,37.5678141 7.27043755,37.3489789 C7.26016275,37.1301437 7.34608369,36.9177559 7.505625,36.7676193 L8.6071875,35.7157443 C8.86996871,35.4763744 9.26248771,35.4480883 9.556875,35.6473068 C9.91653014,35.8748264 10.3331726,35.9960493 10.75875,35.9969943 L13.3940625,35.9969943 C14.0034375,35.9969943 14.5003125,35.4419943 14.5003125,34.7604318 C14.5003125,34.2026193 14.161875,33.7113693 13.678125,33.5669943 L9.459375,32.3013693 C7.7165625,31.7782443 6.49875,30.1057443 6.49875,28.2335568 C6.49875,25.9348068 8.2846875,24.0673068 10.4990625,24.0082443 L10.4990625,22.4969943 C10.4990625,22.0827808 10.8348489,21.7469943 11.2490625,21.7469943 L12.7490625,21.7469943 C13.1632761,21.7469943 13.4990625,22.0827808 13.4990625,22.4969943 L13.4990625,24.0241818 C14.5633489,24.0786588 15.5872467,24.4491159 16.44,25.0882443 C16.6129069,25.2227717 16.7183502,25.4261746 16.728625,25.6450097 C16.7388998,25.8638449 16.6529788,26.0762328 16.4934375,26.2263693 L15.391875,27.2782443 C15.1287912,27.5177665 14.7359304,27.5460494 14.44125,27.3466818 C14.0821841,27.1186241 13.6656812,26.9973473 13.2403125,26.9969943 L10.605,26.9969943 C9.995625,26.9969943 9.49875,27.5519943 9.49875,28.2335568 C9.49875,28.7913693 9.8371875,29.2826193 10.3209375,29.4269943 L14.5396875,30.6926193 C16.2825,31.2157443 17.499375,32.8882443 17.499375,34.7604318 C17.499375,37.0601193 15.714375,38.9266818 13.5,38.9857443 L13.5,38.9857443 Z" id="Path"></path>
                </g>
            </g>
        </g>
    </g>
</svg>