<svg height="300" viewBox="0 0 1526 300" width="1526" xmlns="http://www.w3.org/2000/svg" xmlns:xlink="http://www.w3.org/1999/xlink"><mask id="a" fill="#fff"><path d="m0 0h1526v300h-1526z" fill="#fff" fill-rule="evenodd"/></mask><g fill="#fff" fill-rule="evenodd" mask="url(#a)" opacity=".1"><g transform="translate(-.437248 -.900974)"><path d="m79.0919467.90097423 174.8947983 175.52985077-253.54949721 254.470149h256.45050321l253.549497-254.470149-174.894798-175.52985077"/><path d="m510.436716 355.428083 75.471 75.472h-42.426l-33.045-33.045zm3.930204-87.068 162.539796 162.54h-42.426l-124.044-124.045v-34.566zm-3.930204-92.932 255.47 255.472h-42.426l-213.044-213.045zm3.930204-87.0679997 342.539796 342.5399997h-42.426l-304.044-304.045v-34.5659997zm2.540796-87.45999998 429.999 429.99999968h-42.426l-394.044-394.0449997.000532-35.95410907zm90.998 0 407.531004 407.52999968.00053 22.470891-19.956534-.000891-430-429.99999968zm90.001 0 317.530004 317.52999968v42.426l-359.957004-359.95599968zm92 0 225.530004 225.52999968v42.426l-267.957004-267.95599968zm91 0 134.530004 134.52999968v42.426l-176.957004-176.95599968zm84 0 50.530004 50.52999998v42.426l-92.957004-92.95599998z"/><path d="m1015.43725.900974h511v430h-511z"/></g></g></svg>