<?xml version="1.0" encoding="UTF-8"?>
<svg width="42px" height="48px" viewBox="0 0 42 48" version="1.1" xmlns="http://www.w3.org/2000/svg" xmlns:xlink="http://www.w3.org/1999/xlink">
    <title>63450B26-324A-4B94-95E1-9BE2362917D2</title>
    <g id="2.-Customer-Account-Setup" stroke="none" stroke-width="1" fill="none" fill-rule="evenodd">
        <g id="Account_Setup-2.1" transform="translate(-519.000000, -229.000000)" fill="#FF5933" fill-rule="nonzero">
            <g id="Group" transform="translate(436.000000, 197.000000)">
                <g id="Company" transform="translate(83.000000, 32.000000)">
                    <path d="M16.875,15 L13.125,15 C12.5036797,15 12,15.5036797 12,16.125 L12,19.875 C12,20.4963203 12.5036797,21 13.125,21 L16.875,21 C17.4963203,21 18,20.4963203 18,19.875 L18,16.125 C18,15.5036797 17.4963203,15 16.875,15 L16.875,15 Z M16.875,24 L13.125,24 C12.5036797,24 12,24.5036797 12,25.125 L12,28.875 C12,29.4963203 12.5036797,30 13.125,30 L16.875,30 C17.4963203,30 18,29.4963203 18,28.875 L18,25.125 C18,24.5036797 17.4963203,24 16.875,24 Z M16.875,6 L13.125,6 C12.5036797,6 12,6.50367966 12,7.125 L12,10.875 C12,11.4963203 12.5036797,12 13.125,12 L16.875,12 C17.4963203,12 18,11.4963203 18,10.875 L18,7.125 C18,6.50367966 17.4963203,6 16.875,6 Z M28.875,6 L25.125,6 C24.5036797,6 24,6.50367966 24,7.125 L24,10.875 C24,11.4963203 24.5036797,12 25.125,12 L28.875,12 C29.4963203,12 30,11.4963203 30,10.875 L30,7.125 C30,6.50367966 29.4963203,6 28.875,6 Z M28.875,15 L25.125,15 C24.5036797,15 24,15.5036797 24,16.125 L24,19.875 C24,20.4963203 24.5036797,21 25.125,21 L28.875,21 C29.4963203,21 30,20.4963203 30,19.875 L30,16.125 C30,15.5036797 29.4963203,15 28.875,15 L28.875,15 Z M28.875,24 L25.125,24 C24.5036797,24 24,24.5036797 24,25.125 L24,28.875 C24,29.4963203 24.5036797,30 25.125,30 L28.875,30 C29.4963203,30 30,29.4963203 30,28.875 L30,25.125 C30,24.5036797 29.4963203,24 28.875,24 Z" id="Shape" opacity="0.200000003"></path>
                    <path d="M40.875,45 L39,45 L39,2.25 C39,1.00735931 37.9926407,0 36.75,0 L5.25,0 C4.00735931,0 3,1.00735931 3,2.25 L3,45 L1.125,45 C0.503679656,45 0,45.5036797 0,46.125 L0,48 L42,48 L42,46.125 C42,45.5036797 41.4963203,45 40.875,45 Z M12,7.125 C12,6.50367966 12.5036797,6 13.125,6 L16.875,6 C17.4963203,6 18,6.50367966 18,7.125 L18,10.875 C18,11.4963203 17.4963203,12 16.875,12 L13.125,12 C12.5036797,12 12,11.4963203 12,10.875 L12,7.125 Z M12,16.125 C12,15.5036797 12.5036797,15 13.125,15 L16.875,15 C17.4963203,15 18,15.5036797 18,16.125 L18,19.875 C18,20.4963203 17.4963203,21 16.875,21 L13.125,21 C12.5036797,21 12,20.4963203 12,19.875 L12,16.125 Z M16.875,30 L13.125,30 C12.5036797,30 12,29.4963203 12,28.875 L12,25.125 C12,24.5036797 12.5036797,24 13.125,24 L16.875,24 C17.4963203,24 18,24.5036797 18,25.125 L18,28.875 C18,29.4963203 17.4963203,30 16.875,30 Z M24,45 L18,45 L18,37.125 C18,36.5036797 18.5036797,36 19.125,36 L22.875,36 C23.4963203,36 24,36.5036797 24,37.125 L24,45 Z M30,28.875 C30,29.4963203 29.4963203,30 28.875,30 L25.125,30 C24.5036797,30 24,29.4963203 24,28.875 L24,25.125 C24,24.5036797 24.5036797,24 25.125,24 L28.875,24 C29.4963203,24 30,24.5036797 30,25.125 L30,28.875 Z M30,19.875 C30,20.4963203 29.4963203,21 28.875,21 L25.125,21 C24.5036797,21 24,20.4963203 24,19.875 L24,16.125 C24,15.5036797 24.5036797,15 25.125,15 L28.875,15 C29.4963203,15 30,15.5036797 30,16.125 L30,19.875 Z M30,10.875 C30,11.4963203 29.4963203,12 28.875,12 L25.125,12 C24.5036797,12 24,11.4963203 24,10.875 L24,7.125 C24,6.50367966 24.5036797,6 25.125,6 L28.875,6 C29.4963203,6 30,6.50367966 30,7.125 L30,10.875 Z" id="Shape"></path>
                </g>
            </g>
        </g>
    </g>
</svg>