<?xml version="1.0" encoding="UTF-8"?>
<svg width="60px" height="80px" viewBox="0 0 60 80" version="1.1" xmlns="http://www.w3.org/2000/svg" xmlns:xlink="http://www.w3.org/1999/xlink">
    <title>7E01E5EB-EF55-45DF-BCE8-7CAD941D087A@1x</title>
    <g id="Contracts-[Desktop]" stroke="none" stroke-width="1" fill="none" fill-rule="evenodd">
        <g id="Contract-|-Voided" transform="translate(-690.000000, -280.000000)" fill-rule="nonzero">
            <g id="contract-void" transform="translate(690.000000, 280.000000)">
                <path d="M52.4998748,79.9998093 C54.5832024,79.9998093 56.3540331,79.2706435 57.8123622,77.8123145 C59.2706912,76.3539854 59.9998569,74.5831547 59.9998569,72.4998271 L59.9998569,20.6249508 C59.9998569,18.5416233 59.2706912,16.7707926 57.8123622,15.3124635 L44.6873935,2.18749478 C43.2290644,0.729165723 41.4582337,0 39.3749061,0 L7.49998212,0 C5.41665455,0 3.64582385,0.729165723 2.18749478,2.18749478 C0.729165723,3.64582385 0,5.41665455 0,7.49998212 L0,72.4998271 C0,74.5831547 0.729165723,76.3539854 2.18749478,77.8123145 C3.64582385,79.2706435 5.41665455,79.9998093 7.49998212,79.9998093 L52.4998748,79.9998093 Z" id="Path" fill="#FFF0ED"></path>
                <path d="M52.4998748,79.9998093 C54.5832024,79.9998093 56.3540331,79.2706435 57.8123622,77.8123145 C59.2706912,76.3539854 59.9998569,74.5831547 59.9998569,72.4998271 L59.9998569,72.4998271 L59.9998569,20.6249508 C59.9998569,18.5416233 59.2706912,16.7707926 57.8123622,15.3124635 L57.8123622,15.3124635 L44.6873935,2.18749478 C43.2290644,0.729165723 41.4582337,0 39.3749061,0 L39.3749061,0 L7.49998212,0 C5.41665455,0 3.64582385,0.729165723 2.18749478,2.18749478 C0.729165723,3.64582385 0,5.41665455 0,7.49998212 L0,7.49998212 L0,72.4998271 C0,74.5831547 0.729165723,76.3539854 2.18749478,77.8123145 C3.64582385,79.2706435 5.41665455,79.9998093 7.49998212,79.9998093 L7.49998212,79.9998093 L52.4998748,79.9998093 Z M54.9998689,19.9999523 L39.9999046,19.9999523 L39.9999046,4.99998808 C40.4165711,5.20832012 40.7811528,5.46873696 41.093652,5.78123622 L41.093652,5.78123622 L54.2186207,18.9062049 C54.53112,19.2187042 54.7915368,19.5832858 54.9998689,19.9999523 L54.9998689,19.9999523 Z M52.4998748,74.9998212 L7.49998808,74.9998212 C6.7708164,74.9998212 6.17186029,74.7654467 5.7031114,74.2966979 C5.23436252,73.827949 4.99998808,73.2289929 4.99998808,72.4998271 L4.99998808,72.4998271 L4.99998808,7.49998808 C4.99998808,6.7708164 5.23436252,6.17186029 5.7031114,5.7031114 C6.17186029,5.23436252 6.7708164,4.99998808 7.49998808,4.99998808 L7.49998808,4.99998808 L34.9999166,4.99998808 L34.9999166,21.2499493 C34.9999166,22.2916143 35.3644982,23.1770273 36.0936639,23.906193 C36.8228297,24.6353587 37.7082426,24.9999404 38.7499076,24.9999404 L38.7499076,24.9999404 L54.9998689,24.9999404 L54.9998689,72.4998271 C54.9998689,73.2289929 54.7654944,73.827949 54.2967455,74.2966979 C53.8279967,74.7654467 53.2290406,74.9998212 52.4998748,74.9998212 L52.4998748,74.9998212 Z M43.1248972,49.9998808 C43.6457285,49.9998808 44.0884373,49.8175888 44.453019,49.4530071 C44.8176007,49.0884254 44.9998927,48.6457166 44.9998927,48.1248853 L44.9998927,48.1248853 L44.9998927,46.8748882 C44.9998927,46.3540569 44.8176007,45.9113481 44.453019,45.5467664 C44.0884373,45.1821847 43.6457285,44.9998927 43.1248972,44.9998927 L43.1248972,44.9998927 L16.8749598,44.9998927 C16.3541285,44.9998927 15.9114196,45.1821847 15.5468379,45.5467664 C15.1822563,45.9113481 14.9999642,46.3540569 14.9999642,46.8748882 L14.9999642,46.8748882 L14.9999642,48.1248853 C14.9999642,48.6457166 15.1822563,49.0884254 15.5468379,49.4530071 C15.9114196,49.8175888 16.3541285,49.9998808 16.8749598,49.9998808 L16.8749598,49.9998808 L43.1248972,49.9998808 Z M52.4998748,79.9998093 C54.5832024,79.9998093 56.3540331,79.2706435 57.8123622,77.8123145 C59.2706912,76.3539854 59.9998569,74.5831547 59.9998569,72.4998271 L59.9998569,72.4998271 L59.9998569,20.6249508 C59.9998569,18.5416233 59.2706912,16.7707926 57.8123622,15.3124635 L57.8123622,15.3124635 L44.6873935,2.18749478 C43.2290644,0.729165723 41.4582337,0 39.3749061,0 L39.3749061,0 L7.49998212,0 C5.41665455,0 3.64582385,0.729165723 2.18749478,2.18749478 C0.729165723,3.64582385 0,5.41665455 0,7.49998212 L0,7.49998212 L0,72.4998271 C0,74.5831547 0.729165723,76.3539854 2.18749478,77.8123145 C3.64582385,79.2706435 5.41665455,79.9998093 7.49998212,79.9998093 L7.49998212,79.9998093 L52.4998748,79.9998093 Z M54.9998689,19.9999523 L39.9999046,19.9999523 L39.9999046,4.99998808 C40.4165711,5.20832012 40.7811528,5.46873696 41.093652,5.78123622 L41.093652,5.78123622 L54.2186207,18.9062049 C54.53112,19.2187042 54.7915368,19.5832858 54.9998689,19.9999523 L54.9998689,19.9999523 Z M52.4998748,74.9998212 L7.49998808,74.9998212 C6.7708164,74.9998212 6.17186029,74.7654467 5.7031114,74.2966979 C5.23436252,73.827949 4.99998808,73.2289929 4.99998808,72.4998271 L4.99998808,72.4998271 L4.99998808,7.49998808 C4.99998808,6.7708164 5.23436252,6.17186029 5.7031114,5.7031114 C6.17186029,5.23436252 6.7708164,4.99998808 7.49998808,4.99998808 L7.49998808,4.99998808 L34.9999166,4.99998808 L34.9999166,21.2499493 C34.9999166,22.2916143 35.3644982,23.1770273 36.0936639,23.906193 C36.8228297,24.6353587 37.7082426,24.9999404 38.7499076,24.9999404 L38.7499076,24.9999404 L54.9998689,24.9999404 L54.9998689,72.4998271 C54.9998689,73.2289929 54.7654944,73.827949 54.2967455,74.2966979 C53.8279967,74.7654467 53.2290406,74.9998212 52.4998748,74.9998212 L52.4998748,74.9998212 Z M43.1248972,49.9998808 C43.6457285,49.9998808 44.0884373,49.8175888 44.453019,49.4530071 C44.8176007,49.0884254 44.9998927,48.6457166 44.9998927,48.1248853 L44.9998927,48.1248853 L44.9998927,46.8748882 C44.9998927,46.3540569 44.8176007,45.9113481 44.453019,45.5467664 C44.0884373,45.1821847 43.6457285,44.9998927 43.1248972,44.9998927 L43.1248972,44.9998927 L16.8749598,44.9998927 C16.3541285,44.9998927 15.9114196,45.1821847 15.5468379,45.5467664 C15.1822563,45.9113481 14.9999642,46.3540569 14.9999642,46.8748882 L14.9999642,46.8748882 L14.9999642,48.1248853 C14.9999642,48.6457166 15.1822563,49.0884254 15.5468379,49.4530071 C15.9114196,49.8175888 16.3541285,49.9998808 16.8749598,49.9998808 L16.8749598,49.9998808 L43.1248972,49.9998808 Z" id="ffile-minus" fill="#FF5933"></path>
            </g>
        </g>
    </g>
</svg>