<?xml version="1.0" encoding="UTF-8"?>
<svg width="40px" height="40px" viewBox="0 0 40 40" version="1.1" xmlns="http://www.w3.org/2000/svg" xmlns:xlink="http://www.w3.org/1999/xlink">
    <title>User_Avatar</title>
    <g id="Dashboard" stroke="none" stroke-width="1" fill="none" fill-rule="evenodd">
        <g id="x.-Company-Placeholder" transform="translate(-287.000000, -694.000000)">
            <g id="Group-5" transform="translate(285.000000, 692.000000)">
                <g id="User_Avatar" transform="translate(2.000000, 2.000000)">
                    <rect id="Rectangle" fill="#F4F6FC" x="0" y="0" width="40" height="40"></rect>
                    <path d="M19.9999833,21.2856928 C22.8392631,21.2856928 25.1428297,18.9821262 25.1428297,16.1428464 C25.1428297,13.3035666 22.8392631,11 19.9999833,11 C17.1607035,11 14.8571369,13.3035666 14.8571369,16.1428464 C14.8571369,18.9821262 17.1607035,21.2856928 19.9999833,21.2856928 Z M19.9999833,19.5714107 C18.1106876,19.5714107 16.571419,18.0321421 16.571419,16.1428464 C16.571419,14.2535507 18.1106876,12.7142821 19.9999833,12.7142821 C21.889279,12.7142821 23.4285476,14.2535507 23.4285476,16.1428464 C23.4285476,18.0321421 21.889279,19.5714107 19.9999833,19.5714107 Z M26.2856845,29.2856761 C27.2321111,29.2856761 27.9999666,28.5178206 27.9999666,27.571394 L27.9999666,26.6571241 C27.9999666,24.0071227 25.8499641,21.8571202 23.1999627,21.8571202 C22.1749927,21.8571202 21.6821087,22.4285476 19.9999833,22.4285476 C18.3178579,22.4285476 17.8285662,21.8571202 16.8000039,21.8571202 C14.1500025,21.8571202 12,24.0071227 12,26.6571241 L12,27.571394 C12,28.5178206 12.7678555,29.2856761 13.7142821,29.2856761 L26.2856845,29.2856761 Z M26.2856845,27.5714023 L13.7142821,27.5714023 L13.7142821,26.6571241 C13.7142821,24.9571068 15.0999866,23.5714023 16.8000039,23.5714023 C17.3214175,23.5714023 18.1678513,24.1428297 19.9999833,24.1428297 C21.846415,24.1428297 22.6749917,23.5714023 23.1999627,23.5714023 C24.8999801,23.5714023 26.2856845,24.9571068 26.2856845,26.6571241 L26.2856845,27.5714023 Z" id="u" fill="#69707F" fill-rule="nonzero"></path>
                </g>
            </g>
        </g>
    </g>
</svg>