<?xml version="1.0" encoding="UTF-8"?>
<svg width="76px" height="42px" viewBox="0 0 76 42" version="1.1" xmlns="http://www.w3.org/2000/svg" xmlns:xlink="http://www.w3.org/1999/xlink">
    <title>Illustration - Upload</title>
    <g id="Onboarding-Flow-[Desktop]" stroke="none" stroke-width="1" fill="none" fill-rule="evenodd">
        <g id="Asset-Gathering-1.2.1" transform="translate(-632.000000, -343.000000)">
            <g id="Content" transform="translate(395.000000, 165.000000)">
                <g id="Description" transform="translate(0.000000, 135.000000)">
                    <g id="Illustration---Upload" transform="translate(237.000000, 43.000000)">
                        <path d="M26,6 L37.375,6 L37.375,6 L42.1875,10.8333333 L47,15.6666667 L47,15.6666667 L47,34 C47,34.5522847 46.5522847,35 46,35 L26,35 C25.4477153,35 25,34.5522847 25,34 L25,7 C25,6.44771525 25.4477153,6 26,6 Z" id="Rectangle-3" fill="#FFFFFF"></path>
                        <path d="M36.8318015,6 L47,16.2698864 C47,16.2698864 47,16.2744992 47,16.283194 L47,34.6363636 C47,35.3894318 46.3942206,36 45.6470588,36 L45.6470588,36 L25.3529412,36 C24.6057794,36 24,35.3894318 24,34.6363636 L24,34.6363636 L24,16.9090909 L25.3529412,16.9090909 L25.3529412,34.6363636 L45.6470588,34.6363636 L45.6470588,18.2727273 L36.1446765,18.2727273 C35.3975147,18.2727273 34.8235294,17.6348864 34.8235294,16.8818182 L34.8235294,16.8818182 L34.8235294,7.36363636 L25.3529412,7.36363636 L25.3529412,12.8181818 L24,12.8181818 L24,7.36363636 C24,6.61056818 24.6057794,6 25.3529412,6 L25.3529412,6 L36.8318015,6 Z M36.2366765,7.36363636 L36.1764706,7.36363636 L36.1764706,16.9090909 L45.6440147,16.9090909 L36.2366765,7.36363636 Z M25.3529412,14.1818182 L25.3529412,15.5454545 L24,15.5454545 L24,14.1818182 L25.3529412,14.1818182 Z" id="File-Icon" fill="#556178"></path>
                        <path d="M38.3474992,26.9285143 C38.3463764,27.330059 38.0200696,27.6565309 37.6185051,27.6576538 C37.2169405,27.6587767 36.8924545,27.3341246 36.8935778,26.9323981 L36.8964747,25.8964265 L34.0916064,28.7015189 C33.949053,28.843884 33.7627057,28.9154792 33.5765572,28.9159997 C33.3905904,28.9165197 33.2046406,28.8459656 33.063063,28.704395 C32.7799077,28.4212539 32.7811947,27.9609954 33.0659379,27.6762662 L35.8709886,24.8709915 L34.8346019,24.8738896 C34.4330373,24.8750125 34.1083695,24.5503609 34.1094924,24.1488162 C34.1106152,23.7472716 34.4371037,23.4207992 34.8386683,23.4196763 L37.6305593,23.4118693 C37.8234339,23.41133 38.008096,23.487341 38.1442358,23.6232917 C38.2801938,23.759243 38.3562082,23.9440776 38.3556688,24.1369427 L38.3474992,26.9285143 Z" id="Arrow" fill="#FF5933" transform="translate(35.603604, 26.163935) rotate(-45.000000) translate(-35.603604, -26.163935) "></path>
                        <g id="Cloud">
                            <path d="M17.6074179,21.424116 C18.6951719,19.7893184 20.6645696,18.7799072 22.8491574,19.0598506 C23.2334248,19.1093056 23.6067105,19.2024965 23.9638353,19.3342264 L23.963964,34.4262295 L12.3157398,34.4262295 C9.89053862,34.4262295 7.73591402,32.6281317 7.5951779,30.2351542 C7.4898528,28.4514124 8.45230627,26.8919843 9.90506622,26.0934279 C10.2555446,25.9005182 10.4779984,25.5281576 10.4271518,25.1351602 C10.313655,24.2657207 10.421704,23.2060632 11.5630285,22.0315572 C12.234022,21.339774 13.2436902,20.9683107 14.2134075,20.9683107 C15.0042537,20.969208 15.7324496,21.2123639 16.3371609,21.6233064 C16.7521055,21.9041471 17.3313935,21.8395447 17.6074179,21.424116 Z" fill="#C3D1DB"></path>
                            <path d="M71.480804,7.95313277 C71.6510855,6.76486369 71.5122944,5.47978123 70.8556613,4.12900397 C69.8456359,2.05443138 67.844246,0.526162912 65.5337838,0.228807508 C62.7276393,-0.130785073 60.1979105,1.16582279 58.8006698,3.26575126 C58.4461112,3.79937744 57.7020047,3.88236034 57.1690006,3.52161522 C56.3922374,2.99375175 55.4568559,2.68141332 54.4409989,2.68026078 C53.1953786,2.68026078 51.8984407,3.15741247 51.0365368,4.04602106 C49.5704838,5.55469635 49.4316927,6.91584647 49.5774816,8.03265805 C49.642795,8.53747071 49.3570488,9.01577495 48.9068527,9.26357112 C47.040755,10.289332 45.8044652,12.2924471 45.9397573,14.5836973 C46.1205355,17.6575223 48.8881918,19.9672131 52.0034087,19.9672131 L69.3651157,19.9672131 C72.2377399,19.9672131 74.83978,17.9894539 75.2946413,15.1864758 C75.7250101,12.5264128 74.2951127,10.1671627 72.0977826,9.11835104 C71.6545844,8.90628362 71.4119917,8.43604716 71.480804,7.95313277 Z" fill="#DBE5EC"></path>
                            <path d="M11.9368612,6.2250689 C12.0137592,5.68845414 11.9510821,5.10811908 11.6545507,4.49811667 C11.1984297,3.56125289 10.2946148,2.87109657 9.2512247,2.73681277 C7.9839877,2.57442304 6.84157828,3.15996291 6.21059328,4.10827724 C6.05047688,4.34925942 5.71444313,4.38673397 5.47374184,4.22382377 C5.12296053,3.98544399 4.70054819,3.84439394 4.24179365,3.84387346 C3.67927947,3.84387346 3.09359055,4.05935213 2.70436023,4.46064212 C2.04230001,5.14195027 1.97962286,5.75663701 2.0454602,6.26098201 C2.07495532,6.48895219 1.94591415,6.70495134 1.74260846,6.81685452 C0.899890591,7.2800816 0.341590002,8.18467563 0.402687047,9.21938962 C0.484325341,10.6075095 1.73418128,11.6505511 3.14099343,11.6505511 L10.9814298,11.6505511 C12.2786887,11.6505511 13.4537534,10.7574077 13.6591659,9.4916006 C13.8535177,8.29033304 13.2077851,7.22491074 12.2154848,6.75127405 C12.0153393,6.65550575 11.905786,6.44314996 11.9368612,6.2250689 Z" fill="#ECF3F8"></path>
                            <path d="M51.3759308,33.6436534 C51.4947318,32.8171575 51.3979008,31.9233234 50.9397847,30.9837955 C50.2351158,29.5408347 48.8387973,28.4778535 47.2268468,28.2710291 C45.2690716,28.0209159 43.5041446,28.9227664 42.5293255,30.3833635 C42.281959,30.7545251 41.762815,30.8122435 41.3909516,30.5613287 C40.8490238,30.1941753 40.196432,29.9769295 39.4876946,29.9761279 C38.6186572,29.9761279 37.7138168,30.3080089 37.1124885,30.9260771 C36.0896608,31.9754303 35.9928299,32.9221729 36.094543,33.6989669 C36.1401105,34.0500873 35.9407527,34.38277 35.6266624,34.5551236 C34.3247337,35.2685876 33.462206,36.6618465 33.5565958,38.2555166 C33.6827202,40.3935036 35.6136431,42 37.7870503,42 L49.8998691,42 C51.9040256,42 53.7194024,40.6243773 54.0367475,38.6747769 C54.3370048,36.8245804 53.3394019,35.1836133 51.8063809,34.4541164 C51.4971729,34.3066137 51.3279221,33.9795426 51.3759308,33.6436534 Z" fill="#E0E9EF"></path>
                        </g>
                    </g>
                </g>
            </g>
        </g>
    </g>
</svg>