<?xml version="1.0" encoding="UTF-8"?>
<svg width="42px" height="48px" viewBox="0 0 42 48" version="1.1" xmlns="http://www.w3.org/2000/svg" xmlns:xlink="http://www.w3.org/1999/xlink">
    <title>C6276A84-4F7D-4D5C-BDD6-AE6793E3B689</title>
    <g id="2.-Customer-Account-Setup" stroke="none" stroke-width="1" fill="none" fill-rule="evenodd">
        <g id="Account_Setup-1.1" transform="translate(-516.000000, -229.000000)" fill="#FF5933" fill-rule="nonzero">
            <g id="Group" transform="translate(436.000000, 197.000000)">
                <g id="Password" transform="translate(80.000000, 32.000000)">
                    <g id="Group" transform="translate(0.000000, 0.000000)">
                        <path d="M14.25,21 L6.75,21 L6.75,14.25 C6.75,6.39375 13.14375,0 21,0 C28.85625,0 35.25,6.39375 35.25,14.25 L35.25,21 L27.75,21 L27.75,14.25 C27.75,10.522078 24.727922,7.5 21,7.5 C17.272078,7.5 14.25,10.522078 14.25,14.25 L14.25,21 Z" id="Path" opacity="0.200000003"></path>
                        <path d="M37.5,21 L4.5,21 C2.01471863,21 0,23.0147186 0,25.5 L0,43.5 C0,45.9852814 2.01471863,48 4.5,48 L37.5,48 C39.9852814,48 42,45.9852814 42,43.5 L42,25.5 C42,23.0147186 39.9852814,21 37.5,21 L37.5,21 Z M24.75,36.65625 C24.75,38.7273178 23.0710678,40.40625 21,40.40625 C18.9289322,40.40625 17.25,38.7273178 17.25,36.65625 L17.25,32.15625 C17.25,30.0851822 18.9289322,28.40625 21,28.40625 C23.0710678,28.40625 24.75,30.0851822 24.75,32.15625 L24.75,36.65625 Z" id="Shape"></path>
                    </g>
                </g>
            </g>
        </g>
    </g>
</svg>