<svg xmlns="http://www.w3.org/2000/svg" viewBox="0 0 822.23 142.22"><defs><style>.cls-1{fill:#ff5933;}</style></defs><g id="Layer_2" data-name="Layer 2"><g id="Layer_1-2" data-name="Layer 1"><path d="M448.81,97.66v16.39H391.58V27h57.23V43.37H410.53V62.06h32.53V77.94H410.53V97.66Z"/><path d="M454.15,114.05l16.62-27.4L455.69,61.16H474.2L482,76.81l7.82-15.65h18.28L493.05,86.65l16.62,27.4h-18.8l-9-17.42-9.22,17.42Z"/><path d="M531.78,142.22H515V61.16h11.14l3.76,7.51a22.53,22.53,0,0,1,18.27-8.91c14.47,0,25,11.65,25,27.4,0,16.9-10.12,28.42-24.84,28.42a22.55,22.55,0,0,1-16.52-6.53ZM555.72,87.8c0-8.45-4.61-13.7-11.78-13.7-7.42,0-12.42,5.12-12.42,13.31,0,8.46,5,13.83,12.42,13.83C551,101.24,555.72,95.87,555.72,87.8Z"/><path d="M630.32,85.75a44.86,44.86,0,0,1-.52,7H594.46c1.8,6.53,7,10.12,15.11,10.12,5.51,0,10-1.67,12.81-4.1l5.89,10.76a35.8,35.8,0,0,1-21,6.27c-17.8,0-29.71-11.52-29.71-28.17,0-16.13,11.78-28.17,28.3-28.17C621,59.5,630.32,69.62,630.32,85.75Zm-36.11-3h20.87c-.26-7.29-4.48-10.62-9.73-10.62S595.49,75.76,594.21,82.8Z"/><path d="M669.4,75.44S668,74.1,664.7,74.1c-7.17,0-11.46,5.5-11.46,13.06v26.89H636.08V61.16h11.14L651,68.62c3.35-5.7,8.63-8.74,15.6-8.74a16,16,0,0,1,9.35,2.57Z"/><path d="M761.2,75.17A27.24,27.24,0,0,0,750,72.31c-3.33,0-6.15.76-6.15,3.58s2.94,4.35,8.71,6.27c8.32,2.82,15.75,7.56,15.75,16.65,0,10.24-8.2,16.65-21.13,16.65a39.61,39.61,0,0,1-21.51-5.89l5.5-11a29.41,29.41,0,0,0,14.47,4.36c3.72,0,6-1.67,6-4.1,0-3.33-4.74-5-9.22-6.66-8.83-3.2-14.34-8.07-14.34-16.26,0-10.24,8.58-16,20.23-16,6,0,11.51,1.28,18.17,4.74Z"/><path d="M722.82,110.42a30.73,30.73,0,0,1-17.09,5c-10.24,0-18.18-5.77-18.18-18.95V75.38l-8.71-.77V61.16h8.71l.64-18h16.39v18h15.49V75.38H704.58V94.07c0,4.48,2.3,5.89,5.38,5.89a15.91,15.91,0,0,0,6.87-1.52Z"/><path d="M65.56,90.23c0,14.47-11.27,23.82-27.4,23.82H0V27H35.73C51.6,27,62.49,36.07,62.49,49.9A21.53,21.53,0,0,1,51.86,68.85C60.18,72.43,65.56,80.12,65.56,90.23ZM18.7,62.32H32c7.43,0,11.4-4.1,11.4-10.5,0-6.15-4.48-10-11.53-10H18.7ZM46.61,87.93c0-6.53-4.61-11-11.91-11h-16V99.19H34.45C41.87,99.19,46.61,94.84,46.61,87.93Z"/><path d="M105.27,106.51a19.78,19.78,0,0,1-16.33,8.82c-12.55,0-19-8.32-19-21V61.16H87.14V91.9c0,5.12,2,8.32,7.17,8.32,6,0,9.22-5,9.22-11.27V61.16h17v52.89H109Z"/><path d="M134.75,142.22l11.95-27.66-23.21-53.4h18.86l12.42,34.58,11.65-34.58h18.2l-31.39,81.06Z"/><path d="M264,90.23c0,14.47-11.27,23.82-27.4,23.82H198.44V27h35.72c15.88,0,26.77,9.09,26.77,22.92A21.53,21.53,0,0,1,250.3,68.85C258.62,72.43,264,80.12,264,90.23ZM217.13,62.32h13.32c7.43,0,11.4-4.1,11.4-10.5,0-6.15-4.49-10-11.53-10H217.13Zm27.92,25.61c0-6.53-4.61-11-11.91-11h-16V99.19h15.75C240.31,99.19,245.05,94.84,245.05,87.93Z"/><path d="M267.09,87.67c0-16.65,12.29-28.17,29.58-28.17s29.58,11.65,29.58,28.17-12.3,28.17-29.58,28.17S267.09,104.32,267.09,87.67Zm41.74,0c0-8.19-4.74-13.7-12.16-13.7s-12.17,5.51-12.17,13.7,4.87,13.7,12.17,13.7S308.83,95.87,308.83,87.67Z"/><path d="M322.24,114.05l16.62-27.4L323.78,61.16H342.3l7.82,15.65,7.82-15.65h18.29L361.15,86.65l16.62,27.4H359l-9-17.42-9.21,17.42Z"/><polygon class="cls-1" points="735.13 0 822.23 0 822.23 87.01 795.27 114.05 795.27 26.96 708.18 26.96 735.13 0"/></g></g></svg>