<svg xmlns="http://www.w3.org/2000/svg" viewBox="0 0 431.69 257.46"><defs><style>.cls-1{fill:#ff5933;}</style></defs><g id="Layer_2" data-name="Layer 2"><g id="Layer_1-2" data-name="Layer 1"><path d="M65.56,90.23c0,14.47-11.27,23.82-27.4,23.82H0V27H35.73C51.6,27,62.49,36.07,62.49,49.9A21.53,21.53,0,0,1,51.86,68.85C60.18,72.43,65.56,80.12,65.56,90.23ZM18.7,62.32H32c7.43,0,11.4-4.1,11.4-10.5,0-6.15-4.48-10-11.53-10H18.7ZM46.61,87.93c0-6.53-4.61-11-11.91-11h-16V99.19H34.45C41.87,99.19,46.61,94.84,46.61,87.93Z"/><path d="M105.27,106.51a19.78,19.78,0,0,1-16.33,8.82c-12.55,0-19-8.32-19-21V61.16H87.14V91.9c0,5.12,2,8.32,7.17,8.32,6,0,9.22-5,9.22-11.27V61.16h17v52.89H109Z"/><path d="M134.75,142.22l11.95-27.66-23.21-53.4h18.86l12.42,34.58,11.65-34.58h18.2l-31.39,81.06Z"/><path d="M264,90.23c0,14.47-11.27,23.82-27.4,23.82H198.44V27h35.72c15.88,0,26.77,9.09,26.77,22.92A21.53,21.53,0,0,1,250.3,68.85C258.62,72.43,264,80.12,264,90.23ZM217.13,62.32h13.32c7.43,0,11.4-4.1,11.4-10.5,0-6.15-4.49-10-11.53-10H217.13Zm27.92,25.61c0-6.53-4.61-11-11.91-11h-16V99.19h15.75C240.31,99.19,245.05,94.84,245.05,87.93Z"/><path d="M267.09,87.67c0-16.65,12.29-28.17,29.58-28.17s29.58,11.65,29.58,28.17-12.3,28.17-29.58,28.17S267.09,104.32,267.09,87.67Zm41.74,0c0-8.19-4.74-13.7-12.16-13.7s-12.17,5.51-12.17,13.7,4.87,13.7,12.17,13.7S308.83,95.87,308.83,87.67Z"/><path d="M57.23,212.9v16.39H0V142.22H57.23v16.39H19V177.3H51.47v15.88H19V212.9Z"/><path d="M62.56,229.29l16.62-27.4L64.1,176.41H82.62l7.82,15.64,7.82-15.64h18.29l-15.08,25.48,16.62,27.4H99.29l-9-17.42-9.22,17.42Z"/><path d="M140.2,257.46H123.42v-81h11.14l3.75,7.5A22.55,22.55,0,0,1,156.59,175c14.46,0,25,11.65,25,27.4,0,16.9-10.11,28.43-24.84,28.43a22.57,22.57,0,0,1-16.51-6.53ZM164.14,203c0-8.45-4.61-13.7-11.78-13.7-7.43,0-12.42,5.12-12.42,13.32,0,8.45,5,13.82,12.42,13.82C159.4,216.48,164.14,211.11,164.14,203Z"/><path d="M238.73,201a44.8,44.8,0,0,1-.51,7H202.88c1.79,6.53,7,10.12,15.11,10.12,5.51,0,10-1.67,12.81-4.1l5.88,10.76a35.76,35.76,0,0,1-21,6.27c-17.8,0-29.71-11.52-29.71-28.17,0-16.13,11.78-28.17,28.3-28.17C229.39,174.74,238.73,184.86,238.73,201Zm-36.11-2.94H223.5c-.26-7.3-4.49-10.63-9.73-10.63S203.91,191,202.62,198.05Z"/><path d="M277.82,190.68s-1.44-1.34-4.7-1.34c-7.17,0-11.47,5.5-11.47,13.06v26.89H244.5V176.41h11.14l3.73,7.45c3.34-5.7,8.62-8.73,15.6-8.73a16,16,0,0,1,9.35,2.56Z"/><path d="M331.24,225.66a30.73,30.73,0,0,1-17.09,5c-10.25,0-18.19-5.76-18.19-18.95V190.62l-8.7-.77V176.41H296l.64-18.06H313v18.06h15.5v14.21H313v18.69c0,4.49,2.31,5.89,5.38,5.89a15.91,15.91,0,0,0,6.87-1.52Z"/><path d="M369.62,190.41a27.24,27.24,0,0,0-11.23-2.86c-3.33,0-6.14.76-6.14,3.58s2.94,4.35,8.7,6.28c8.33,2.81,15.75,7.55,15.75,16.64,0,10.25-8.19,16.65-21.12,16.65a39.65,39.65,0,0,1-21.52-5.89l5.51-11A29.33,29.33,0,0,0,354,218.15c3.71,0,6-1.67,6-4.1,0-3.33-4.74-5-9.22-6.66-8.84-3.2-14.34-8.06-14.34-16.26,0-10.24,8.58-16,20.23-16a37.28,37.28,0,0,1,18.16,4.73Z"/><path d="M322.24,114.05l16.62-27.4L323.78,61.16H342.3l7.82,15.65,7.82-15.65h18.29L361.15,86.65l16.62,27.4H359l-9-17.42-9.21,17.42Z"/><polygon class="cls-1" points="344.6 0 431.69 0 431.69 87.01 404.74 114.05 404.74 26.96 317.64 26.96 344.6 0"/></g></g></svg>