<?xml version="1.0" encoding="UTF-8"?>
<svg width="180px" height="180px" viewBox="0 0 180 180" version="1.1" xmlns="http://www.w3.org/2000/svg" xmlns:xlink="http://www.w3.org/1999/xlink">
    <title>7CE5AF39-DA2E-47BC-B0B0-6B0D20CF23C6</title>
    <g id="1.-General-Dashboard" stroke="none" stroke-width="1" fill="none" fill-rule="evenodd">
        <g id="x.-Page-not-found" transform="translate(-630.000000, -446.000000)" fill="#FF5933" fill-rule="nonzero">
            <g id="Page-not-found" transform="translate(630.000000, 446.000000)">
                <path d="M37.7419355,90 C37.7419355,86.1526597 35.748802,82.9077823 32.8654234,80.7941649 C37.3152411,53.1646149 61.1350185,31.9354839 90,31.9354839 C102.861802,31.9354839 114.549837,36.3930968 124.159685,43.5242867 L107.603641,60.080331 C102.29387,56.8666239 96.2065741,55.1656317 90,55.1612903 C70.7591119,55.1612903 55.1612903,70.7591119 55.1612903,90 C55.1612903,109.240888 70.7591119,124.83871 90,124.83871 C109.240888,124.83871 124.83871,109.240888 124.83871,90 L148.064516,90 C148.064516,118.864981 126.834677,142.684759 99.2058351,147.133869 C97.0936258,144.251906 93.8473403,142.258065 90,142.258065 C86.1526597,142.258065 82.9063742,144.251906 80.7941649,147.133869 C56.161572,143.1499 36.8493906,123.837717 32.8654234,99.2051238 C35.748802,97.0914919 37.7419355,93.8466327 37.7419355,90 Z M159.677419,90 C159.677419,124.932981 133.942478,153.776696 100.413621,158.815524 C98.5412593,162.880126 94.4751229,165.48387 90,165.48387 C85.5248771,165.48387 81.4587407,162.880126 79.5863794,158.815524 C49.4244558,154.249618 25.7503817,130.575544 21.1844758,100.413621 C17.1198416,98.5411052 14.5161093,94.4748611 14.5161093,89.9996444 C14.5161093,85.5244276 17.1198416,81.4581835 21.1844758,79.5856681 C26.2225923,46.0575218 55.0677302,20.3225806 90,20.3225806 C105.465267,20.3150813 120.487435,25.487748 132.669479,35.0152004 L147.137411,20.5451601 C131.067009,7.24891048 110.857799,-0.017807668 90,-3.26516073e-05 C40.2935988,-3.26516073e-05 0,40.2943065 0,90 C0,139.705694 40.2935988,180 90,180 C139.706401,180 180,139.705694 180,90 L159.677419,90 Z M88.2988911,95.8050327 L84.1949673,91.7004012 C81.928227,89.4325603 81.928227,85.7568309 84.1949673,83.4889899 L98.9690952,68.7141508 C96.1451075,67.4560861 93.0914681,66.7956037 90,66.7741935 C77.1727413,66.7741935 66.7741935,77.1727413 66.7741935,90 C66.7741935,102.827259 77.1727413,113.225806 90,113.225806 C102.827259,113.225806 113.225806,102.827259 113.225806,90 L102.316028,90 L96.5109956,95.8050327 C94.2431723,98.0724693 90.5667144,98.0724693 88.2988911,95.8050327 L88.2988911,95.8050327 Z" id="Shape" opacity="0.200000003"></path>
                <path d="M79.5863794,158.815524 C49.4244558,154.249618 25.7503817,130.575544 21.1844758,100.413621 C22.7213351,101.180588 24.4115703,101.590548 26.1290323,101.612903 C28.6948706,101.612903 30.9431685,100.614919 32.8654234,99.2051238 C36.8493906,123.837717 56.161572,143.1499 80.7941649,147.133869 C79.3850806,149.05612 78.3870968,151.304418 78.3870968,153.870968 C78.4094523,155.58843 78.8194122,157.278665 79.5863794,158.815524 Z M99.2058351,147.133869 C100.614919,149.05612 101.612903,151.304418 101.612903,153.870968 C101.590548,155.58843 101.180588,157.278665 100.413621,158.815524 C133.942478,153.776696 159.677419,124.932981 159.677419,90 L148.064516,90 C148.064516,118.864981 126.834677,142.684759 99.2058351,147.133869 Z M169.589214,14.5147101 L165.48529,10.4100786 C163.217467,8.14264201 159.541009,8.14264201 157.273185,10.4100786 L132.669479,35.0152004 C120.487596,25.4874504 105.465323,20.3147473 90,20.3225806 C55.0677302,20.3225806 26.2225923,46.0575218 21.1844758,79.5856681 C22.7213866,78.8189293 24.4116231,78.4092122 26.1290323,78.3870968 C28.6948706,78.3870968 30.9431685,79.384373 32.8654234,80.7941649 C37.3152411,53.1646149 61.1350185,31.9354839 90,31.9354839 C102.861802,31.9354839 114.549837,36.3923891 124.159685,43.5242867 L107.603641,60.080331 C102.29387,56.8666239 96.2065741,55.1656317 90,55.1612903 C70.7591119,55.1612903 55.1612903,70.7591119 55.1612903,90 C55.1612903,109.240888 70.7591119,124.83871 90,124.83871 C109.240888,124.83871 124.83871,109.240888 124.83871,90 L113.225806,90 C113.225806,102.827259 102.827259,113.225806 90,113.225806 C77.1727413,113.225806 66.7741935,102.827259 66.7741935,90 C66.7741935,77.1727413 77.1727413,66.7741935 90,66.7741935 C93.0919094,66.7957609 96.1459812,67.4562374 98.9705141,68.7141653 L84.1949673,83.4890044 C81.928227,85.7568454 81.928227,89.4325748 84.1949673,91.7004157 L88.2988911,95.8050472 C90.5667144,98.0724838 94.2431723,98.0724838 96.5109956,95.8050472 L169.589214,22.7261069 C170.678393,21.6373565 171.290323,20.160437 171.290323,18.6204085 C171.290323,17.08038 170.678393,15.6034604 169.589214,14.5147101 Z" id="Shape"></path>
            </g>
        </g>
    </g>
</svg>