<?xml version="1.0" encoding="UTF-8"?>
<svg width="263px" height="32px" viewBox="0 0 263 32" version="1.1" xmlns="http://www.w3.org/2000/svg" xmlns:xlink="http://www.w3.org/1999/xlink">
    <title>D924BD8C-3365-4C69-B061-F4C2D6DF4907</title>
    <g id="2.-Customer-Account-Setup" stroke="none" stroke-width="1" fill="none" fill-rule="evenodd">
        <g id="Account_Setup-4.1" transform="translate(-589.000000, -64.000000)">
            <g id="Base/Logo" transform="translate(589.000000, 64.000000)">
                <g id="BBE_Logo/Horizontal_onWhite" fill-rule="nonzero">
                    <g id="Logo_Horizontal-Original">
                        <polygon id="Path" fill="#FFFFFF" points="100.433007 21.853986 100.433007 25.5216783 87.6262937 25.5216783 87.6262937 6.04195804 100.433007 6.04195804 100.433007 9.70517483 91.8668531 9.70517483 91.8668531 13.8875524 99.1462937 13.8875524 99.1462937 17.4411189 91.8668531 17.4411189 91.8668531 21.853986"></polygon>
                        <polygon id="Path" fill="#FFFFFF" points="101.627972 25.5216783 105.347133 19.3902098 101.972587 13.6861538 106.114685 13.6861538 107.86014 17.1882517 109.61007 13.6861538 113.700699 13.6861538 110.332867 19.3902098 114.052028 25.5216783 109.845035 25.5216783 107.831049 21.6234965 105.767832 25.5216783"></polygon>
                        <path d="M118.99972,31.8254545 L115.244755,31.8254545 L115.244755,13.6861538 L117.737622,13.6861538 L118.579021,15.3667133 C119.547537,14.0901638 121.065202,13.3500217 122.667413,13.3728671 C125.905455,13.3728671 128.261818,15.9798601 128.261818,19.5043357 C128.261818,23.2861538 125.997203,25.8640559 122.703217,25.8640559 C121.322927,25.9032863 119.986859,25.3751675 119.006434,24.4027972 L118.99972,31.8254545 Z M124.356923,19.6475524 C124.356923,17.7566434 123.325315,16.5818182 121.720839,16.5818182 C120.06042,16.5818182 118.941538,17.7275524 118.941538,19.5602797 C118.941538,21.4534266 120.06042,22.6551049 121.720839,22.6551049 C123.300699,22.6551049 124.356923,21.4534266 124.356923,19.6475524 Z" id="Shape" fill="#FFFFFF"></path>
                        <path d="M141.050716,19.1888112 C141.052814,19.7131935 141.013907,20.2369409 140.934266,20.7552448 L133.026014,20.7552448 C133.428811,22.2165035 134.592448,23.0198601 136.407273,23.0198601 C137.64028,23.0198601 138.645035,22.6461538 139.273846,22.1023776 L140.591888,24.5102098 C139.210647,25.4576613 137.56718,25.9483536 135.892587,25.9132867 C131.909371,25.9132867 129.244196,23.3353846 129.244196,19.6095105 C129.244196,16 131.88028,13.3057343 135.577063,13.3057343 C138.965035,13.3146853 141.050716,15.5793007 141.050716,19.1888112 Z M132.97007,18.5174825 L137.64028,18.5174825 C137.582098,16.8861538 136.637762,16.140979 135.462937,16.140979 C134.288112,16.140979 133.256503,16.9532867 132.97007,18.5286713 L132.97007,18.5174825 Z" id="Shape" fill="#FFFFFF"></path>
                        <path d="M149.795804,16.8816783 C149.795804,16.8816783 149.482517,16.5818182 148.744056,16.5818182 C147.13958,16.5818182 146.17958,17.8125874 146.17958,19.5043357 L146.17958,25.5216783 L142.33958,25.5216783 L142.33958,13.6861538 L144.832448,13.6861538 L145.678322,15.3555245 C146.427972,14.08 147.60951,13.3997203 149.169231,13.3997203 C149.909365,13.370379 150.640382,13.5713108 151.261538,13.9748252 L149.795804,16.8816783 Z" id="Path" fill="#FFFFFF"></path>
                        <path d="M170.338462,16.8212587 C169.558436,16.4310817 168.703764,16.2128351 167.832168,16.1812587 C167.086993,16.1812587 166.455944,16.3513287 166.455944,16.9823776 C166.455944,17.6134266 167.113846,17.9558042 168.405035,18.3854545 C170.266853,19.0165035 171.92951,20.0772028 171.92951,22.1113287 C171.92951,24.4027972 170.094545,25.8372028 167.201119,25.8372028 C165.503522,25.8679344 163.832816,25.4104513 162.387692,24.5191608 L163.618462,22.0576224 C164.594397,22.6593422 165.710597,22.9956677 166.856503,23.0332867 C167.688951,23.0332867 168.199161,22.6595804 168.199161,22.1158042 C168.199161,21.3706294 167.138462,20.9969231 166.135944,20.6254545 C164.16,19.9093706 162.926993,18.8195804 162.926993,16.9868531 C162.926993,14.6953846 164.846993,13.4064336 167.453986,13.4064336 C168.796643,13.4064336 170.02965,13.6928671 171.52,14.4671329 L170.338462,16.8212587 Z" id="Path" fill="#FFFFFF"></path>
                        <path d="M161.74993,24.7093706 C160.613511,25.4515848 159.28286,25.8408919 157.925594,25.8282517 C155.634126,25.8282517 153.857343,24.5370629 153.857343,21.5876923 L153.857343,16.8682517 L151.908252,16.6959441 L151.908252,13.6861538 L153.857343,13.6861538 L154.000559,9.65818182 L157.668252,9.65818182 L157.668252,13.6861538 L161.134545,13.6861538 L161.134545,16.8682517 L157.668252,16.8682517 L157.668252,21.0506294 C157.668252,22.0531469 158.182937,22.3686713 158.872168,22.3686713 C159.403578,22.3714464 159.92887,22.2552247 160.40951,22.0285315 L161.74993,24.7093706 Z" id="Path" fill="#FFFFFF"></path>
                        <path d="M14.6707692,20.1913287 C14.6707692,23.4293706 12.1488112,25.5216783 8.5393007,25.5216783 L0,25.5216783 L0,6.04195804 L7.99552448,6.04195804 C11.5468531,6.04195804 13.9837762,8.07160839 13.9837762,11.1664336 C14.0145674,12.9057374 13.1053618,14.5265697 11.605035,15.406993 C13.4668531,16.2081119 14.6707692,17.928951 14.6707692,20.1913287 Z M4.18461538,13.9457343 L7.16083916,13.9457343 C8.8234965,13.9457343 9.71188811,13.0282517 9.71188811,11.5960839 C9.71188811,10.2198601 8.70937063,9.35832168 7.13174825,9.35832168 L4.18461538,9.35832168 L4.18461538,13.9457343 Z M10.4302098,19.6766434 C10.4302098,18.2153846 9.3986014,17.2151049 7.76503497,17.2151049 L4.18461538,17.2151049 L4.18461538,22.1963636 L7.70909091,22.1963636 C9.36951049,22.1963636 10.4302098,21.2229371 10.4302098,19.6766434 Z" id="Shape" fill="#FFFFFF"></path>
                        <path d="M23.5569231,23.8344056 C22.742254,25.0584121 21.3729549,25.7979845 19.9026573,25.8081119 C17.0942657,25.8081119 15.6509091,23.9462937 15.6509091,21.1088112 L15.6509091,13.6861538 L19.4998601,13.6861538 L19.4998601,20.565035 C19.4998601,21.7107692 19.9474126,22.4268531 21.1043357,22.4268531 C22.446993,22.4268531 23.1675524,21.307972 23.1675524,19.9048951 L23.1675524,13.6861538 L26.9717483,13.6861538 L26.9717483,25.5216783 L24.3916084,25.5216783 L23.5569231,23.8344056 Z" id="Path" fill="#FFFFFF"></path>
                        <polygon id="Path" fill="#FFFFFF" points="30.1538462 31.8254545 32.827972 25.6358042 27.6341259 13.6861538 31.8545455 13.6861538 34.6338462 21.4243357 37.2408392 13.6861538 41.3135664 13.6861538 34.2892308 31.8254545"></polygon>
                        <path d="M59.0769231,20.1913287 C59.0769231,23.4293706 56.554965,25.5216783 52.9454545,25.5216783 L44.4061538,25.5216783 L44.4061538,6.04195804 L52.3994406,6.04195804 C55.953007,6.04195804 58.3899301,8.07608392 58.3899301,11.1709091 C58.4190944,12.9086237 57.5101048,14.5273605 56.0111888,15.406993 C57.873007,16.2081119 59.0769231,17.928951 59.0769231,20.1913287 Z M48.5885315,13.9457343 L51.5692308,13.9457343 C53.2318881,13.9457343 54.1202797,13.0282517 54.1202797,11.5960839 C54.1202797,10.2198601 53.1155245,9.35832168 51.5401399,9.35832168 L48.5885315,9.35832168 L48.5885315,13.9457343 Z M54.8363636,19.6766434 C54.8363636,18.2153846 53.8047552,17.2151049 52.1711888,17.2151049 L48.5907692,17.2151049 L48.5907692,22.1963636 L52.1152448,22.1963636 C53.7756643,22.1963636 54.8363636,21.2229371 54.8363636,19.6766434 Z" id="Shape" fill="#FFFFFF"></path>
                        <path d="M59.7683916,19.6184615 C59.7683916,15.8925874 62.5186014,13.3146853 66.3876923,13.3146853 C70.2567832,13.3146853 73.006993,15.9216783 73.006993,19.6184615 C73.006993,23.3152448 70.2545455,25.9222378 66.3876923,25.9222378 C62.5208392,25.9222378 59.7683916,23.3443357 59.7683916,19.6184615 Z M69.1088112,19.6184615 C69.1088112,17.7857343 68.0481119,16.5527273 66.3876923,16.5527273 C64.7272727,16.5527273 63.6643357,17.7857343 63.6643357,19.6184615 C63.6643357,21.4511888 64.7541259,22.6841958 66.3876923,22.6841958 C68.0212587,22.6841958 69.1088112,21.4534266 69.1088112,19.6184615 Z" id="Shape" fill="#FFFFFF"></path>
                        <polygon id="Path" fill="#FFFFFF" points="72.1096503 25.5216783 75.8288112 19.3902098 72.4542657 13.6861538 76.5986014 13.6861538 78.3485315 17.1882517 80.0984615 13.6861538 84.1913287 13.6861538 80.8167832 19.3902098 84.5359441 25.5216783 80.3356643 25.5216783 78.3216783 21.6234965 76.2606993 25.5216783"></polygon>
                        <polygon id="Path" fill="#FF5933" points="164.504615 0 183.995524 0 183.995524 19.4707692 177.962517 25.5216783 177.962517 6.03300699 158.473846 6.03300699"></polygon>
                    </g>
                </g>
                <text id="Central" font-family="Noah-Bold, Noah" font-size="16" font-weight="bold" fill="#FFFFFF">
                    <tspan x="192" y="25">CENTRAL</tspan>
                </text>
            </g>
        </g>
    </g>
</svg>